<svg id="Layer_1" data-name="Layer 1" xmlns="http://www.w3.org/2000/svg" viewBox="0 0 156.09 95.17"><defs><style>.cls-1{fill:#233871;}.cls-2{fill:#a11d2a;}.cls-3{fill:#484748;}.cls-4{fill:#24406d;}.cls-5{fill:#a41e2a;}.cls-6{fill:#691d33;}.cls-7{fill:#fff;}.cls-8{fill:#768390;}</style></defs><path class="cls-1" d="M18.83,8.72c7,5.9,5.8,18.81-.57,24.7-.1.1-.52.36-.54.39a9.28,9.28,0,0,0,.89,2.61c4,8.2,11.07,2.76,14.73-2.37a27.25,27.25,0,0,0,2.77-4.58c.3-.83.55-3.22,1.09-3.76s1.73-.18,2.2.35c.88,1,.25,1.74,0,2.78-.29,1.31-1.07,5.22-.08,6.21.5.49,1.54-.52,1.89-.9,2.4-2.58,3-6.5,3.93-9.71.53-1.81,3.35-1.06,3.29.6,0,.35-.17.8-.18,1.17-.18,3.65-.14,11,5.56,9.42,2.19-.63,5.79-3.85,6.56-6,.32-.87.1-3.56,1.14-3.88a1.79,1.79,0,0,1,2.33,1.79,23.75,23.75,0,0,0-.35,4.58c0,.16,0,.29.14.4a24.21,24.21,0,0,1,3.24-5.1c.94-1,2.31-1.63,3.49-.6,1.43,1.23,1.73,5.76,2.42,7.67,2.06,5.8,7.8-.77,9.42-3.48.28-.47.9-2,1.15-2.26.5-.44,1-.05,1.3-.22.11-.07.57-.86.72-1.05,1.6-1.93,4.11-3.43,6.66-2.47a3.59,3.59,0,0,1,2.28,4,13.67,13.67,0,0,1-.6,1.55c-.69,2.23-1.26,6.2.23,8.19,1.36,1.82,2.28-1.45,2.52-2.48s.2-2.15.4-3.1c.14-.61,1.13-.55,1.29-.06A16.25,16.25,0,0,1,98.32,35a8.34,8.34,0,0,0,1.2,3.82,1.16,1.16,0,0,0,1.93,0c.15-.14.64-.78.59-.94s-.73-1.07-.94-1.5c-.9-1.83-1.63-5-.81-6.88s2.58-1.76,3.53-.14.91,4.43.55,6.28c-.07.36-.61,1.88-.59,2,0,.37,1.16.8,1.51.83,1.36.14,3.16-1.24,3.7-2.44a17.37,17.37,0,0,1,.52-1.87c.25-.38,1.21,0,1.27.44,0,.2-.42,1.24-.46,1.69-.32,3.89,4.89,1.18,5.64-.81l.54-2.22a2,2,0,0,0-2.27,0c-.52.47-.47,1.39-1.37,1-1.14-.49.67-2.33,1.39-2.59,1.06-.38,1.79.07,2.8.2.12-.08,1-2.12,1.44-2.51s1.16.12,1.07.7c-.06.36-1.54,2.09-1.26,2.38a3.7,3.7,0,0,0,2.7-.13c.55-.29,1-1.06,1.52-.45s.17.87-.28,1.25a4,4,0,0,1-3,.86c-.33,0-1.42-.46-1.57-.21a8.14,8.14,0,0,0-.43,1.7c-.28,2.91,1.41,3.81,4,2.74a8.33,8.33,0,0,0,3.26-2.86c.23-2,1-5.65,3.23-6.35,2-.63,3.23,1,2.72,2.9s-2.26,2.85-3.87,3.48c-.49.2-.81,0-.91.62,0,.13-.11.83,0,.89.36-.06.46-.46.83-.69,1.74-1.06,2.23,1.86,3.61,2.08,1.77.27,3.34-1,4.38-2.25.26-.31.32-.83.84-.74,1.78.31-.6,2.58-1.14,3-1.48,1.24-3.92,1.93-5.57.63-.35-.29-1.15-1.48-1.48-1.49-.14,0-.44.34-.53.46-.33.45-.73,1.84-1.19,2-1.15.25-1-2.05-1.14-2.05-1.83,1.53-4.71,2.83-6.94,1.39a2.81,2.81,0,0,1-1.08-1.44c0-.09,0-.14-.14-.13s-.74.56-1,.76a5.26,5.26,0,0,1-4.63.79c-.65-.27-.73-.75-1.24-1.1a6,6,0,0,1-2.39,1.55,5.21,5.21,0,0,1-2.42,0c-.35-.09-1.12-.62-1.28-.61s-.63.66-.85.86c-1.54,1.38-3.22.83-4.15-.88-.2-.37-.29-.79-.47-1.14,0-.11,0-.21-.18-.18-.66,1.45-1.5,3.72-3.54,2.73-2.73-1.32-2.3-7.11-1.66-9.54.32-1.24,1.27-2.66.44-3.85-1.39-2-4.14-.93-5.55.44a11.31,11.31,0,0,0-1.45,1.93,5.69,5.69,0,0,1,.33,1c0,.92-1.25,2.78-1.81,3.58-2.37,3.35-7.41,8.54-11.8,5.64-2.74-1.82-2.94-5.76-3.7-8.59,0-.11,0-.23-.13-.31s-.77.9-.89,1.08a34,34,0,0,0-2.93,6.22c-.22.62-.27,1.71-.81,2.06a3.77,3.77,0,0,1-1.62.31c-.77-.11-1-1.22-1.13-1.85-.19-.79-.34-1.77-.46-2.59,0-.31.1-.7-.14-.92-.17,0-1.17,1.1-1.39,1.3-3.9,3.35-10,4.74-12.72-.74-.33-.66-.46-1.32-.74-2,0-.1,0-.27-.21-.23s-.65,1.15-.79,1.37c-1.22,2-3.62,5-6.34,3.87-1.25-.54-1.45-1.41-2.05-2.44,0-.07,0-.14-.15-.11-2.89,4.18-7,8.58-12.55,8.43a9,9,0,0,1-3.18-.77c-3.18-1.48-4.69-4.92-5.88-8a.17.17,0,0,0-.17-.09c-.25,0-1.21.43-1.56.52s-1.82.21-2,.47c-.65,4.47-2.41,11-7.3,12.5a10.17,10.17,0,0,1-2.37.41c-1.47-.16-1.55-3-.59-3.81.49-.43,1.2-.37,1.79-.54C7,44,7.81,36.54,8.11,32.58a89.29,89.29,0,0,0,0-12C8,19.32,7.78,18,7.75,16.71a1.82,1.82,0,0,1,2-1.75c.68,0,1,.43,1.12,1a25.38,25.38,0,0,1,.36,4.3c.1,1.31.24,2.63.28,3.93.08,2.71,0,5.43-.09,8.12.3.31,3-.87,3.4-1.12,3.86-2.21,5.51-6.54,5.48-10.85-.06-9.31-8.43-13.41-16-8-1.13.81-2.42,2.58-3.78,1C-1,11.46,1.22,9.87,2.61,8.88,7.55,5.35,14,4.63,18.83,8.72Zm83,21c-.12,0-.39.51-.44.64-.49,1.32.13,3.8.71,5.06.08.18.4,1,.61.92a3.12,3.12,0,0,0,.29-1c.26-1.4.44-4.14-.48-5.3C102.39,29.81,102.19,29.57,101.87,29.68ZM128.2,33a4,4,0,0,0,.85-1c.94-1.79-.64-2.36-1.77-1A7,7,0,0,0,126,33.77c-.09.71.84.11,1.2-.07A4.7,4.7,0,0,0,128.2,33Z"/><path class="cls-1" d="M86.84,59.33c1.13.06,2.23-.22,3.36-.17a11.89,11.89,0,0,1,4.7,1.21,20.68,20.68,0,0,0,2.15,1.44.8.8,0,0,0,.55,0c.5-3.78,1.52-8.82,4.56-11.4,3.68-3.11,6.6-.08,6.18,4.12-.37,3.68-3.75,6.8-6.27,9.15-.34.3-1.88.86-1.95,1.1a5.2,5.2,0,0,0,.28,2.11c.89,2.83,3.22,3.41,5.82,2.28s5.42-4.33,6.71-6.92c.18-.35.32-1.14.57-1.39.63-.64,1.59.21,2.16.54.13,0,.22-.91.3-1.14.88-2.68,3.71-2.14,5,0s1.07,4.4.91,6.62a6.58,6.58,0,0,0,1.21.67,10.07,10.07,0,0,0,1.32.3c2.28.23,3.9-3.34,4.07-5.23.06-.79-.21-1.81.44-2.43s2.14-.69,2.45.25a11,11,0,0,1,.07,2,25.45,25.45,0,0,0,.39,2.74c0,.09.15.59.32.44.65-1.61.9-4.3,1.89-5.69.75-1.07,1.68-.64,2.08.42.72,1.89.69,4.43,1.26,6.46,0,.16.12.37.33.34l1-3.37c-.08-1.44-.78-4.59.7-5.5a1.35,1.35,0,0,1,1.63.13,3.44,3.44,0,0,1,.63,2.67c-.06.67-.44,1.73-.43,2.35a6.65,6.65,0,0,0,1.2,2.37c2.79,3.4,7.28,1,9-2.18.43-.8.38-1.73,1.62-1.47,1.07.22,1.19,1.51.89,2.37a10.5,10.5,0,0,1-4.06,4.64,6.92,6.92,0,0,1-9.54-1.92c-.61,1-1.12,3.34-2.45,3.65-1.49.34-2.31-1.74-2.66-2.85-.17-.55-.24-1.24-.41-1.74,0-.11-.06-.26-.22-.23a23.92,23.92,0,0,0-.8,2.43c-.29.78-.81,2.25-1.87,2-1.21-.24-1.6-2.18-2-3.08,0-.09-.09-.25-.23-.21-1.23,2-2.78,3.49-5.28,3.3-1.31-.1-2.21-.74-3.42-1.07-.19,0-.51.67-.7.87a4.12,4.12,0,0,1-7-1.1,15.29,15.29,0,0,0-.68-1.73,18.59,18.59,0,0,1-4.27,3.79c-4.12,2.46-8.54,1.6-10.12-3.21-.33-1-.4-2-.65-3a6.6,6.6,0,0,1-3-1.15c-1.71-1.14-2-1.52-4.28-1.65-1.16-.07-2.23.14-3.37.18l-.18,6.23c-.36,2.11-.37,7.19-2.52,8.33-2.39,1.28-4.27-1.84-5-3.71-1.65-4.48-1.08-10.47,3.57-12.84.29-.15,1.52-.56,1.57-.76-.05-1-.18-2.08-.26-3.12-.1-1.45-.22-2.87-.35-4.31,0-.28,0-1.87-.23-1.92-2.26.95-3.21,3.38-3.36,5.69,0,.69.23,2.08-.14,2.56-.09.12-.29.16-.31.24s0,.38,0,.59a2.6,2.6,0,0,1-3.46,2c-1.74-.52-4.28-4.15-6.07-2.19a20.13,20.13,0,0,1-2.65,3c-2.29,1.77-6.8,3.19-9,.54a6.75,6.75,0,0,1-.56-1c-.26-.44-.93.52-1.21.74-2,1.6-5,2.2-7,.09-.57-.61-1.09-2.11-2-.89-.6.84-1.08,3.72-2.43,2a12.11,12.11,0,0,1-.23-4.88,3,3,0,0,1-1.71-1.61c-.88-2.09,1-3.92.32-5.52-.19-.46-.54-.54-1-.62a32.35,32.35,0,0,0-4.07-.1c0,3.43.42,7.19-.65,10.51-.57,1.76-1.92,3.72-4,3.5-.37-.37-.58-1.32,0-1.62s1-.18,1.63-.87c1.73-1.93,1.72-8.33,1.43-10.84,0-.13-.08-.55-.22-.59a3.74,3.74,0,0,0-3.26,3.63c-.09.73.29,1.57-.86,1.57-.85,0-.87-.61-.85-1.3.21-6,4.94-6.09,9.73-5.79,1.55.1,3,0,3.8,1.67,1.06,2.24-.7,3.87-.33,5.53.09.41.3.47.44,0,.72-2.17,1-4.83,3.39-5.94s4.26,1.25,3.57,3.65c-.75,2.58-3.36,4-5.72,4.77l-.17,1.58c.14.16.62-.6.71-.68,2.06-2,2.94,1.57,4.4,2.24,2.15,1,4.86-1.4,5.95-3.09.76-1.18,1-2.3,2.45-2.84,2.28-.83,3.53,1.64,2.58,3.57a6.11,6.11,0,0,1-2.55,2.28c1.87,1.47,4.71.36,6.38-.94,2-1.57,2.27-4.16,5.41-4,1.57.1,2.24,1.11,3.36,1.92.59.43,2.19,1.39,2.62.39.18-.43-.23-.59-.29-1.1a15,15,0,0,1,.79-6.74c2.93-6.91,12.91-5,18.88-5.31,1,.16.93,2.61.17,3.11-2.3,0-4.59,0-6.89,0a19.71,19.71,0,0,0-3.59.16c-.26.05-.68-.08-.85.14ZM47.2,56.74A5.48,5.48,0,0,0,51,53.68c.65-1.67-.55-2.44-1.87-1.33A7,7,0,0,0,47.2,56.74Zm56.9,1.13a9.13,9.13,0,0,0,1.81-3.53c.59-2.92-1.56-2.57-3-.91a13.71,13.71,0,0,0-2.37,5.34,14.52,14.52,0,0,0-.37,2.14c0,.2,0,.15.21.12C101.42,60.84,103.43,58.74,104.1,57.87Zm-42.66-.12c-.69-.72-1.78.8-2,1.42-.06.17-.29.94-.15,1,.37.23,1.7-.8,1.94-1.12S61.74,58.07,61.44,57.75Zm58.3,7.51V63.51c0-.07-.4-1.17-.47-1.32-.24-.5-1.13-1.55-1.24-.47a5.2,5.2,0,0,0,.93,2.84c.06.09.37.53.42.57A.35.35,0,0,0,119.74,65.26Zm-1,3.11c.09-.15.17-.22.08-.41s-1-1-1.21-1.31a10.63,10.63,0,0,1-1.48-2.73,9.08,9.08,0,0,0-.45-1.61c-.26,0-.75,2.49-.77,2.81-.09,1.58.9,4.61,3,3.88A3.69,3.69,0,0,0,118.72,68.37ZM83,63.88c-2.63,2.1-2.64,7.32-.59,9.77C83.58,75,84,73,84.14,72a42.46,42.46,0,0,0,.37-8c0-.16-.11-.94-.23-.94A7.91,7.91,0,0,0,83,63.88Z"/><path class="cls-2" d="M32,48.63c-.37-2.56-3.51-3.24-5.56-2.33a7.58,7.58,0,0,0-2.94,2.79c-.61,1.11-.1.75.57,1.37,1.52,1.42,1.53,4.55.6,6.29-1.15.12-.4-1-.3-1.67.23-1.44,0-4.19-1.83-4.52s-3.76,2.49-4.26,4l0,.14,1.93.13c.29-.46.4-1,.69-1.47s1-1.49,1.52-1.1-.28.86-.49,1.15a5.31,5.31,0,0,0-1,3.29l-.69,0c-.14-.2.12-.79-.21-.95-.06,0-1.07-.14-1.21-.14-2.09,0-2.67,1.16-3,3,.3.38.52-.27.83-.41s.46-.18.68,0c.34.41-.79,1.25-1.08,1.62a9.15,9.15,0,0,0-1.88,6.54c.11.93.76,3.11,2.06,2.7,1-.32.9-3.86,1.93-4s.21,1,.07,1.42a12.85,12.85,0,0,1-.78,2.63c-.42.74-1.08.61-.41,1.47A4.59,4.59,0,0,0,20.71,72c.4,0,1.31-.29,1.31.4s-.94.5-1.36.5c-.21.21,1.1,1.44,1.3,1.61,1.78,1.43,5.68,2.32,6.46-.63.15-.55,0-1.33.93-.88A3.37,3.37,0,0,1,27,76.55a4,4,0,0,0-.31,1.85A31.6,31.6,0,0,0,26.4,83a.45.45,0,0,1-.9-.09,40.87,40.87,0,0,1,.35-6c-.56-.16-1.13-.08-1.71-.21a8,8,0,0,1-4.27-3c-.16-.2-.35-.69-.49-.81-.31-.27-1.6-.47-2.3-1.06s-.79-1.24-1.17-1.61c-.17-.18-.42-.16-.62-.28-2.54-1.51-2-6-1-8.37.13-.34.59-1,.64-1.24.17-.67.06-1.84.23-2.64a3.92,3.92,0,0,1,1.19-2.13,8.29,8.29,0,0,0,.76-.51c.28-.4.59-1.37.88-1.88.93-1.67,2.29-3.24,4.3-3.46,1.42-3.42,5.11-5.83,8.75-3.92a5.8,5.8,0,0,1,5.45-1c.34.12.87.51,1.13.57.47.13,2-.65,2.67-.77a7.48,7.48,0,0,1,3.55.2c.37.13,1.19.74,1.38.77.56.11,1.44-.05,2.06,0a5.87,5.87,0,0,1,3.81,1.75c.22.25.46.76.67.94a9.73,9.73,0,0,0,.91.43,5.65,5.65,0,0,1,3,4.55,8.94,8.94,0,0,0,0,1c0,.15.51.65.65.88a5.86,5.86,0,0,1,.77,2.37c0,.27-.67,1.48-.9,1.3a4.34,4.34,0,0,0-2.42-4.76l.18-.89.8.27a4.75,4.75,0,0,0-2.22-3.83c-.39-.24-1.15-.44-1.41-.65s-.43-.71-.64-1a5.21,5.21,0,0,0-4.24-1.55c-.06.06.58,1-.32,1-.3,0-.85-.83-1.16-1.09-2.05-1.71-4.82-1-7,.09a4.81,4.81,0,0,0-6-.13c.51.59,1.38,2.77,1,3.41a1.81,1.81,0,0,1-.81.49C31.91,49.71,32,49.1,32,48.63Z"/><path class="cls-2" d="M53.12,65.08c0,.21-.13.24-.27.32a11.23,11.23,0,0,1-5.29,1.25,10,10,0,0,1-.67,2.47A5.28,5.28,0,0,1,42.76,72c-.57.05-1.35-.1-1.87,0s-1.37.81-2.09,1a8.26,8.26,0,0,1-4.15-.51,4.11,4.11,0,0,1-2.19,3.32c-.33.18-1,.35-1.21.59A26.93,26.93,0,0,0,29,82.12c-.12.47.05,1.25-.61,1.22-.48,0-.44-.4-.4-.8C28,81.41,30,76,30.8,75.45c.31-.2.89-.31,1.28-.52.81-.45,2-1.91,1.66-2.88a7.09,7.09,0,0,0-2.1-.86,9.29,9.29,0,0,0-3-.12c-.76-.49-.1-.9.52-1,4.74-.52,7.42,4.37,12,.59.18-.15,1-1,1-1,.47-.14.7.3.51.7-.05.12-.71.6-.58.72a4.38,4.38,0,0,0,4.31-5.74l.67-.16c.18,0,.19.49.31.57a14.36,14.36,0,0,0,1.93-.05c.7-.1,1.77-.62,2.37-.68A13.57,13.57,0,0,0,53.12,65.08Z"/><path class="cls-2" d="M25.2,62.07c2.35,1.49,3.07,4.91,6.26,5,1.65,0,2.7-.85,4.27-1.08.07.41-.13.58-.42.79s-1.29.56-.93.78a8.72,8.72,0,0,0,6.41-.4c.48-.22,1.85-1.2,2.09-1.25a.71.71,0,0,1,.45.09,1.32,1.32,0,0,1,0,.56,11.83,11.83,0,0,1-2.68,1.62,9.46,9.46,0,0,1-5.66.48c-.63-.15-1.6-.71-2.09-.78a8.75,8.75,0,0,0-1.35.09,5,5,0,0,1-4.07-2.12c-.24-.28-.88-1.32-1.14-1.37s-.26.54-.38.75c-.21.38-.91,1.51-1.41,1.09s.49-1.16.7-1.7c.37-.94.22-1.28-.56-1.81a7.44,7.44,0,0,0-2.5-1A.49.49,0,0,1,22.1,61C22.58,60.71,24.71,61.76,25.2,62.07Z"/><path class="cls-2" d="M26.92,59.54a.47.47,0,0,1-.47.7,13.45,13.45,0,0,1-1.3-.85c-1.65-.9-4.37-1.31-5.7.31-1.88,2.31,1.6,4.33,2.83,6a5.58,5.58,0,0,1,1.25,3.67c0,.42-.1,1.09-.65.93s-.23-1-.24-1.38c-.11-3.73-5.51-4.94-4.44-8.74.84-3,5.07-2.71,7.29-1.56A14.18,14.18,0,0,1,26.92,59.54Z"/><path class="cls-2" d="M29.34,48.78c.14.25-.35,1.51-.42,1.92-.66,4.17,1.79,5.8,2.55,9.54l1.65,1.12,1-.28c1,.72-.76,1.05-1.17,1.57a3.85,3.85,0,0,0-2.51-1.78c-.38,0-1.67.19-1.44-.54s1-.29,1.49-.36c-.52-2.37-2-4-2.49-6.43-.05-.25,0-.52-.07-.74a8,8,0,0,0-.83-.8c-.31-.28-1.44-.88-1-1.33s1.29.62,1.73.78a8.6,8.6,0,0,0,.41-1.74c.09-.31.24-1.09.6-1.11A.8.8,0,0,1,29.34,48.78Z"/><path class="cls-2" d="M25.3,69.4c.68-.12,1.12,1.48,1.11,2a3.24,3.24,0,0,1-.82,2c-.35.27-.81.23-.81-.26s.67-.92.72-1.63-.62-1.19-.49-1.91A.54.54,0,0,1,25.3,69.4Z"/><path class="cls-2" d="M136.87,3.12c.18,0,.14-.19.17-.31.39-1.31.54-3.31,2.51-2.32a3.13,3.13,0,0,1,1.06,1.08c.12.47-.44,1.61-.58,2.16a6.3,6.3,0,0,0-.25,2.8A30,30,0,0,0,141.53,9c.74.89,1.22.36,2.19.31a12.26,12.26,0,0,1,2.29.06c.46.15.87,1.17.89,1.62a2.62,2.62,0,0,1-.89,2c-.33.15-.94,0-1.17.31.93.27,1.56.55,1.69,1.6,0,.26-.14.57,0,.73s.79.57,1,.73.65.81,1,.77l3.37-1c.62-.05,1,.41,1.24.91.35.67.65,2.2-.15,2.61-.5.28-2.45.71-2.76,1a.54.54,0,0,0,.31.86c1.11.13,2.83-.21,3.85,0s1,3,.2,3.48a10,10,0,0,1-2.7.27c-.41,0-.93.11-1.34.18-.12,0-.16-.06-.14.13.24.34.17.89.32,1.21.08.15.31.27.42.48s.12.58.23.84c.89,2.19,2.06,3.6,2.65,6.14.39,1.68.27,3.18.51,4.78.07.44.53,1.38.69,1.91a16.54,16.54,0,0,1,.81,7.48c-.35,2.34-.77,3.55-2.57,5.06-1.13,1-.83.57-2.09,1-1,.38-1.68,1-2.9,1.05a16.24,16.24,0,0,0-3,.17,3.9,3.9,0,0,1-2.33-.17,13.1,13.1,0,0,0-2.32-.18,19.36,19.36,0,0,1-2.91-.68c-.19-.11-.32-.38-.59-.4s0,1.06-.57,1.43a7.77,7.77,0,0,1-3.38.63,8.2,8.2,0,0,1-2-.43,1.46,1.46,0,0,1-.72-.71l-.15-3.25A50.08,50.08,0,0,1,124,48.67c-.17,0-.12,0-.16.12-.22.49.23,1.9,0,2.63-.2.52-2.12.89-2.66.93a7.83,7.83,0,0,1-3.4-.46.7.7,0,0,1-.48-.59,20.24,20.24,0,0,1,.07-3.65c0-1.32,0-2.64,0-4a7.08,7.08,0,0,0,.1-1.07c0-.21-.18-.58-.17-.62.06-.27.52-.22.73-.12a21.53,21.53,0,0,1,2,2.53,26.1,26.1,0,0,0,8,5.66,56.71,56.71,0,0,0,9.47,3.53c.34,0,.51-.27.82-.41a9.13,9.13,0,0,1,1.45-.39,3.35,3.35,0,0,1,.79-3.94c.69-.61,2.42-1.66,2.78-2.41.12-.25.14-.57.25-.82s.52-.39.33-.88c-.3-.78-1.15-1.68-1.53-2.5-1.17-2.5.11-5.3.25-7.88,0-.2,0-.71-.25-.34-.38.69-1.34,1.7-1.44,2.41,0,.29.06.73,0,1s-.26.16-.34.29-.08.46-.18.53c-.51.2-.54-.37-.76-.69a1.74,1.74,0,0,0-1-.67,3.1,3.1,0,0,0-.28,1.18c0,.28.87,1.39.14,1.39-.38,0-1.12-1.29-1-1.71l-.53.09c.38-.79.73-1.14.62-2.1,0-.23-.23-.32-.13-.58a4.24,4.24,0,0,1,1-1.12c.54-.4,1.44-.64,1.82-1.13a9.28,9.28,0,0,0,1-1.92c.69-2-.19-1.3-1.22-2.32a2.78,2.78,0,0,1-.52-.79c-.08-.19,0-.43-.17-.59s-.78-.19-1.13-.44-.51-.82-.67-.94-.45-.05-.68-.13A2.43,2.43,0,0,1,135.57,23c-.1-.14-.55-.08-.77-.13-.81-.21-1-1.23-1.25-1.35a1.21,1.21,0,0,0-.86,0,5.12,5.12,0,0,0-.32.86c0,.33.27.7.15.86-.28.11-.59.41-.81.09-.07,0-.4,1.11-.81,1.17s-.67-.7-1.21-.64c-.13-.15.35-.52.45-.67A1.94,1.94,0,0,0,130.5,22c-.43.44-.7,1.91-1.53,1.47a.65.65,0,0,1,.11-.33c.1-.22.44-.59.51-.76A14,14,0,0,0,130,21l.34.05.19-.1a2.85,2.85,0,0,0-2.06-2.11c0,.41.38.73.44,1.13a5.5,5.5,0,0,1-.22,2.28,5.59,5.59,0,0,1-.73,1.51.42.42,0,0,1-.57-.3,5.53,5.53,0,0,0,.8-3.58c-.08-.41-.54-.77.1-1.08-2-1.07-4.56-.34-6.34.83a10.65,10.65,0,0,0-4.5,6.26,10.66,10.66,0,0,1-.51,2.27.74.74,0,0,1-.35.1,26.93,26.93,0,0,1-4.06-.78c-.84-.78-.53-2.42.2-3.17a1.27,1.27,0,0,1,1.25-.35c.83.1,1.8.44,2.62.52.16,0,.45.06.57,0,.28-.59.5-1.21.82-1.78.74-1.28,2-2.3,2.21-3.89a12,12,0,0,0-.46-3.54c0-.08-.15-.33-.21-.34-.39,0-.87.05-1.24,0-1.3-.17-1.43-3.67.22-3.68-1.06-.67-.49-2.5.28-3.17s1.28-.2,2,0c.55-1-.45-2-.26-3,.13-.66,1.42-1.67,2-1.9,1.88-.69,1.57.74,2.53,1.72a2,2,0,0,0,1.39.59L129.92,5c.07-1,0-1.94,0-2.92,0-.17-.1-.35-.09-.54.05-1.39,3.18-1.5,3.39-.79l.2,3.39c0,.14.4,0,.36-.18L134,.61c.42-.8,2.59-.79,3-.12C137.21,1,136.69,2.51,136.87,3.12Zm-.43,2.31c-.37-.21-.31-2.25-.29-2.71s.29-1.57.09-1.8-1.47-.28-1.66,0a8.83,8.83,0,0,0-.14,2.28c0,.48-.35,3.12-1.29,2.11-.7-.76-.46-3.2-.63-4.22-.48-.18-1.69-.15-2,.33-.16.24.07,1.17.08,1.51a30.09,30.09,0,0,1,0,3.15c-.22,2.59-4.5,3.5-4.91,6.11-.21,1.32.56,4.61,1.73,5.41a6.67,6.67,0,0,0,1.09.43.23.23,0,0,0,.25-.07,12.58,12.58,0,0,0,.69-1.29,16,16,0,0,1,2.66-3.08,2.77,2.77,0,0,0-.16-.71c0-.09,0-.26-.18-.12s-.22,1.36-.68,1.43-.09-1.46,0-1.77a3.94,3.94,0,0,1,2.62-2.31c.25-.07,1.39-.22,1.43-.36,0-.38-.59-.92-.63-1.17-.1-.66.91-.52,1.2-.75.09-.07,0-.35.4-.43.76-.17.44.29.59.52s.44,0,.49.23c0,.56-.14,1,.16,1.56,1.08-.1,2.24,0,3.31-.18.13,0,.22,0,.31-.14-.5-.95-2-2.16-2.06-3.24A12,12,0,0,1,139.51,3c.07-.23.39-.83.41-1,0-.53-1.22-1.23-1.59-.91a5.43,5.43,0,0,0-.53,1.32c-.21.8-.26,1.94-.54,2.69C137.12,5.48,136.82,5.52,136.44,5.43ZM122.61,4.29c-.12-.12-1,.49-.81.71C122,5,122.75,4.42,122.61,4.29Zm2.47,1.38a12.72,12.72,0,0,1-1-1.07c-.38-.23-.42.21-.63.45a6.48,6.48,0,0,1-2,1.35c.55,1.64-.6,3.08-1,4.59a11.77,11.77,0,0,0-.2,4.1c.1.76.46,1.68.53,2.42a4.64,4.64,0,0,1-.17,1.93c.19.14,1.26-.69,1.53-.84a9.64,9.64,0,0,1,3.26-1c.19,0,.81.08.86-.14,0-.05-.46-.8-.54-1-1-2.37-1.35-7.39,1.86-8.19.2-.05.41,0,.6,0a6.54,6.54,0,0,0,1.08-.8A2.56,2.56,0,0,0,130,5.81C128.47,5.61,126.37,6.63,125.08,5.67Zm-5.79,3c-.4-.39-1.07,2-.35,1.19A1.73,1.73,0,0,0,119.29,8.68Zm1.26,0h-.27v.63C120.52,9.21,120.56,8.91,120.55,8.68Zm15.57.91c-1,.29.93,1.67.43.08C136.46,9.54,136.25,9.55,136.12,9.59Zm9.68,2.56a1.67,1.67,0,0,0,.07-1.94c-.46-.58-1.62-.14-2.24-.1-1.71.13-3.6.1-5.28.28-.15,0-.65.09-.68.22.23.46.27,1.19-.22,1.48S137.08,12,137,12a4,4,0,0,0-1.45-.2c-.15-.24-.11-1.07-.34-1.15a5,5,0,0,0-1.82.4,1.86,1.86,0,0,0-.71,2c.15.48,1.48-.84,1.49-.07,0,.41-1.11.87-1.45,1.11a10,10,0,0,0-3.28,4.21c1.15-.37,3,1.37,3.88,1.24.23,0,.45-.21.71-.2.42,0,.89.47,1.18.39s1.07-2.11,1.32-2.55c1.75-3,4.75-3.78,8-2.59.21.07,1.16.6,1.26.49a1,1,0,0,0-.27-.85,9.7,9.7,0,0,0-1.79-.64,12.73,12.73,0,0,0-5.49-.19c-.38.09-1.42.62-1.64.61s-.2-.42-.07-.55a7.24,7.24,0,0,1,1.42-.71c2.2-.73,5.12-.21,7.44-.45A.76.76,0,0,0,145.8,12.15Zm-26-1.24.19-.7c-.26.16-.51.37-.45.71Zm-.44,1.9c.29-.08.26-1.06,0-1C119,12.11,119.38,12.47,119.38,12.81Zm-1-.36c-.27-.16-.35.28-.36.49a1.14,1.14,0,0,0,.32.85C118.57,13.79,118.5,12.64,118.39,12.45Zm1.17,1.79c0-.21.08-.53-.18-.63l-.18.63Zm29.86,10V21.64a10.66,10.66,0,0,0-.95-2.82,8.28,8.28,0,0,0-7.34-3.94,10.81,10.81,0,0,0-1.48.35c-.05.07.09.34.08.49a9.48,9.48,0,0,1-.33.92,6.26,6.26,0,0,0,.16,3.43c.18,0,.4-.12.56-.08s1.22,1.93,1,2.13l-.68.36c-1.25-.82-1.92-2.78-2-4.25a6.88,6.88,0,0,1,.46-2.46c-.17-.18-1.46,1.13-1.26,1.34,0,0,.3-.11.34.24s-.17.88-.16,1.33.4,1.61.35,1.78-.33.19-.48.06a4.28,4.28,0,0,1-.5-1.12V17.92c-.2,0-.14,0-.2.11a2.28,2.28,0,0,0-.23,1.8,18.39,18.39,0,0,0,2.63,2.57,6.35,6.35,0,0,0,2.13,1.28c1.09.34,2.17.09,3.18.49s1.08,1.09,1.83,1.67c.53.42,1.51,1,2,.27a6.69,6.69,0,0,1,.06-2.54c.38-.44.52.25.59.49S149.14,24.33,149.42,24.28Zm1.52-7.17-2.15.63,1,2.05,1.74-.67A3.33,3.33,0,0,1,150.94,17.11Zm1.53,1.25s-.22-1-.45-1C152,17.71,152,18.33,152.47,18.36Zm-20.63,3.23c.14-.13-.46-.8,0-1,.28-.13,1,.63,1.44.18s-.49-.46-.65-.52-1.73-.9-1.86-.78a8.84,8.84,0,0,0,.51,1.14C131.33,20.69,131.54,21.9,131.84,21.59Zm4.94.63-.9-1.84c-.84.5-1.2-.08-2-.22,0,.37.74.58.8.77l-.33.53c.23.72.73.95,1.37.49l.37.37Zm16.13,0h-2.6l-.09,2.33c.9,0,1.79-.25,2.69-.18A7,7,0,0,1,152.91,22.22ZM138.7,24.34c-.36-.43-.7-.89-1.07-1.31a3.51,3.51,0,0,0-.72-.72c-.25.45.54.59.4,1s-1-.12-1.07,0a1.74,1.74,0,0,0,.44,1.57c.85.77.71-1.2,1.31-.68.18.15.08.34.14.47s.24.08.26.39-.2.74-.07,1.1c.32.35.66,0,1,.14a4,4,0,0,1,.71.64c.06.3-.15.81.36.85-.16-.5,0-1.24-.16-1.68A17.22,17.22,0,0,0,138.7,24.34Zm15.2-.86c.35,0,.36-.46.13-.63Zm-39.63,1.34a4,4,0,0,1-.5,2.16,7.74,7.74,0,0,0,2,.46c.19,0,.38.27.61.12l.53-2.24A8.83,8.83,0,0,0,114.27,24.82Zm-1,.45c-.39,0-.25.47-.26.72C113.2,26,113.31,25.31,113.28,25.27Zm33.9,2.6s-.85-.21-1.07-.32c-.47-.24-.93-.86-1.31-1-.22-.1-.34,0-.52-.08-.34-.17-.13-.29-.16-.48-.08-.71-2.38-.88-2.55-.06-.06.27,1.28,1.93,1.32,2.41.46.05.32.37.45.53s.37.12.49.23c.55.49.47,1.54,1.64,1.81s.93-.55,1.32-.66.32.19.4.24a.68.68,0,0,0,.7-.2c-.57-.53.28-.69.41-.94a.78.78,0,0,0-.36-1c-.34.41-1.16.88-1.44.19l0-.22C146.58,28.19,147.36,28.06,147.18,27.87Zm3.68,1.7.26,0c.28-.18-.4-.82-.52-1s-.06-.56-.46-.48Zm.26.81v2.15c.28,0,.14-.07.18-.22s.06-.72.48-.58-.06,1.67,0,2,1,1.56.67,2l-.48.31.39.68c.28,0,0-.36.26-.55.59-.47.54.61.51,1a18.26,18.26,0,0,1-1.18,2.76s.35.08.24.5S151.07,42,150.81,42s-.3-.29-.52-.23-1,1.23-1.32.39c0-.31,1.21-1.34,1.48-1.66A9.85,9.85,0,0,0,152,38.12a7.57,7.57,0,0,0-1.19-2.27c-.16-.06-.13.07-.16.11-.45.63-.81,1.33-1.3,1.92.18.4.93,2.14.19,2.27-.42.07-.67-1.49-1-1.43-.43.63.24,1.71-.19,2.33a.35.35,0,0,1-.49.14c-.34-.17-.09-1-.19-1.33l-.61-.48c-.06-.23.22-.33.29-.51.19-.46-.85-2.6-1.15-3.1-.13-.21-.64-1-.82-1.07l-1.51.52c-.19,1.26-.86,2.74-.86,4a6,6,0,0,0,1.44,3.59,2.07,2.07,0,0,0,1.83.75c1.31-.11,2.73-.77,4.12-.63a6.67,6.67,0,0,0,.83-.79c.27-.31.85-1.49,1.3-1.22s-.34.89-.36,1.26v.13c.8,0,.07,1,.13,1.09s.39.17.52.26.13.23.24.32a11.46,11.46,0,0,1,1.6,1.27l0,.3c-.38.73-1.69-.9-2-.8l-.38.26c-.24,0-.4-.61-.67.18.51,0,1.19.21,1.32.76-.3.63-1-.12-1.32.09-.13.08-.07.32-.4.32s-.3-.32-.58-.42c-.08,0-.64-.14-.54.1a3.84,3.84,0,0,1,.75.95c.29.58.2,1.55,1,1.51.14,0,.34-.2.55-.24a2,2,0,0,1,1.66.42c.13.13.55.91.84.64a8.88,8.88,0,0,0,.49-2.38,19,19,0,0,0-1-6.06c-.16-.55-.58-1.39-.66-1.86-.12-.7,0-1.72-.11-2.49a15.51,15.51,0,0,0-2-6.19Zm-7.26.36c-.05.05.26.53.32.62.5.73,1.23,1.47,1.78,2.17l.14,0c.8-.22.29-1.2.5-1.84-.12-.18-.47,0-.72,0A3.08,3.08,0,0,1,143.86,30.74Zm6.18.36c-.07-.07-.91.37-.89.58L150,35.4c.69-.35.28-.78.23-1.21,0-.24,0-.48,0-.71A12.72,12.72,0,0,1,150,31.1Zm-2.59,1.52c1.51-.41.29-1.91,0-.38A1.22,1.22,0,0,0,147.45,32.62ZM145,34.06c-.05-.16-.88-1.34-1-1.26-.1.49.05,1,0,1.53Zm3.59-1.17c-.16-.14-1.08.58-1.08.85s.28.72-.08.9-.51-.54-.68-.58a.2.2,0,0,0-.22.22,12.35,12.35,0,0,0,.75,1.22c.26.5.62,2,1.35,1.88a1.67,1.67,0,0,0,.65-.77c0-.09-.14-.22-.15-.36,0-.47,0-.94,0-1.41C149.05,34.2,148.75,33.52,148.61,32.89Zm-7.35.72a.64.64,0,0,0-.36,0,15,15,0,0,0-1.85,2.19c-.13.4.68.68.91,1,.23-.23.09-.57.17-.9S141.47,33.79,141.26,33.61Zm-23,9.8a.5.5,0,0,0-.24,0c-.1,2-.06,3.92-.09,5.88,0,.42-.25,1.62,0,2a7.39,7.39,0,0,0,5.24-.12l0-3a17.94,17.94,0,0,1-4.13-3.7A7.87,7.87,0,0,0,118.28,43.41ZM152,44.1c-.35,0-.67-.28-.95-.34a11.57,11.57,0,0,0-2.58.34c-.29.34,1,.78,1.16.77.45,0,.72-.8,1.69-.57C151.64,44.37,152,44.94,152,44.1Zm-4.4.82s-.74-.47-.88-.37a.79.79,0,0,0,.42.7C147.35,45.3,147.76,45.18,147.61,44.92Zm-1.26,1.53c-.24-.14-.79-.2-.93.07s.26.4.31.6-.09.25,0,.39.53.43.65.57a2.17,2.17,0,0,1,.64,1.66c-.64.36-.59-.5-1.06-.71a4.17,4.17,0,0,0-.18,2.24c-.78.17-.76-.93-.71-1.47s.39-1-.05-1.57c-.12-.14-.25-.17-.36-.27s-.13-.45-.49-.23a4,4,0,0,0-.69,1.42,6.9,6.9,0,0,0,.52,2c.14.24.45.41.51.75s-.21.38-.23.52.08.24,0,.42a4.74,4.74,0,0,1-.38.7c-.14.17-.62-.34-.68-.43-.46-.69-.07-1.78-.31-2.09s-1.2-.38-1.43-.09c-.16.54.26,1,.22,1.58,0,.37-.22.52-.27.81s0,.76,0,1.11a5.27,5.27,0,0,1,1.23.34,14.85,14.85,0,0,0,1.68.3c.79,0,.56-.36.82-.44a4.1,4.1,0,0,1,.61,0c.25-.05.39-.27.68-.13.13.06.2.31.4.31s.29-.15.46-.17a7.15,7.15,0,0,1,1,.06,4.93,4.93,0,0,0,1.93-.56c.55-.28,1-.79,1.61-.67-.2-.43-1.06-.33-.83-.87a.68.68,0,0,1,1.28.37c0,.16-.15.21-.18.27-.12.27.3,0,.4,0a5.11,5.11,0,0,0,1.67-1.92c.13-.23.45-.32.35-.68-.76.21-.51-.13-.77-.45s-.65-.22-.41-.84l-.07-.1-.67-.14c0,.44-.64.67-1,.63-.14,0-.24-.18-.35-.16s-.18.18-.37.17-.24-.44-.52-.57a2.05,2.05,0,0,0-.78-.07c.14.35.69,2-.12,1.78-.39-.11-.47-.81-.61-1.1-.49-1-1.56-1.14-2.05-1.89A4.94,4.94,0,0,1,146.35,46.45Zm3.71,1.93.12,0c.4,0,.11-.65,0-.9a2.24,2.24,0,0,0-.86-1c-.39-.15-1.08.67-1.61.49a.42.42,0,0,0,0,.27C148,47.61,149.84,47.72,150.06,48.38Zm-7.86.38c-.27.12-1.07,1.25-.62,1.35l.8-.36,0-.85Zm-1.57,1.53-.27.06c0,.27-.34.52,0,.74C140.47,50.84,140.68,50.61,140.63,50.29Zm-9.5,2v2.56c0,.68,2.42.79,2.91.76s2.08-.29,2.23-.65a1.47,1.47,0,0,0,0-.88,10.9,10.9,0,0,0-1.94-.66A26.89,26.89,0,0,0,131.13,52.26Zm9.67,1c-.19-.28-.31.14-.52.22-.58.2-1.45,0-2,.53,0,.15.85.16,1,.21s1.12.44,1.41.36,0-.35,0-.57S140.89,53.39,140.8,53.26Z"/><path class="cls-2" d="M129.15,49.3c-.5,0-1.07-.1-1-.72l-.11-.07a9.27,9.27,0,0,1-1.38-.24,10.66,10.66,0,0,1-1.61-.45.25.25,0,0,1,.06-.48,10.17,10.17,0,0,1,1.87.43,33.21,33.21,0,0,0,3.85.37,15.61,15.61,0,0,1,1.88-.09c.46.09.32.51,0,.61-.51.14-2.47-.13-2.72.05l-.14.69,4.36.3c.48.82-1.44.62-1.94.59a27.69,27.69,0,0,1-3-.4Z"/><path class="cls-2" d="M134.16,50.49l0,.42.36.13c.49.54-1.72,1.24-1.35.05A11.68,11.68,0,0,1,131,51c-.17-.09-.24-.34-.1-.44A13.08,13.08,0,0,1,134.16,50.49Z"/><path class="cls-2" d="M143.39,19.82a8.35,8.35,0,0,0,.75,1.8,9.53,9.53,0,0,0,1.2,1.41c.36.15-.18-.54-.2-.61a.67.67,0,0,1,0-.37h.55l1.37,1.7c.13.14.34.07.49.14.38.18,1,1.63.54,1.89-.15.09-.83-.24-1-.35-.35-.29-.73-1.62-1.23-1.94-.08.23,0,.58-.35.61a5.41,5.41,0,0,1-2.65-4.28Z"/><path class="cls-2" d="M148.24,54.4l-.39-.08a.75.75,0,0,1,1-1C149.22,53.67,148.26,54,148.24,54.4Z"/><path class="cls-3" d="M77.89,82.28a1.37,1.37,0,0,1,.31,0,.61.61,0,0,1,.22.13.6.6,0,0,1,.14.2.7.7,0,0,1,0,.27.58.58,0,0,1,0,.26.53.53,0,0,1-.13.2.78.78,0,0,1-.22.12,1,1,0,0,1-.31,0h-.57v.81h-.38V82.28Zm-.09,1a.49.49,0,0,0,.32-.08.27.27,0,0,0,.11-.23.28.28,0,0,0-.11-.24.5.5,0,0,0-.33-.08h-.47v.63Z"/><path class="cls-3" d="M79.45,82.81V83l.1-.11a.41.41,0,0,1,.24-.12l.18,0v.35a.6.6,0,0,0-.25,0,.37.37,0,0,0-.16.1.44.44,0,0,0-.07.17.82.82,0,0,0,0,.23v.68h-.36V82.81Z"/><path class="cls-3" d="M81.78,83.88a.85.85,0,0,1-.09.22.7.7,0,0,1-.14.16,1,1,0,0,1-.21.1,1,1,0,0,1-.25,0,.9.9,0,0,1-.34-.06.81.81,0,0,1-.24-.17.72.72,0,0,1-.14-.26,1.08,1.08,0,0,1,0-.32,1.14,1.14,0,0,1,0-.33.72.72,0,0,1,.16-.25.51.51,0,0,1,.24-.16.75.75,0,0,1,.31-.06.93.93,0,0,1,.24,0,.77.77,0,0,1,.18.1.64.64,0,0,1,.14.15,1.14,1.14,0,0,1,.1.19,1.42,1.42,0,0,1,0,.22,1.77,1.77,0,0,1,0,.23H80.69a.33.33,0,0,0,0,.15.37.37,0,0,0,.2.2.48.48,0,0,0,.18,0,.33.33,0,0,0,.21,0,.23.23,0,0,0,.12-.15Zm-.71-.79-.14,0a.41.41,0,0,0-.11.07.44.44,0,0,0-.08.11.34.34,0,0,0,0,.14h.74a.28.28,0,0,0,0-.13.28.28,0,0,0-.08-.11.26.26,0,0,0-.11-.07A.32.32,0,0,0,81.07,83.09Z"/><path class="cls-3" d="M82.58,84a.3.3,0,0,0,.08.08.18.18,0,0,0,.1,0l.12,0H83a.17.17,0,0,0,.1,0,.13.13,0,0,0,.07,0,.11.11,0,0,0,0-.08.19.19,0,0,0,0-.08.18.18,0,0,0-.07,0l-.11,0-.13,0-.14,0-.14,0-.13-.07-.11-.08a.41.41,0,0,1-.07-.11.59.59,0,0,1,0-.14.68.68,0,0,1,0-.15.83.83,0,0,1,.08-.12.53.53,0,0,1,.11-.09l.13-.06.15,0h.15a1,1,0,0,1,.25,0,.85.85,0,0,1,.19.1.37.37,0,0,1,.13.15.54.54,0,0,1,0,.22h-.36a.19.19,0,0,0,0-.08s0,0,0-.06a.18.18,0,0,0-.07,0l-.1,0h-.11a.17.17,0,0,0-.1,0s0,0-.06,0a.1.1,0,0,0,0,.07.14.14,0,0,0,0,.07l.08,0,.11,0,.13,0a1.34,1.34,0,0,1,.26.08.67.67,0,0,1,.19.09.41.41,0,0,1,.15.33.47.47,0,0,1,0,.17.35.35,0,0,1-.19.22.59.59,0,0,1-.14.06l-.16,0h-.34l-.16,0a.47.47,0,0,1-.14-.08.36.36,0,0,1-.11-.1.44.44,0,0,1-.08-.15.47.47,0,0,1,0-.17h.36A.21.21,0,0,0,82.58,84Z"/><path class="cls-3" d="M85.43,83.88a.85.85,0,0,1-.09.22.63.63,0,0,1-.35.26,1,1,0,0,1-.25,0,.9.9,0,0,1-.34-.06.61.61,0,0,1-.24-.17A.72.72,0,0,1,84,83.9a.83.83,0,0,1,0-.32.72.72,0,0,1,0-.33.87.87,0,0,1,.15-.25.63.63,0,0,1,.24-.16.81.81,0,0,1,.31-.06.88.88,0,0,1,.24,0,.85.85,0,0,1,.19.1,1,1,0,0,1,.14.15.66.66,0,0,1,.09.19.79.79,0,0,1,0,.22,1.77,1.77,0,0,1,0,.23H84.34a.33.33,0,0,0,0,.15.25.25,0,0,0,.08.12.36.36,0,0,0,.12.08.48.48,0,0,0,.18,0A.36.36,0,0,0,85,84a.23.23,0,0,0,.12-.15Zm-.71-.79-.14,0a.41.41,0,0,0-.11.07.48.48,0,0,0-.09.11.57.57,0,0,0,0,.14h.73a.19.19,0,0,0,0-.13.44.44,0,0,0-.08-.11.26.26,0,0,0-.11-.07A.32.32,0,0,0,84.72,83.09Z"/><path class="cls-3" d="M86.28,82.81V83a.34.34,0,0,1,.08-.09.39.39,0,0,1,.1-.08l.12,0,.15,0a.68.68,0,0,1,.27,0,.43.43,0,0,1,.17.12.51.51,0,0,1,.09.18.85.85,0,0,1,0,.23v1h-.35v-1a.24.24,0,0,0-.07-.17.25.25,0,0,0-.19-.07.4.4,0,0,0-.17,0,.38.38,0,0,0-.13.09.54.54,0,0,0-.07.13.77.77,0,0,0,0,.15v.86h-.36V82.81Z"/><path class="cls-3" d="M87.93,83.12h-.24v-.31h.24v-.39h.35v.39h.28v.31h-.28v.77a.15.15,0,0,0,0,.07.07.07,0,0,0,0,.05.05.05,0,0,0,0,0h.22v.31H88.3l-.16,0a.41.41,0,0,1-.11-.07.24.24,0,0,1-.08-.13.92.92,0,0,1,0-.19Z"/><path class="cls-3" d="M90.42,83.88a.58.58,0,0,1-.08.22.75.75,0,0,1-.15.16l-.2.1a1,1,0,0,1-.25,0,.86.86,0,0,1-.34-.06.61.61,0,0,1-.24-.17A.72.72,0,0,1,89,83.9a1.07,1.07,0,0,1,0-.32.88.88,0,0,1,.06-.33.7.7,0,0,1,.15-.25.63.63,0,0,1,.24-.16.81.81,0,0,1,.31-.06.88.88,0,0,1,.24,0,.85.85,0,0,1,.19.1l.14.15a.66.66,0,0,1,.09.19.79.79,0,0,1,0,.22,1.77,1.77,0,0,1,0,.23H89.34a.33.33,0,0,0,0,.15.25.25,0,0,0,.08.12.36.36,0,0,0,.12.08.48.48,0,0,0,.18,0A.36.36,0,0,0,90,84a.31.31,0,0,0,.12-.15Zm-.7-.79-.14,0-.12.07a.44.44,0,0,0-.08.11.57.57,0,0,0,0,.14h.73a.27.27,0,0,0,0-.13.44.44,0,0,0-.08-.11.26.26,0,0,0-.11-.07A.35.35,0,0,0,89.72,83.09Z"/><path class="cls-3" d="M92.39,82.24v2.11H92v-.16a.31.31,0,0,1-.11.09.41.41,0,0,1-.11.07l-.11,0h-.12a.81.81,0,0,1-.33-.06.79.79,0,0,1-.22-.18.72.72,0,0,1-.14-.26,1.08,1.08,0,0,1,0-.32.65.65,0,0,1,0-.2.76.76,0,0,1,.06-.2A.86.86,0,0,1,91,83a.57.57,0,0,1,.14-.13.66.66,0,0,1,.19-.09.78.78,0,0,1,.22,0h.13l.12,0a.3.3,0,0,1,.11.06A.38.38,0,0,1,92,83v-.72Zm-1.16,1.32a1.23,1.23,0,0,0,0,.19.44.44,0,0,0,.07.17.34.34,0,0,0,.12.12.36.36,0,0,0,.19,0,.46.46,0,0,0,.2,0,.45.45,0,0,0,.13-.11.44.44,0,0,0,.07-.17,1.11,1.11,0,0,0,0-.19.49.49,0,0,0,0-.12.27.27,0,0,0,0-.12.31.31,0,0,0-.05-.1.24.24,0,0,0-.08-.09.33.33,0,0,0-.1-.06l-.13,0a.36.36,0,0,0-.19,0,.3.3,0,0,0-.13.12.46.46,0,0,0-.07.16A.57.57,0,0,0,91.23,83.56Z"/><path class="cls-3" d="M94.31,82.24V83a.28.28,0,0,1,.1-.09.24.24,0,0,1,.11-.06l.12,0h.12a.85.85,0,0,1,.23,0,.51.51,0,0,1,.18.09.61.61,0,0,1,.15.13.86.86,0,0,1,.1.16l.06.2a1.23,1.23,0,0,1,0,.2,1.07,1.07,0,0,1,0,.32.71.71,0,0,1-.13.26.84.84,0,0,1-.23.18.79.79,0,0,1-.32.06h-.12l-.12,0-.11-.07a.28.28,0,0,1-.1-.09v.16H94V82.24Zm.81,1.32a1.1,1.1,0,0,0,0-.18.77.77,0,0,0-.07-.16.49.49,0,0,0-.13-.12.38.38,0,0,0-.19,0l-.13,0a.39.39,0,0,0-.11.06.24.24,0,0,0-.08.09.31.31,0,0,0,0,.1l0,.12s0,.08,0,.12a1.11,1.11,0,0,0,0,.19.45.45,0,0,0,.08.17.35.35,0,0,0,.13.11.39.39,0,0,0,.2,0,.38.38,0,0,0,.19,0,.34.34,0,0,0,.12-.12.43.43,0,0,0,.06-.17A.62.62,0,0,0,95.12,83.56Z"/><path class="cls-3" d="M96.74,84.54a2,2,0,0,1-.09.2.47.47,0,0,1-.11.13.32.32,0,0,1-.12.08.41.41,0,0,1-.16,0h-.1a.27.27,0,0,1-.12,0V84.6l.11,0h.08a.17.17,0,0,0,.16-.1l.08-.2-.6-1.53h.39l.39,1.1.38-1.1h.37Z"/><path class="cls-1" d="M49.32,84.27V82.61l3.18-6a2.08,2.08,0,0,0,.27-.78,6.54,6.54,0,0,0,0-.84c0-.15,0-.3,0-.47a1.43,1.43,0,0,0-.09-.44.9.9,0,0,0-.26-.32.8.8,0,0,0-.5-.13.89.89,0,0,0-.63.22.86.86,0,0,0-.24.66v1H49.32v-1a2.56,2.56,0,0,1,.21-1,2.88,2.88,0,0,1,.57-.85,2.56,2.56,0,0,1,.83-.57,2.41,2.41,0,0,1,1-.22,2.37,2.37,0,0,1,2,.93,3.2,3.2,0,0,1,.45,1A4.36,4.36,0,0,1,54.57,75c0,.3,0,.55,0,.75a3.68,3.68,0,0,1-.07.58,2.47,2.47,0,0,1-.17.55c-.08.18-.19.41-.33.67l-2.59,5h3.18v1.76Z"/><path class="cls-1" d="M55.74,74.52a2.57,2.57,0,0,1,.22-1.1,2.35,2.35,0,0,1,.58-.83,2.5,2.5,0,0,1,.83-.53,2.84,2.84,0,0,1,2,0,2.56,2.56,0,0,1,1.41,1.36,2.73,2.73,0,0,1,.22,1.1v7.21a2.73,2.73,0,0,1-.22,1.1,2.56,2.56,0,0,1-1.41,1.36,2.84,2.84,0,0,1-2,0,2.5,2.5,0,0,1-.83-.53,2.35,2.35,0,0,1-.58-.83,2.57,2.57,0,0,1-.22-1.1Zm1.76,7.21a.88.88,0,0,0,.24.63.81.81,0,0,0,.62.25.8.8,0,0,0,.62-.25.85.85,0,0,0,.25-.63V74.52a.85.85,0,0,0-.25-.63.8.8,0,0,0-.62-.25.81.81,0,0,0-.62.25.88.88,0,0,0-.24.63Z"/><path class="cls-1" d="M62.16,84.27V82.61l3.17-6a2.12,2.12,0,0,0,.28-.78q0-.33,0-.84c0-.15,0-.3,0-.47a1,1,0,0,0-.09-.44.8.8,0,0,0-.26-.32.79.79,0,0,0-.5-.13.93.93,0,0,0-.63.22.9.9,0,0,0-.23.66v1H62.16v-1a2.56,2.56,0,0,1,.21-1,2.67,2.67,0,0,1,.56-.85,2.56,2.56,0,0,1,.83-.57,2.43,2.43,0,0,1,1-.22,2.54,2.54,0,0,1,1.18.25,2.47,2.47,0,0,1,.82.68,3,3,0,0,1,.46,1A4.81,4.81,0,0,1,67.4,75c0,.3,0,.55,0,.75s0,.39-.07.58a3.2,3.2,0,0,1-.18.55c-.08.18-.19.41-.32.67l-2.59,5H67.4v1.76Z"/><path class="cls-1" d="M73.82,72v1.66H70.33V77a2.2,2.2,0,0,1,1.47-.57,2,2,0,0,1,1.46.55,2.17,2.17,0,0,1,.56,1.63v3.17a2.57,2.57,0,0,1-.22,1.1,2.46,2.46,0,0,1-.57.83,2.55,2.55,0,0,1-.84.53,2.8,2.8,0,0,1-1,.18,2.72,2.72,0,0,1-1-.18,2.45,2.45,0,0,1-.84-.53,2.48,2.48,0,0,1-.58-.83,2.73,2.73,0,0,1-.21-1.1v-.52h1.75v.45a1,1,0,0,0,.25.7.88.88,0,0,0,.65.25.76.76,0,0,0,.61-.24,1,1,0,0,0,.22-.67V78.82a.94.94,0,0,0-.23-.63.79.79,0,0,0-.6-.25.89.89,0,0,0-.38.07,1.32,1.32,0,0,0-.26.18.65.65,0,0,0-.15.23c-.06.1-.09.17-.11.19H68.78V72Z"/><path class="cls-4" d="M114.31,85a.81.81,0,0,0,.33-.7,1,1,0,0,0-.27-.69,1.4,1.4,0,0,0-1-.35h-1.56a.15.15,0,0,0-.15.15v3.48a.15.15,0,0,0,.15.15h1.61c.89,0,1.44-.42,1.44-1.11A1,1,0,0,0,114.31,85Zm-.38.91c0,.27-.29.33-.52.33h-.89v-.65h.84C113.74,85.57,113.93,85.67,113.93,85.89Zm-.2-1.5c0,.2-.17.31-.5.31h-.71v-.65h.75c.29,0,.46.13.46.33Z"/><path class="cls-4" d="M118.83,86.81l-1.53-3.5a.14.14,0,0,0-.14-.09h-.56a.14.14,0,0,0-.14.09l-1.53,3.5a.14.14,0,0,0,0,.14.17.17,0,0,0,.13.07h.62a.16.16,0,0,0,.14-.09l.32-.75h1.45l.31.75a.16.16,0,0,0,.14.09h.64a.17.17,0,0,0,.13-.07A.14.14,0,0,0,118.83,86.81Zm-1.59-1.47h-.74l.37-.86Z"/><path class="cls-4" d="M122.35,83.24h-.6a.15.15,0,0,0-.15.15v2L120,83.3a.14.14,0,0,0-.12-.06h-.56a.15.15,0,0,0-.15.15v3.48a.15.15,0,0,0,.15.15h.6a.15.15,0,0,0,.15-.15v-2L121.72,87a.13.13,0,0,0,.12.06h.51a.15.15,0,0,0,.15-.15V83.39A.15.15,0,0,0,122.35,83.24Z"/><path class="cls-4" d="M126.45,84.78H125a.15.15,0,0,0-.15.15v.53a.15.15,0,0,0,.15.15h.7V86a1.32,1.32,0,0,1-.69.19,1.09,1.09,0,0,1,0-2.17,1.23,1.23,0,0,1,.87.33.15.15,0,0,0,.22,0l.38-.46a.14.14,0,0,0,0-.21,2.05,2.05,0,0,0-1.44-.51,1.93,1.93,0,0,0-1.94,1.95h0a1.88,1.88,0,0,0,2,1.94,2.39,2.39,0,0,0,1.55-.58.16.16,0,0,0,0-.11V84.93A.14.14,0,0,0,126.45,84.78Z"/><path class="cls-4" d="M130.6,86.78l-1.42-1.88,1.35-1.4a.17.17,0,0,0,0-.17.17.17,0,0,0-.14-.09h-.76a.16.16,0,0,0-.11.05l-1.38,1.47V83.39a.15.15,0,0,0-.15-.15h-.61a.15.15,0,0,0-.15.15v3.48a.15.15,0,0,0,.15.15H128a.15.15,0,0,0,.15-.15v-1l.38-.38L129.62,87a.14.14,0,0,0,.12.06h.74a.16.16,0,0,0,.14-.08A.15.15,0,0,0,130.6,86.78Z"/><path class="cls-4" d="M132.53,83.18a2,2,0,0,0-2,1.95h0a1.91,1.91,0,0,0,2,1.94,2,2,0,0,0,2-2A1.91,1.91,0,0,0,132.53,83.18Zm1,1.95h0a1,1,0,1,1-1-1.09A1,1,0,0,1,133.55,85.14Z"/><path class="cls-4" d="M138.25,86.78l-1.42-1.88,1.35-1.4a.17.17,0,0,0,0-.17.17.17,0,0,0-.14-.09h-.76a.16.16,0,0,0-.11.05l-1.37,1.47V83.39a.15.15,0,0,0-.15-.15h-.62a.15.15,0,0,0-.15.15v3.48a.15.15,0,0,0,.15.15h.62a.15.15,0,0,0,.15-.15v-1l.37-.38L137.27,87a.14.14,0,0,0,.12.06h.74a.16.16,0,0,0,.14-.08A.15.15,0,0,0,138.25,86.78Z"/><path class="cls-4" d="M114.68,87.58h-.61a.16.16,0,0,0-.15.16V89h-1.37v-1.3a.15.15,0,0,0-.15-.16h-.61a.16.16,0,0,0-.15.16v3.47a.15.15,0,0,0,.15.15h.61a.15.15,0,0,0,.15-.15v-1.3h1.37v1.3a.15.15,0,0,0,.15.15h.61a.15.15,0,0,0,.15-.15V87.74A.16.16,0,0,0,114.68,87.58Z"/><path class="cls-4" d="M117.3,87.53a1.94,1.94,0,0,0-2,1.94h0a1.9,1.9,0,0,0,2,1.94,1.94,1.94,0,0,0,2-2A1.91,1.91,0,0,0,117.3,87.53Zm1,1.94h0a1,1,0,0,1-1,1.07,1.08,1.08,0,1,1,1-1.08Z"/><path class="cls-4" d="M121.41,89.05c-.72-.17-.72-.27-.72-.41s.17-.26.43-.26a1.49,1.49,0,0,1,.89.3.27.27,0,0,0,.12,0,.21.21,0,0,0,.1-.06l.3-.44a.16.16,0,0,0,0-.21,2.1,2.1,0,0,0-1.37-.46,1.23,1.23,0,0,0-1.37,1.16c0,.81.64,1,1.3,1.19s.7.28.7.39-.21.29-.5.29a1.51,1.51,0,0,1-1-.42.17.17,0,0,0-.12,0,.14.14,0,0,0-.1,0l-.35.44a.16.16,0,0,0,0,.21,2.32,2.32,0,0,0,1.57.59c.87,0,1.46-.48,1.46-1.2S122.05,89.2,121.41,89.05Z"/><path class="cls-4" d="M124.84,87.58H123.4a.16.16,0,0,0-.15.16v3.47a.15.15,0,0,0,.15.15H124a.15.15,0,0,0,.15-.15v-1h.61a1.37,1.37,0,0,0,1.55-1.34A1.33,1.33,0,0,0,124.84,87.58Zm.55,1.34c0,.29-.23.47-.6.47h-.63v-1h.63C125.07,88.44,125.39,88.52,125.39,88.92Z"/><rect class="cls-4" x="126.87" y="87.58" width="0.91" height="3.78" rx="0.15"/><path class="cls-4" d="M131.4,87.58h-2.85a.16.16,0,0,0-.16.16v.56a.16.16,0,0,0,.16.15h.92v2.76a.15.15,0,0,0,.15.15h.61a.16.16,0,0,0,.16-.15V88.45h1a.15.15,0,0,0,.15-.15v-.56A.15.15,0,0,0,131.4,87.58Z"/><path class="cls-4" d="M135.13,91.15l-1.53-3.5a.14.14,0,0,0-.13-.09h-.57a.17.17,0,0,0-.14.09l-1.53,3.5a.14.14,0,0,0,0,.14.12.12,0,0,0,.12.07H132a.15.15,0,0,0,.14-.09l.31-.75h1.45l.31.75a.15.15,0,0,0,.14.09H135a.13.13,0,0,0,.12-.07A.14.14,0,0,0,135.13,91.15Zm-1.58-1.47h-.74l.36-.86Z"/><path class="cls-4" d="M138.13,90.49h-1.64V87.74a.16.16,0,0,0-.15-.16h-.61a.15.15,0,0,0-.15.16v3.47a.15.15,0,0,0,.15.15h2.4a.15.15,0,0,0,.15-.15v-.57A.15.15,0,0,0,138.13,90.49Z"/><path class="cls-4" d="M107.89,87.3H107v.87a.29.29,0,0,1-.29.29H105a.29.29,0,0,0-.29.29v1.74a.29.29,0,0,1-.29.29h-1.74a.29.29,0,0,1-.29-.29V88.75a.29.29,0,0,0-.29-.29h-2v3.48h6.87a2.42,2.42,0,0,0,1-4.63Z"/><path class="cls-5" d="M106.94,82.67h-6.87v3.47h2a.29.29,0,0,0,.29-.29V84.12a.29.29,0,0,1,.29-.29h1.74a.29.29,0,0,1,.29.29v1.73a.29.29,0,0,0,.29.29h1.73a.29.29,0,0,1,.29.29v.87h.88a2.42,2.42,0,0,0-1-4.63Z"/><path class="cls-6" d="M102.09,86.14a.29.29,0,0,0,.29-.29V84.12a.31.31,0,0,1,.09-.21h0l-2.4,2.23Z"/><path class="cls-7" d="M106.72,86.14H105a.29.29,0,0,1-.29-.29V84.12a.29.29,0,0,0-.29-.29h-1.74a.29.29,0,0,0-.29.29v1.73a.29.29,0,0,1-.29.29h-2v2.32h2a.29.29,0,0,1,.29.29v1.74a.29.29,0,0,0,.29.29h1.74a.29.29,0,0,0,.29-.29V88.75a.29.29,0,0,1,.29-.29h1.73a.29.29,0,0,0,.29-.29V86.43A.29.29,0,0,0,106.72,86.14Z"/><path class="cls-8" d="M111.62,94.33V93.25H112v1.07c0,.31.16.47.41.47s.41-.16.41-.46V93.25h.41v1.07a.76.76,0,0,1-.83.85A.75.75,0,0,1,111.62,94.33Z"/><path class="cls-8" d="M113.69,93.25h.74a.94.94,0,0,1,1,.94h0a.94.94,0,0,1-1,1h-.74Zm.41.37v1.14h.33a.54.54,0,0,0,.57-.56h0a.55.55,0,0,0-.57-.57Z"/><path class="cls-8" d="M115.72,94.2h0a1,1,0,0,1,2,0h0a1,1,0,0,1-1,1A1,1,0,0,1,115.72,94.2Zm1.57,0h0a.57.57,0,0,0-.57-.59.56.56,0,0,0-.57.59h0a.58.58,0,0,0,.57.6A.57.57,0,0,0,117.29,94.2Z"/><path class="cls-8" d="M118.1,93.25h.38l.89,1.16V93.25h.41v1.89h-.36l-.91-1.2v1.2h-.41Z"/></svg>