<svg id="Layer_1" data-name="Layer 1" xmlns="http://www.w3.org/2000/svg" viewBox="0 0 15.18 15.18"><defs><style>.cls-1{fill:#ed3024;}.cls-2{fill:#fff;}</style></defs><rect class="cls-1" width="15.18" height="15.18"/><g id="Group-2"><ellipse id="Oval" class="cls-2" cx="6.68" cy="3.66" rx="1.28" ry="1.24"/><path id="Path" class="cls-2" d="M9,6l2.38,2.66L9.84,9.93,7.06,6.82a5.14,5.14,0,0,1-.88.08,4.7,4.7,0,0,1-2.39-.65,4.26,4.26,0,0,1,.43-1.32,3.31,3.31,0,0,0,2,.64A3.22,3.22,0,0,0,9.41,2.72a4.56,4.56,0,0,1,1.29.58A4.49,4.49,0,0,1,9,6Z"/><path id="Shape" class="cls-2" d="M5.55,10a5.27,5.27,0,0,1-.89-1.16,3.29,3.29,0,0,0,2-1.07,3.14,3.14,0,0,0,.9,1A4.58,4.58,0,0,1,5.55,10Z"/></g><path id="RUNLAH" class="cls-2" d="M3.8,11.42h.52a.48.48,0,0,1,.33.1.34.34,0,0,1,.12.29.46.46,0,0,1,0,.21.35.35,0,0,1-.14.13l.13.26a.08.08,0,0,1,0,.09H4.42a.06.06,0,0,1-.06,0l-.13-.26H4.16v.23a.06.06,0,0,1-.06.06H3.86a.06.06,0,0,1-.06-.06Zm.45.51c.09,0,.14,0,.14-.12s0-.12-.14-.12H4.16v.24Zm1.34.6a.54.54,0,0,1-.29-.07.39.39,0,0,1-.18-.18A.6.6,0,0,1,5.06,12v-.53s0-.06.07-.06h.24s.07,0,.07.06V12a.26.26,0,0,0,0,.14.17.17,0,0,0,.12,0,.14.14,0,0,0,.12,0,.2.2,0,0,0,0-.14v-.52s0-.06.07-.06h.24a.05.05,0,0,1,.06.06V12a.59.59,0,0,1,0,.27.39.39,0,0,1-.18.18A.56.56,0,0,1,5.59,12.53Zm.93-1.11h.26l.33.5v-.44a.06.06,0,0,1,.06-.06H7.4s.07,0,.07.06v1s0,.06-.07.06H7.14L6.81,12v.44s0,.06-.07.06H6.52s-.07,0-.07-.06v-1S6.48,11.42,6.52,11.42Zm1.35,0h.24a.06.06,0,0,1,.06.06v.71h.35s.06,0,.06.07v.18a.05.05,0,0,1-.06.06H7.8v-1S7.83,11.42,7.87,11.42Zm1.37,0h.35l.41,1s0,.08,0,.09H9.7a.05.05,0,0,1-.06,0l-.06-.15H9.25l-.05.15a.05.05,0,0,1-.06,0H8.9s-.07,0-.07-.06a0,0,0,0,1,0,0ZM9.5,12l-.08-.25L9.34,12Zm.9-.62h.25a.06.06,0,0,1,.06.06v.3H11v-.3s0-.06.07-.06h.24s.07,0,.07.06v1s0,.06-.07.06h-.24s-.07,0-.07-.06v-.32h-.3v.32a.06.06,0,0,1-.06.06H10.4a.06.06,0,0,1-.06-.06v-1A.06.06,0,0,1,10.4,11.42Z"/></svg>