<svg id="Layer_1" data-name="Layer 1" xmlns="http://www.w3.org/2000/svg" xmlns:xlink="http://www.w3.org/1999/xlink" viewBox="0 0 23.47 23.5"><defs><style>.cls-1{fill:none;}.cls-2{clip-path:url(#clip-path);}.cls-3{fill:url(#linear-gradient);}.cls-4{fill:#fff;}.cls-5{clip-path:url(#clip-path-2);}.cls-6{fill:url(#linear-gradient-2);}.cls-7{clip-path:url(#clip-path-3);}.cls-8{clip-path:url(#clip-path-4);}.cls-9{fill:url(#linear-gradient-4);}.cls-10{clip-path:url(#clip-path-5);}.cls-11{fill:url(#linear-gradient-5);}.cls-12{clip-path:url(#clip-path-6);}.cls-13{fill:url(#linear-gradient-6);}.cls-14{clip-path:url(#clip-path-7);}.cls-15{fill:url(#linear-gradient-7);}.cls-16{clip-path:url(#clip-path-8);}.cls-17{fill:url(#linear-gradient-8);}.cls-18{clip-path:url(#clip-path-9);}.cls-19{fill:url(#linear-gradient-9);}.cls-20{clip-path:url(#clip-path-10);}.cls-21{fill:url(#linear-gradient-10);}.cls-22{clip-path:url(#clip-path-11);}.cls-23{fill:url(#linear-gradient-11);}.cls-24{clip-path:url(#clip-path-12);}.cls-25{fill:url(#linear-gradient-12);}.cls-26{clip-path:url(#clip-path-13);}.cls-27{fill:url(#linear-gradient-13);}</style><clipPath id="clip-path"><path id="SVGID" class="cls-1" d="M1.84,2.52C.76,4.06,0,7.62,0,11.76s.73,7.56,1.78,9.14c.72,1.47,4.9,2.6,9.94,2.6s9.09-1.09,9.91-2.52c1.08-1.54,1.84-5.1,1.84-9.24s-.73-7.56-1.78-9.15C21,1.13,16.79,0,11.74,0S2.66,1.09,1.84,2.52Z"/></clipPath><linearGradient id="linear-gradient" x1="-203.95" y1="-311.83" x2="-203.4" y2="-311.83" gradientTransform="translate(-9452.33 6196.72) rotate(90) scale(30.35)" gradientUnits="userSpaceOnUse"><stop offset="0" stop-color="#d90e7f"/><stop offset="0.43" stop-color="#da0f7d"/><stop offset="0.59" stop-color="#d81376"/><stop offset="0.7" stop-color="#d6196b"/><stop offset="0.8" stop-color="#cc1e5b"/><stop offset="0.88" stop-color="#c71f46"/><stop offset="0.95" stop-color="#be2329"/><stop offset="1" stop-color="#b52126"/></linearGradient><clipPath id="clip-path-2"><polygon id="SVGID-2" data-name="SVGID" class="cls-1" points="8.1 14.32 8.1 14.7 8.44 15.04 8.78 14.71 8.78 14.32 8.44 13.98 8.1 14.32"/></clipPath><linearGradient id="linear-gradient-2" x1="-266.28" y1="-194.06" x2="-265.73" y2="-194.06" gradientTransform="translate(-814.38 1143.06) rotate(90) scale(4.24)" gradientUnits="userSpaceOnUse"><stop offset="0" stop-color="#2085c5"/><stop offset="0.35" stop-color="#1f83c2"/><stop offset="0.52" stop-color="#1680bc"/><stop offset="0.66" stop-color="#0d78b1"/><stop offset="0.78" stop-color="#1165a0"/><stop offset="0.89" stop-color="#1b4d89"/><stop offset="0.98" stop-color="#2b3175"/><stop offset="1" stop-color="#2f2d6f"/></linearGradient><clipPath id="clip-path-3"><polygon id="SVGID-3" data-name="SVGID" class="cls-1" points="8.1 15.55 8.1 15.93 8.44 16.27 8.78 15.93 8.78 15.55 8.44 15.21 8.1 15.55"/></clipPath><clipPath id="clip-path-4"><polygon id="SVGID-4" data-name="SVGID" class="cls-1" points="9.03 14.33 9.03 16.17 9.2 16.34 9.53 16.34 9.7 16.16 9.71 16.17 9.71 14.66 9.96 14.49 10.21 14.66 10.21 16.16 10.38 16.34 10.71 16.34 10.89 16.16 10.89 14.33 9.96 13.97 9.03 14.33"/></clipPath><linearGradient id="linear-gradient-4" x1="-266.28" y1="-193.77" x2="-265.73" y2="-193.77" gradientTransform="translate(-811.63 1143.06) rotate(90) scale(4.24)" xlink:href="#linear-gradient-2"/><clipPath id="clip-path-5"><polygon id="SVGID-5" data-name="SVGID" class="cls-1" points="5.09 14 5.09 15.6 4.84 15.78 4.59 15.6 4.59 14.32 4.26 13.98 3.74 14.5 3.92 14.67 4.09 14.49 4.16 14.56 3.92 14.8 3.92 15.98 4.29 16.34 5.39 16.34 5.76 15.98 5.76 14 5.43 13.66 5.09 14"/></clipPath><linearGradient id="linear-gradient-5" x1="-266.28" y1="-194.77" x2="-265.73" y2="-194.77" gradientTransform="translate(-821.09 1143.06) rotate(90) scale(4.24)" xlink:href="#linear-gradient-2"/><clipPath id="clip-path-6"><polygon id="SVGID-6" data-name="SVGID" class="cls-1" points="6.01 14.32 6.01 15.33 6.01 15.34 6.38 15.71 7.17 15.71 7.17 15.73 7.38 15.94 7.31 16.01 7.17 15.87 6.99 16.04 7.3 16.34 7.67 16.34 7.85 16.16 7.85 16.17 7.85 15.03 6.68 15.03 6.68 14.61 7.51 14.93 7.85 14.71 7.85 14.32 6.93 13.98 6.01 14.32"/></clipPath><linearGradient id="linear-gradient-6" x1="-266.28" y1="-194.35" x2="-265.73" y2="-194.35" gradientTransform="translate(-817.12 1143.06) rotate(90) scale(4.24)" xlink:href="#linear-gradient-2"/><clipPath id="clip-path-7"><polygon id="SVGID-7" data-name="SVGID" class="cls-1" points="12.36 14.32 12.36 15.27 11.86 15.58 11.86 14.34 11.52 13.97 11 14.5 11.18 14.67 11.32 14.52 11.39 14.59 11.18 14.8 11.18 16.21 11.31 16.34 11.84 16.34 12.36 16 12.36 16.17 12.54 16.34 12.86 16.34 13.04 16.17 13.04 15.98 13.13 15.98 13.33 15.62 13.13 15.26 13.04 15.26 13.04 14.32 12.71 13.97 12.36 14.32"/></clipPath><linearGradient id="linear-gradient-7" x1="-266.28" y1="-193.34" x2="-265.73" y2="-193.34" gradientTransform="translate(-807.61 1143.06) rotate(90) scale(4.24)" xlink:href="#linear-gradient-2"/><clipPath id="clip-path-8"><polygon id="SVGID-8" data-name="SVGID" class="cls-1" points="9.74 13.17 9.74 13.57 9.95 13.78 11.13 13.78 11.44 13.54 11.12 13.29 10.48 13.29 10.26 13.51 10.19 13.44 10.34 13.29 10.34 13.29 10.34 13.16 10.04 12.95 9.74 13.17"/></clipPath><linearGradient id="linear-gradient-8" x1="-265.62" y1="-194.72" x2="-265.07" y2="-194.72" gradientTransform="translate(-822.8 1150.85) rotate(90) scale(4.28)" xlink:href="#linear-gradient-2"/><clipPath id="clip-path-9"><polygon id="SVGID-9" data-name="SVGID" class="cls-1" points="14.7 13.1 14.7 13.23 14.44 13.14 13.51 13.45 13.51 13.78 15.39 13.78 15.39 13.1 15.05 12.75 14.7 13.1"/></clipPath><linearGradient id="linear-gradient-9" x1="-272.7" y1="-179.78" x2="-272.14" y2="-179.78" gradientTransform="translate(-686.69 1077.65) rotate(90) scale(3.9)" gradientUnits="userSpaceOnUse"><stop offset="0" stop-color="#6bb26f"/><stop offset="0.33" stop-color="#6ab06e"/><stop offset="0.5" stop-color="#67a869"/><stop offset="0.64" stop-color="#5d9f62"/><stop offset="0.76" stop-color="#4b8f57"/><stop offset="0.86" stop-color="#338048"/><stop offset="0.96" stop-color="#136d39"/><stop offset="1" stop-color="#076033"/></linearGradient><clipPath id="clip-path-10"><polygon id="SVGID-10" data-name="SVGID" class="cls-1" points="15.65 13.45 15.65 13.78 17.52 13.78 17.52 13.46 16.59 13.15 15.65 13.45"/></clipPath><linearGradient id="linear-gradient-10" x1="-272.7" y1="-179.33" x2="-272.14" y2="-179.33" gradientTransform="translate(-682.81 1077.65) rotate(90) scale(3.9)" xlink:href="#linear-gradient-9"/><clipPath id="clip-path-11"><polygon id="SVGID-11" data-name="SVGID" class="cls-1" points="14.72 14.32 14.72 14.57 14.39 14.9 14.72 15.24 14.72 15.59 14.45 15.77 14.18 15.59 14.18 14.32 13.85 13.97 13.33 14.5 13.5 14.67 13.65 14.52 13.72 14.59 13.51 14.8 13.51 15.98 13.87 16.34 15.03 16.34 15.03 16.34 15.4 15.98 15.4 15.14 15.15 14.9 15.4 14.66 15.4 14.32 15.06 13.97 14.72 14.32"/></clipPath><linearGradient id="linear-gradient-11" x1="-272.7" y1="-179.8" x2="-272.14" y2="-179.8" gradientTransform="translate(-686.85 1077.65) rotate(90) scale(3.9)" xlink:href="#linear-gradient-9"/><clipPath id="clip-path-12"><polygon id="SVGID-12" data-name="SVGID" class="cls-1" points="17.77 14.33 17.77 16.21 17.91 16.34 18.3 16.34 18.88 15.77 18.88 15.36 18.7 15.18 18.52 15.36 18.52 15.45 18.63 15.56 18.56 15.63 18.45 15.52 18.45 15.52 18.45 15.52 18.45 14.66 18.71 14.83 18.96 14.66 18.96 16.21 19.09 16.34 19.5 16.34 19.64 16.21 19.64 14.33 19.29 13.98 18.71 14.33 18.13 13.97 17.77 14.33"/></clipPath><linearGradient id="linear-gradient-12" x1="-272.7" y1="-178.89" x2="-272.14" y2="-178.89" gradientTransform="translate(-678.96 1077.65) rotate(90) scale(3.9)" xlink:href="#linear-gradient-9"/><clipPath id="clip-path-13"><polygon id="SVGID-13" data-name="SVGID" class="cls-1" points="15.65 14.33 15.65 15.12 15.97 15.23 16.33 15.12 16.33 14.66 16.59 14.49 16.84 14.66 16.84 15.88 16.73 15.99 16.66 15.92 16.82 15.77 16.59 15.61 16.33 15.76 16.33 16.21 16.33 16.21 16.46 16.34 17.15 16.34 17.52 15.98 17.52 14.32 16.59 13.97 15.65 14.33"/></clipPath><linearGradient id="linear-gradient-13" x1="-272.7" y1="-179.33" x2="-272.14" y2="-179.33" gradientTransform="translate(-682.81 1077.65) rotate(90) scale(3.9)" xlink:href="#linear-gradient-9"/></defs><g class="cls-2"><rect class="cls-3" width="23.47" height="23.5"/></g><polygon class="cls-4" points="6.65 7.81 6.65 6.62 6.37 6.35 6.1 6.62 5.82 6.35 5.54 6.62 5.54 6.94 5.16 6.79 3.68 7.28 3.68 7.81 6.65 7.81"/><polygon class="cls-4" points="3.23 11.63 3.23 11.63 3.01 11.42 2.74 11.69 2.63 11.59 2.95 11.27 2.95 8.68 2.41 8.13 1.86 8.68 1.86 11.63 2.14 11.91 2.96 11.91 3.23 11.63 3.23 11.63 3.23 11.63"/><polygon class="cls-4" points="6.11 8.13 5.57 8.68 5.57 10.87 4.76 10.14 4.76 8.68 4.22 8.13 3.4 8.96 3.68 9.23 3.96 8.95 4.06 9.05 3.68 9.43 3.68 10.16 3.53 10.16 3.21 10.74 3.53 11.32 3.68 11.32 3.68 11.62 3.96 11.91 4.48 11.91 4.76 11.62 4.76 11.32 5.7 11.91 6.37 11.91 6.65 11.62 6.65 8.68 6.11 8.13"/><polygon class="cls-4" points="8.48 8.12 6.99 8.68 6.99 9.17 7.52 9.36 8.08 9.18 8.49 8.9 8.9 9.18 8.9 10.85 8.49 11.13 8.08 10.85 8.08 10.76 7.68 10.36 7.78 10.26 8.08 10.56 8.08 10.55 8.36 10.28 7.53 9.46 6.99 10.01 6.99 11.31 7.59 11.91 9.39 11.91 9.99 11.31 9.99 8.68 8.48 8.12"/><polygon class="cls-4" points="17.67 8.13 16.33 8.91 16.33 8.68 15.78 8.14 14.96 8.96 15.23 9.23 15.51 8.95 15.62 9.05 15.24 9.43 15.24 11.63 15.52 11.91 16.05 11.91 16.33 11.63 16.33 10.17 17.13 9.7 17.13 11.63 17.4 11.91 17.93 11.91 18.21 11.63 18.21 8.68 17.67 8.13"/><polygon class="cls-4" points="20.98 8.15 20.44 8.69 20.44 10.8 20.04 11.13 19.64 10.81 19.64 10.46 20.16 9.95 19.23 9.03 19.34 8.93 19.64 9.24 19.92 8.97 19.1 8.15 18.55 8.69 18.55 9.63 18.86 9.93 18.55 10.24 18.55 11.32 19.14 11.91 20.94 11.91 21.52 11.33 21.52 8.68 20.98 8.15"/><polygon class="cls-4" points="12.75 8.14 11.93 8.96 12.21 9.23 12.49 8.95 12.49 8.95 12.49 8.95 12.59 9.05 12.21 9.43 12.21 10.81 11.81 11.13 11.41 10.81 11.41 10.21 10.87 9.67 10.33 10.21 10.33 11.32 10.92 11.91 12.71 11.91 13.29 11.33 13.29 8.68 12.75 8.14"/><polygon class="cls-4" points="14.79 11.42 14.51 11.7 14.4 11.59 14.73 11.26 14.73 7.47 13.98 6.71 13.45 6.71 13.45 6.71 13.18 6.98 12.91 6.71 12.91 6.71 12.38 6.71 11.83 7.26 12.38 7.81 13.64 7.81 13.64 11.63 13.92 11.91 14.72 11.91 15 11.63 14.79 11.42"/><g class="cls-5"><rect class="cls-6" x="8.1" y="13.98" width="0.68" height="1.06"/></g><g class="cls-7"><rect class="cls-6" x="8.1" y="15.21" width="0.68" height="1.06"/></g><g class="cls-8"><rect class="cls-9" x="9.03" y="13.97" width="1.86" height="2.37"/></g><g class="cls-10"><rect class="cls-11" x="3.74" y="13.66" width="2.02" height="2.68"/></g><g class="cls-12"><rect class="cls-13" x="6.01" y="13.98" width="1.85" height="2.36"/></g><g class="cls-14"><rect class="cls-15" x="11" y="13.97" width="2.33" height="2.37"/></g><g class="cls-16"><rect class="cls-17" x="9.74" y="12.95" width="1.69" height="0.83"/></g><g class="cls-18"><rect class="cls-19" x="13.5" y="12.75" width="1.89" height="1.03"/></g><g class="cls-20"><rect class="cls-21" x="15.65" y="13.15" width="1.87" height="0.63"/></g><g class="cls-22"><rect class="cls-23" x="13.33" y="13.97" width="2.07" height="2.37"/></g><g class="cls-24"><rect class="cls-25" x="17.77" y="13.97" width="1.87" height="2.37"/></g><g class="cls-26"><rect class="cls-27" x="15.65" y="13.97" width="1.87" height="2.37"/></g></svg>