<svg id="Layer_1" data-name="Layer 1" xmlns="http://www.w3.org/2000/svg" viewBox="0 0 34.91 15.43"><path d="M34.91,14.52H26.64V14h7.7V.56H.56V14H8v.55H0V0H34.91Z"/><path d="M25.18,5.22H23.82c0-.21,0-.43,0-.64A2.19,2.19,0,0,0,23.68,4,.74.74,0,0,0,23,3.54a1,1,0,0,0-1.23.94,3,3,0,0,0,0,.43V10a1.26,1.26,0,0,0,.21.78,1.09,1.09,0,0,0,1,.39,1,1,0,0,0,1-1c0-.65,0-1.3,0-2h-1.1V7h2.39v.13c0,.94,0,1.89,0,2.83a2.81,2.81,0,0,1-.34,1.39,2,2,0,0,1-1.21.95,3,3,0,0,1-2-.11,1.94,1.94,0,0,1-1.18-1.54,3.44,3.44,0,0,1-.06-.72c0-1.77,0-3.54,0-5.31a2.29,2.29,0,0,1,.74-1.77A1.89,1.89,0,0,1,22,2.4a2.94,2.94,0,0,1,1.61,0A1.93,1.93,0,0,1,25,3.57,4.11,4.11,0,0,1,25.18,5.22Z"/><path d="M19.57,12.3h-.9c-.12,0-.25,0-.38,0s-.09,0-.11-.09c-.11-.64-.23-1.27-.35-1.9,0-.06,0-.11,0-.17H15.73c-.1,0-.14,0-.15.14l-.39,2H13.83c.05-.25.11-.5.16-.75.36-1.52.71-3,1.06-4.57s.7-3,1-4.48c0-.09.06-.1.14-.1h.93c.1,0,.13,0,.15.12.4,1.72.79,3.43,1.19,5.15.35,1.52.7,3,1.06,4.57A.2.2,0,0,0,19.57,12.3ZM16.71,4.49h0l-.84,4.42h1.71Z"/><path d="M8.11,5.1H6.84c0-.21,0-.41,0-.61a.93.93,0,0,0-1-1,1.29,1.29,0,0,0-.7.16.82.82,0,0,0-.42.71,8,8,0,0,0,0,1,1.1,1.1,0,0,0,.67.92c.48.25,1,.45,1.46.71a3.32,3.32,0,0,1,.74.5,1.79,1.79,0,0,1,.58,1.24c0,.56,0,1.12,0,1.68A1.94,1.94,0,0,1,7.34,12a2.16,2.16,0,0,1-1,.39,3.74,3.74,0,0,1-1.49-.07,2,2,0,0,1-1.44-1.61c0-.35-.06-.71-.08-1.07H4.65a2.81,2.81,0,0,0,0,.41,2,2,0,0,0,.07.49.87.87,0,0,0,.63.6,1.54,1.54,0,0,0,.77,0,.89.89,0,0,0,.73-.8c0-.43,0-.87,0-1.3a1,1,0,0,0-.51-.83,6.84,6.84,0,0,0-.85-.44A6.42,6.42,0,0,1,4.21,7a2.07,2.07,0,0,1-.77-1.28,5,5,0,0,1,0-1.8,2,2,0,0,1,1.73-1.6,3.82,3.82,0,0,1,1.43.06,1.86,1.86,0,0,1,1.32,1.2A4.28,4.28,0,0,1,8.11,5.1Z"/><path d="M26.67,2.4H30.9V3.6H28V6.76h2.6V8H28v3.1H30.9v1.21H26.67Z"/><path d="M10.56,3.6H8.8V2.4h4.78V3.6H11.83v8.69H10.56Z"/><path d="M19.13,15.41h-.26V13.25a6,6,0,0,1,.74.05.37.37,0,0,1,.28.37,3,3,0,0,1,0,.52.37.37,0,0,1-.14.19c-.08,0-.07.1,0,.18.09.24.16.48.24.72,0,0,0,.08,0,.12h0c-.23,0-.23,0-.29-.21s-.14-.42-.2-.64-.16-.07-.25-.08a.23.23,0,0,0-.05.12Zm0-1.18a1.71,1.71,0,0,0,.32,0,.19.19,0,0,0,.18-.18,2.29,2.29,0,0,0,0-.37.17.17,0,0,0-.1-.14,2,2,0,0,0-.34,0s-.05,0-.05.05Z"/><path d="M23.86,13.27h.24V14.9c0,.2.07.28.24.28a.19.19,0,0,0,.22-.22V13.27h.27v.11c0,.51,0,1,0,1.55a.49.49,0,0,1-.15.37.53.53,0,0,1-.56.09.46.46,0,0,1-.26-.44V13.27Z"/><path d="M16,13.27h.26v.78l.1-.09a.31.31,0,0,1,.31-.1.27.27,0,0,1,.22.25,4,4,0,0,1,0,.49c0,.27,0,.53,0,.81h-.26V14.3c0-.14-.07-.21-.19-.21s-.21.05-.21.2v1.12H16Z"/><path d="M13.82,13.27h.26V15.4h-.24l0-.15a.36.36,0,0,1-.43.16.4.4,0,0,1-.2-.42c0-.25,0-.5,0-.75a.38.38,0,0,1,.21-.37c.15-.06.26,0,.36.13l.06,0Zm0,1.37h0v-.32a.22.22,0,0,0-.16-.23.18.18,0,0,0-.21.17,5,5,0,0,0,0,.77c0,.12.1.17.21.16a.18.18,0,0,0,.16-.21Z"/><path d="M21.49,14.26c.1-.38.4-.52.71-.33a.35.35,0,0,1,.17.31c0,.38,0,.77,0,1.16-.11,0-.23.08-.25-.06a2.66,2.66,0,0,1-.37.07.25.25,0,0,1-.26-.18.69.69,0,0,1,0-.49.36.36,0,0,1,.34-.23H22l.17,0a1,1,0,0,0-.07-.35s-.15,0-.22,0-.08.1-.13.17Zm.23.73c0,.18.1.25.27.2a.4.4,0,0,0,.12-.45h0A.25.25,0,0,0,21.72,15Z"/><path d="M18.13,14.75h-.68a1.31,1.31,0,0,0,0,.28.28.28,0,0,0,.15.15c.08,0,.2,0,.23-.07S18,15,18.1,15c0,.3-.17.42-.45.41a.4.4,0,0,1-.44-.42c0-.25,0-.49,0-.74a.44.44,0,0,1,.35-.4.41.41,0,0,1,.49.26A5.77,5.77,0,0,1,18.13,14.75Zm-.27-.24c0-.15,0-.3-.11-.4a.23.23,0,0,0-.2,0c-.1.05-.13.23-.08.39Z"/><path d="M21.15,14.75h-.64c0,.25,0,.39.12.43s.24,0,.31-.17h.21a.37.37,0,0,1-.28.4c-.33.06-.59-.05-.61-.46,0-.2,0-.4,0-.61a.45.45,0,0,1,.42-.49.44.44,0,0,1,.47.45C21.16,14.44,21.15,14.59,21.15,14.75Zm-.23-.24c0-.16,0-.32-.13-.4a.21.21,0,0,0-.2,0c-.12.09-.1.24-.08.38Z"/><path d="M10.42,15.41h-.23V13.27h.9a.57.57,0,0,0,0,.13c0,.08,0,.1-.1.1h-.56v.74H11v.23h-.45c-.1,0-.13,0-.13.13C10.43,14.86,10.42,15.13,10.42,15.41Z"/><path d="M12.83,15.41h-.22a.66.66,0,0,1,0-.14v-.94c0-.17-.08-.25-.25-.24s-.17.09-.18.26V15.4h-.23V13.9h.22l0,.13.06.05s0-.08,0-.1a.29.29,0,0,1,.32-.12.3.3,0,0,1,.23.28Z"/><path d="M15.38,15.41h-.26V13.5h-.2c-.2,0-.2,0-.18-.23h1v.23h-.24c-.11,0-.14,0-.14.13v1.78Z"/><path d="M22.76,13.27H23v1.66c0,.2,0,.22.2.27v.19a.32.32,0,0,1-.43-.28c0-.6,0-1.21,0-1.81C22.74,13.29,22.75,13.28,22.76,13.27Z"/><path d="M11.34,13.9h.23v1.5h-.23Z"/><path d="M11.34,13.27h.22c0,.25,0,.28-.22.25Z"/></svg>