<svg id="Layer_1" data-name="Layer 1" xmlns="http://www.w3.org/2000/svg" viewBox="0 0 20.09 11.76"><defs><style>.cls-1{fill:#cf2227;}</style></defs><path class="cls-1" d="M2.5,11.19v-.1a.43.43,0,0,1-.31.12.65.65,0,0,1-.21,0,.64.64,0,0,1-.16-.11.59.59,0,0,1-.1-.17.64.64,0,0,1,0-.2.63.63,0,0,1,0-.19.54.54,0,0,1,.1-.16A.5.5,0,0,1,2,10.23a.64.64,0,0,1,.2,0,.45.45,0,0,1,.32.11v-.1h.18v1Zm0-.5a.51.51,0,0,0,0-.13.41.41,0,0,0-.07-.11l-.1-.07-.14,0a.28.28,0,0,0-.13,0l-.1.07a.41.41,0,0,0-.07.11.5.5,0,0,0,0,.12.59.59,0,0,0,0,.14.41.41,0,0,0,.07.11.39.39,0,0,0,.1.08l.13,0,.14,0a.27.27,0,0,0,.1-.08.41.41,0,0,0,.07-.11A.68.68,0,0,0,2.51,10.69Z"/><path class="cls-1" d="M3.87,10.69a.66.66,0,0,1,0,.14.61.61,0,0,1,0,.12.36.36,0,0,1-.07.1l-.1.08a.52.52,0,0,1-.13.06l-.14,0H3.28l-.08,0-.08,0-.07-.05v.1H2.88V9.61h.17v.69l.07-.05.08,0,.09,0h.08a.46.46,0,0,1,.21,0,.44.44,0,0,1,.16.1.86.86,0,0,1,.1.16A.69.69,0,0,1,3.87,10.69Zm-.17,0a.31.31,0,0,0,0-.13.33.33,0,0,0-.06-.1l-.11-.08a.27.27,0,0,0-.12,0,.29.29,0,0,0-.14,0,.3.3,0,0,0-.11.07.24.24,0,0,0-.06.11.27.27,0,0,0,0,.13.32.32,0,0,0,0,.14.24.24,0,0,0,.06.11.23.23,0,0,0,.1.07.34.34,0,0,0,.28,0l.1-.07a.24.24,0,0,0,.06-.11A.35.35,0,0,0,3.7,10.69Z"/><path class="cls-1" d="M4,11.19V9.6h.18v1.59Z"/><path class="cls-1" d="M4.54,10.75a.35.35,0,0,0,0,.12.36.36,0,0,0,.07.1l.1.06.13,0a.37.37,0,0,0,.31-.22l.15.08-.09.14-.11.09-.13,0-.14,0-.14,0-.13,0a.34.34,0,0,1-.09-.08A.44.44,0,0,1,4.42,11a.34.34,0,0,1,0-.12.51.51,0,0,1,0-.13.59.59,0,0,1,0-.13.56.56,0,0,1,0-.12.39.39,0,0,1,.08-.1.34.34,0,0,1,.09-.08.52.52,0,0,1,.13-.06h.14a.42.42,0,0,1,.2,0,.31.31,0,0,1,.16.11.51.51,0,0,1,.09.18.54.54,0,0,1,0,.22Zm.62-.16a.36.36,0,0,0,0-.09.23.23,0,0,0-.07-.07.26.26,0,0,0-.09,0l-.1,0-.11,0-.09,0a.23.23,0,0,0-.07.07.36.36,0,0,0,0,.09Z"/><path class="cls-1" d="M6.92,11.19v-.1a.45.45,0,0,1-.32.12.78.78,0,0,1-.21,0,.58.58,0,0,1-.15-.11.42.42,0,0,1-.1-.17.45.45,0,0,1,0-.2.43.43,0,0,1,0-.19.39.39,0,0,1,.1-.16.58.58,0,0,1,.15-.11.66.66,0,0,1,.21,0,.46.46,0,0,1,.32.11v-.1h.17v1Zm0-.5a.28.28,0,0,0,0-.13.24.24,0,0,0-.06-.11.41.41,0,0,0-.11-.07l-.13,0a.28.28,0,0,0-.13,0l-.1.07a.41.41,0,0,0-.07.11.5.5,0,0,0,0,.12.59.59,0,0,0,0,.14l.06.11.11.08.13,0,.14,0a.39.39,0,0,0,.1-.08.24.24,0,0,0,.06-.11A.35.35,0,0,0,6.93,10.69Z"/><path class="cls-1" d="M8.24,11.09a.77.77,0,0,1,0,.15.65.65,0,0,1-.11.28.47.47,0,0,1-.1.1l-.13.07-.15,0H7.6l-.11,0-.1-.06-.08-.09a.67.67,0,0,1-.06-.12l0-.15H7.4a.29.29,0,0,0,0,.14.22.22,0,0,0,.07.09.21.21,0,0,0,.1.06l.12,0,.13,0,.09,0L8,11.41a.19.19,0,0,0,0-.09s0-.07,0-.1V11.1l-.15.09a.57.57,0,0,1-.18,0l-.14,0-.12,0-.09-.09A.39.39,0,0,1,7.3,11a.56.56,0,0,1,0-.12.59.59,0,0,1,0-.13.68.68,0,0,1,0-.14.31.31,0,0,1,0-.12.61.61,0,0,1,.07-.1l.1-.08.13,0,.14,0a.49.49,0,0,1,.31.11v-.09h.18Zm-.17-.4a.31.31,0,0,0,0-.13.33.33,0,0,0-.06-.1.41.41,0,0,0-.11-.07.32.32,0,0,0-.14,0,.25.25,0,0,0-.12,0,.39.39,0,0,0-.1.08.36.36,0,0,0-.07.1.69.69,0,0,0,0,.13.59.59,0,0,0,0,.14.41.41,0,0,0,.07.11.27.27,0,0,0,.1.08l.13,0,.14,0A.39.39,0,0,0,8,11,.23.23,0,0,0,8,10.83.32.32,0,0,0,8.07,10.69Z"/><path class="cls-1" d="M8.56,10.75a.21.21,0,0,0,0,.12.36.36,0,0,0,.07.1l.1.06.13,0a.37.37,0,0,0,.31-.22l.15.08-.09.14-.11.09-.13,0-.14,0-.15,0-.12,0-.1-.08L8.44,11a.34.34,0,0,1,0-.12.51.51,0,0,1,0-.13.59.59,0,0,1,0-.13.56.56,0,0,1,0-.12.86.86,0,0,1,.07-.1l.1-.08.12-.06h.15a.45.45,0,0,1,.2,0,.36.36,0,0,1,.16.11.51.51,0,0,1,.09.18.78.78,0,0,1,0,.22Zm.62-.16a.36.36,0,0,0,0-.09l-.07-.07-.09,0-.1,0-.11,0-.09,0-.07.07a.36.36,0,0,0,0,.09Z"/><path class="cls-1" d="M10.12,11.19v-.58a.37.37,0,0,0,0-.11.11.11,0,0,0,0-.08.1.1,0,0,0-.05,0H9.86a.09.09,0,0,0-.06,0l-.05.06s0,0,0,.08a.19.19,0,0,0,0,.07.25.25,0,0,0,0,.08v.48H9.51v-1h.18v.1a.34.34,0,0,1,.12-.09.28.28,0,0,1,.13,0,.4.4,0,0,1,.17,0,.24.24,0,0,1,.11.08.3.3,0,0,1,.06.14.78.78,0,0,1,0,.16v.58Z"/><path class="cls-1" d="M11.32,11.1l-.1.05-.08,0H11l-.14,0-.13,0-.11-.08-.08-.1,0-.12a1,1,0,0,1,0-.28.67.67,0,0,1,.06-.12.35.35,0,0,1,.08-.1l.1-.08.13,0h.22l.09,0,.08,0,.1.06-.08.15-.08-.05-.07,0-.06,0H11a.32.32,0,0,0-.14,0,.26.26,0,0,0-.11.07.41.41,0,0,0-.07.11.3.3,0,0,0,0,.26.41.41,0,0,0,.07.11l.11.08a.32.32,0,0,0,.14,0h.12l.07,0,.08-.05Z"/><path class="cls-1" d="M11.77,11.76h-.19l.23-.55-.47-1h.19l.38.78.33-.78h.19Z"/><path class="cls-1" d="M14,11.1l-.09.05-.09,0h-.17l-.14,0-.13,0-.1-.08a.39.39,0,0,1-.08-.1.61.61,0,0,1-.05-.12.5.5,0,0,1,0-.28.61.61,0,0,1,.05-.12l.08-.1.11-.08.12,0h.23l.08,0,.09,0,.09.06-.07.15-.08-.05-.07,0-.06,0h-.07a.28.28,0,0,0-.13,0,.21.21,0,0,0-.11.07.44.44,0,0,0-.08.11.43.43,0,0,0,0,.26.44.44,0,0,0,.08.11.31.31,0,0,0,.11.08.28.28,0,0,0,.13,0h.13l.07,0,.08-.05Z"/><path class="cls-1" d="M15.11,10.7a.45.45,0,0,1,0,.2.36.36,0,0,1-.11.16.46.46,0,0,1-.16.11.49.49,0,0,1-.21,0l-.14,0-.12,0a.39.39,0,0,1-.1-.08l-.08-.1a.5.5,0,0,1-.05-.13.43.43,0,0,1,0-.26.5.5,0,0,1,.05-.13l.08-.1a.39.39,0,0,1,.1-.08l.12,0,.14,0,.14,0,.13,0a.58.58,0,0,1,.18.18.61.61,0,0,1,.05.12A.32.32,0,0,1,15.11,10.7Zm-.17,0a.32.32,0,0,0,0-.14l-.07-.11-.12-.07-.13,0a.28.28,0,0,0-.13,0,.26.26,0,0,0-.11.07.41.41,0,0,0-.07.11.43.43,0,0,0,0,.26l.07.11a.41.41,0,0,0,.11.07.3.3,0,0,0,.26,0,.29.29,0,0,0,.12-.07.3.3,0,0,0,.07-.11A.28.28,0,0,0,14.94,10.7Z"/><path class="cls-1" d="M15.48,11.08a.07.07,0,0,1,0,.05.05.05,0,0,1,0,0l0,0H15.3s0,0,0,0l0,0a.43.43,0,0,1,0-.05s0,0,0-.05l0,0,0,0h.11l0,0a.05.05,0,0,1,0,0A.09.09,0,0,1,15.48,11.08Z"/><path class="cls-1" d="M15.9,11.11s0,.05,0,.08l-.05.08-.06.07-.1.08-.09-.1.05,0,0,0,0,0,0,0,0,0,0,0,0,0a.09.09,0,0,1,0-.05.43.43,0,0,1,0-.05l0,0a.05.05,0,0,1,0,0h.13l0,0a.13.13,0,0,1,0,.05A.13.13,0,0,1,15.9,11.11Z"/><path class="cls-1" d="M16.05,11.19V9.6h.18v1.59Z"/><path class="cls-1" d="M16.7,10.39v.8h-.18v-.8h-.14v-.17h.14V9.87h.18v.35h.2v.17Z"/><path class="cls-1" d="M17.78,11.19V11.1l-.07,0-.08,0-.08,0h-.09a.54.54,0,0,1-.21-.05.33.33,0,0,1-.15-.11.46.46,0,0,1-.11-.16.64.64,0,0,1,0-.2.69.69,0,0,1,0-.2.86.86,0,0,1,.1-.16.54.54,0,0,1,.16-.1.54.54,0,0,1,.38,0,.36.36,0,0,1,.15.08V9.61H18v1.58Zm0-.51a.28.28,0,0,0,0-.13.21.21,0,0,0-.06-.1.41.41,0,0,0-.11-.07.3.3,0,0,0-.26,0,.39.39,0,0,0-.1.08.36.36,0,0,0-.07.1.59.59,0,0,0,0,.13.68.68,0,0,0,0,.14.41.41,0,0,0,.07.11.26.26,0,0,0,.1.07.28.28,0,0,0,.13,0,.32.32,0,0,0,.14,0l.1-.07a.27.27,0,0,0,.06-.12A.32.32,0,0,0,17.79,10.68Z"/><path class="cls-1" d="M18.38,11.08a.07.07,0,0,1,0,.05l0,0s0,0,0,0h-.1s0,0,0,0l0,0a.07.07,0,0,1,0-.05.09.09,0,0,1,0-.05l0,0,0,0h.1l0,0,0,0A.09.09,0,0,1,18.38,11.08Z"/><path class="cls-1" d="M6,2.93l.15.2,0,0C6.06,3,6,3,6,2.93Z"/><path class="cls-1" d="M15.81.18a4.27,4.27,0,0,0-3.55,1.89L13.66,4a2.2,2.2,0,1,1,2.15,2.71h-.14a2.2,2.2,0,0,1-1.58-.82L14,5.7,11.85,2.82h0L10.07.45h0A1,1,0,0,0,9.22,0,1.07,1.07,0,0,0,8.15,1.05a1.13,1.13,0,0,0,.23.67h0l3.86,5.14a4.3,4.3,0,0,0,3.57,1.88,2.68,2.68,0,0,0,.4,0,3.45,3.45,0,0,0,.86-.17A4.28,4.28,0,0,0,15.81.18Z"/><path class="cls-1" d="M11.62,7h0L7.76,1.84h0A4.25,4.25,0,0,0,4.28,0l-.42,0A4.42,4.42,0,0,0,3,.23,4.28,4.28,0,1,0,7.84,6.7L6.43,4.8A2.2,2.2,0,1,1,4.28,2.12h.17A2.22,2.22,0,0,1,6,2.91l.13.17,0,0L9.68,7.92l.25.33h0a1.07,1.07,0,0,0,.86.45,1.05,1.05,0,0,0,1.06-1A1,1,0,0,0,11.62,7Z"/></svg>