<svg xmlns="http://www.w3.org/2000/svg" xmlns:xlink="http://www.w3.org/1999/xlink" viewBox="0 0 17.07 17.81"><defs><style>.cls-1{isolation:isolate;}.cls-2{fill:#fff;}.cls-3{fill:#881b1c;}.cls-4{mix-blend-mode:darken;fill:url(#radial-gradient);}.cls-5{fill:#06874f;}.cls-6{fill:url(#linear-gradient);}.cls-7{fill:#008b4d;}.cls-8{fill:url(#linear-gradient-2);}.cls-9{fill:url(#linear-gradient-3);}</style><radialGradient id="radial-gradient" cx="-1114.06" cy="-16277.44" r="15.69" gradientTransform="matrix(0.45, 0, 0, -0.45, 508.16, -7259.75)" gradientUnits="userSpaceOnUse"><stop offset="0" stop-color="#c9e4d0"/><stop offset="0.26" stop-color="#d8ebde"/><stop offset="0.56" stop-color="#e9f3ee"/><stop offset="0.76" stop-color="#ebf4ef"/><stop offset="0.83" stop-color="#f2f7f4"/><stop offset="0.87" stop-color="#f9fafa"/><stop offset="1" stop-color="#fff"/></radialGradient><linearGradient id="linear-gradient" x1="-62.42" y1="-15999.29" x2="-60.69" y2="-15987.95" gradientTransform="matrix(1, 0, 0, -1, 70.18, -15988.06)" gradientUnits="userSpaceOnUse"><stop offset="0" stop-color="#06874f"/><stop offset="0.08" stop-color="#0c8a53"/><stop offset="0.2" stop-color="#1d925f"/><stop offset="0.33" stop-color="#3aa072"/><stop offset="0.48" stop-color="#61b28d"/><stop offset="0.63" stop-color="#94caaf"/><stop offset="0.79" stop-color="#d0e7d9"/><stop offset="0.81" stop-color="#d8ebde"/><stop offset="1" stop-color="#e9f3ee"/><stop offset="1" stop-color="#f0f6f4"/><stop offset="1" stop-color="#f7f9f9"/><stop offset="1" stop-color="#f9fafa"/><stop offset="1" stop-color="#ecf4f1"/><stop offset="1" stop-color="#fff"/></linearGradient><linearGradient id="linear-gradient-2" x1="-61.9" y1="-15994.21" x2="-61.64" y2="-15992.53" xlink:href="#linear-gradient"/><linearGradient id="linear-gradient-3" x1="-58.61" y1="-15995.18" x2="-58.41" y2="-15993.85" xlink:href="#linear-gradient"/></defs><g class="cls-1"><g id="Layer_1" data-name="Layer 1"><rect class="cls-2" x="-0.37" y="0.37" width="17.81" height="17.07" transform="translate(17.44 0.37) rotate(90)"/><rect class="cls-2" x="1.61" y="1.61" width="13.85" height="14.59"/><polygon class="cls-3" points="14.54 9.48 14.54 9.02 14.37 9.02 14.37 8.92 14.82 8.92 14.82 9.02 14.65 9.02 14.65 9.48 14.54 9.48"/><polygon class="cls-3" points="14.92 9.48 14.92 8.92 15.09 8.92 15.19 9.31 15.29 8.92 15.46 8.92 15.46 9.48 15.36 9.48 15.36 9.05 15.25 9.48 15.13 9.48 15.02 9.05 15.02 9.48 14.92 9.48"/><path class="cls-3" d="M5.22,3s0-.07,0-.09l.06-.4a.24.24,0,0,1,.07-.13l.89-.73s.06,0,.06,0V2c0,.12.08.1.17.1h.34s.09,0,0,0L5.93,3a.19.19,0,0,1-.17,0H5.41s-.07,0-.12,0S5.25,3,5.22,3Z"/><path class="cls-2" d="M5.45,2.47v.16s0,0,0,0l0-.15,0-.11,0-.07c0-.05.06-.05.07,0v.1s0,.06,0,.07h0l0-.25a.13.13,0,0,1,0-.09c.06,0,.06,0,.07.07s0,.08,0,.12,0,0,0,0V2.16a.23.23,0,0,1,0-.12L6,2S6,2,6,2s0,.11,0,.16,0,.05,0,0a1.18,1.18,0,0,1,0-.27.3.3,0,0,1,0-.08l.09-.06s0,0,0,0V2a.23.23,0,0,1-.11.21l-.76.66s-.08,0-.07,0l0-.37a.06.06,0,0,1,.06,0S5.45,2.45,5.45,2.47Z"/><path class="cls-2" d="M5.73,2.87H6s-.1-.06-.13-.08,0,0,0,0h.21s.09,0,.11,0,0-.08-.11-.08a.15.15,0,0,1-.09,0s0,0,0,0a1.73,1.73,0,0,0,.36-.05s.07-.07,0-.09l-.13,0s0,0,0,0l.32,0c.05,0,.07,0,.09-.07s0-.05,0-.05h-.3s-.08,0-.13.08l-.69.62s0,.07,0,.08h.23s.08,0,0,0l-.07,0C5.64,2.9,5.66,2.87,5.73,2.87Z"/><path class="cls-3" d="M2.84,5.2s0,.09,0,.12l.11.07c.09,0,0,0,0,.05l-.46.16V5.4l.13-.1s0,0,0-.08a1,1,0,0,1-.08-.11s0,0-.06,0V5s0-.12.07-.06.07.19.14.23.12-.06.16-.09L5.23,3l.08.08Z"/><path class="cls-3" d="M5.22,3s0-.07,0-.09l.06-.4a.24.24,0,0,1,.07-.13l.89-.73s.06,0,.06,0V2c0,.12.08.1.17.1h.34s.09,0,0,0L5.93,3a.19.19,0,0,1-.17,0H5.41s-.07,0-.12,0S5.25,3,5.22,3Z"/><path class="cls-2" d="M5.45,2.47v.16s0,0,0,0l0-.15,0-.11,0-.07c0-.05.06-.05.07,0v.1s0,.06,0,.07h0l0-.25a.13.13,0,0,1,0-.09c.06,0,.06,0,.07.07s0,.08,0,.12,0,0,0,0V2.16a.23.23,0,0,1,0-.12L6,2S6,2,6,2s0,.11,0,.16,0,.05,0,0a1.18,1.18,0,0,1,0-.27.3.3,0,0,1,0-.08l.09-.06s0,0,0,0V2a.23.23,0,0,1-.11.21l-.76.66s-.08,0-.07,0l0-.37a.06.06,0,0,1,.06,0S5.45,2.45,5.45,2.47Z"/><path class="cls-2" d="M5.73,2.87H6s-.1-.06-.13-.08,0,0,0,0h.21s.09,0,.11,0,0-.08-.11-.08a.15.15,0,0,1-.09,0s0,0,0,0a1.73,1.73,0,0,0,.36-.05s.07-.07,0-.09l-.13,0s0,0,0,0l.32,0c.05,0,.07,0,.09-.07s0-.05,0-.05h-.3s-.08,0-.13.08l-.69.62s0,.07,0,.08h.23s.08,0,0,0l-.07,0C5.64,2.9,5.66,2.87,5.73,2.87Z"/><path class="cls-3" d="M2.84,5.2s0,.09,0,.12l.11.07c.09,0,0,0,0,.05l-.46.16V5.4l.13-.1s0,0,0-.08a1,1,0,0,1-.08-.11s0,0-.06,0V5s0-.12.07-.06.07.19.14.23.12-.06.16-.09L5.23,3l.08.08Z"/><path class="cls-4" d="M5,5.6a2,2,0,0,0,1.21-.45,3.14,3.14,0,0,1,1.61-.52A5.59,5.59,0,0,1,9.72,5a11,11,0,0,0,2-.24c1.49-.36,2.55.08,2.9,1.54.28,1.18-1,2-1.42,2.24a13.2,13.2,0,0,0-1.34.28A13.45,13.45,0,0,1,9.91,9C9.3,9,8.72,9,8.15,9c-.75,0-1.55-.29-2.26-.24-.35,0-.6,0-.86,0a3.57,3.57,0,0,1-1.68-.16A2.14,2.14,0,0,1,1.65,7.5c0-1,.17-1.39.85-1.66A5.7,5.7,0,0,1,5,5.6Z"/><path class="cls-5" d="M11.83,4.28a1.56,1.56,0,0,1,.57,0,1.67,1.67,0,0,1,.67.29,1.52,1.52,0,0,1,.69,1.18,1.72,1.72,0,0,1,0,.39,1.68,1.68,0,0,1-.9,1.33,2,2,0,0,1-1,.21V6.38a1.28,1.28,0,0,0,.34-.09c.2-.09.27-.25.21-.36s-.26-.19-.53-.07h0ZM3.77,3a.7.7,0,0,0-.29,0l-.25.09-.16,0a.39.39,0,0,1-.16,0,.53.53,0,0,1-.24-.06s0,0,0,0h.07a.81.81,0,0,0,.3,0S3,3,3,3a.33.33,0,0,0-.19-.06H2.66s0,0,0,0a.41.41,0,0,1,.16,0L3,2.9l.1,0,.11,0h.08l.09,0a.85.85,0,0,1,.56,0H4l0-.05a.2.2,0,0,1,.09-.07.47.47,0,0,1,.26,0c.1,0,.12.07.22.09A.36.36,0,0,1,5,3.1a.94.94,0,0,1,.13.32.82.82,0,0,1,0,.28A2.7,2.7,0,0,1,5,4.36a4.81,4.81,0,0,1-.41,1q-.18.33-.33.66a1.36,1.36,0,0,0-.11.38c0,.26.17.4.41.42A1.07,1.07,0,0,0,5,6.76a6.79,6.79,0,0,1,.72-.17,7.07,7.07,0,0,1,.84-.12,5,5,0,0,1,1.09,0c.2,0,.37,0,.53,0a3,3,0,0,0,.5,0,2.35,2.35,0,0,0,.35-.11c.14-.07,0-.14-.14-.19A4.49,4.49,0,0,0,8.21,6a4.89,4.89,0,0,1-.76-.16A1,1,0,0,1,6.8,4.64a1.28,1.28,0,0,0,0-.51,2.83,2.83,0,0,1-.13-.5.65.65,0,0,1,0-.2c0-.08,0,0,0,0a.57.57,0,0,0,.1.19c.06.08.14.15.2.24a.49.49,0,0,1,.08.18,2.23,2.23,0,0,1,0,.37,1.21,1.21,0,0,0,0,.19.42.42,0,0,0,.1.26.62.62,0,0,0,.21.17l.25.09a3.19,3.19,0,0,0,.52.06c.23,0,.49,0,.76,0a1.38,1.38,0,0,1,.77.27c.07,0,.08.08.14,0a5.14,5.14,0,0,1,.95-.86,2.46,2.46,0,0,1,.86-.38l.1,0V5.87a1.61,1.61,0,0,0-.28.18l-.18.15s-.18.15,0,.18l.12,0a1.73,1.73,0,0,0,.39,0V7.69a2.36,2.36,0,0,1-.72-.16,3,3,0,0,1-.63-.29c-.06,0-.07,0-.12,0a3.17,3.17,0,0,1-.34.28,2.68,2.68,0,0,1-1.83.62A7.19,7.19,0,0,1,7.07,8a5.28,5.28,0,0,0-.72-.08,4.31,4.31,0,0,0-.8.06L5.18,8a2.71,2.71,0,0,1-.94.08,1.28,1.28,0,0,1-.9-.66A1.25,1.25,0,0,1,3.21,7,1.94,1.94,0,0,1,3.45,6c.21-.39.51-.71.74-1.08a2.61,2.61,0,0,0,.32-.7c.08-.25.08-.36,0-.42a.6.6,0,0,0-.11-.12l-.28-.22L4,3.27a.32.32,0,0,1-.1-.22S3.91,3,3.77,3Z"/><path class="cls-2" d="M4.6,3a.28.28,0,0,1,.28.15A1.07,1.07,0,0,1,5,3.67,2.38,2.38,0,0,1,5,4.22a2.1,2.1,0,0,1-.06.24,4.41,4.41,0,0,1-.29.71l-.27.55A2.74,2.74,0,0,1,4.18,6a.17.17,0,0,1-.06.06s-.06,0,0,0a.31.31,0,0,1,0-.09s0,0,0,0-.06,0-.05-.06,0,0,0,0a1.43,1.43,0,0,0-.14.2,1.64,1.64,0,0,0-.16.29,1.22,1.22,0,0,0-.09.42.72.72,0,0,0,.21.52.83.83,0,0,0,.41.22,2.52,2.52,0,0,0,.76,0c.16,0,.35-.07.57-.09s.46,0,.72,0c.5,0,.88,0,1.33.06.25,0,.49,0,.73,0a2.36,2.36,0,0,0,1.05-.31,5.65,5.65,0,0,0,1.49-1.44l0,0s0,0,0,0V5.56s0-.06.06-.06h0l0,0s0,0,0-.07.07-.08.08-.09,0,0,0,0,0,0,0,0,0-.06,0-.06h0s0,0,0,0,0,0,.06,0,.06.06,0,0a.06.06,0,0,1,0,0,0,0,0,0,1,.07,0l0,0s0,0,0,0,0,0,0,0a.25.25,0,0,0,0-.1s0-.06,0-.07h.06s0,0,.06,0l0-.06a0,0,0,0,1,0,0l.05,0h0s0,0,.06,0,0,0,0-.09.06,0,.08,0,0,0,0,0,0,.06.05.06,0,0,0-.07,0-.09.09-.08A.19.19,0,0,1,12,5c0,.06,0,.08,0,.07s0,0,0-.07a.08.08,0,0,1,0,0s0,0,0,0,.06,0,.09,0,.05.12.09.12,0-.08,0-.12.05,0,.07,0,0,.1.08.13,0-.06,0-.1,0,0,0,0h.06s0,0,0,.08l0,.07s0,.12,0,0,0-.12,0-.16,0,0,0,0,.05,0,.05,0a.19.19,0,0,1,0,.08c0,.14,0,0,.05,0V4.85s0,0,0,0h.07a0,0,0,0,1,0,0V5s0,.09,0,.09,0,0,0,0a.08.08,0,0,0,0,0,.32.32,0,0,0,0-.09s0,0,.06,0a.05.05,0,0,1,0,0s0,.14,0,.21,0,.07,0,0a.15.15,0,0,0,0-.06A.12.12,0,0,1,13,5l0,0s0,0,.05,0,0,.07,0,.12S13,5.21,13,5.2s.05,0,.08-.1.06-.11.08-.11l0,0s0,0,0,.09l0,.09,0,.07s0,0,0,0,0-.06.06-.09l0,0s.05-.06.08,0a.08.08,0,0,1,0,.09.22.22,0,0,1,0,.08s0,0,0,0,0,.06,0,0l.06-.07,0,0s.08,0,.09,0-.09.13-.12.16,0,0,0,0l.05,0s.08-.06.1,0a.43.43,0,0,1,0,0c0,.07-.12.13-.16.16s0,0,0,0l.11-.07,0,0s0,0,0,.08a.25.25,0,0,1-.09.09s0,0-.07,0l0,0h.06l.08,0,.06,0s.07,0,.05,0-.05.06-.08.08l-.05,0s.06,0,.11,0,0,0,0,.06L13.59,6l-.07,0s0,0,0,0l.11,0s0,0,0,0a.05.05,0,0,1,0,.07.59.59,0,0,1-.16.06s-.05,0,0,0a.62.62,0,0,1,.13,0c.05,0,.07,0,.07,0s0,0,0,0l-.14,0c-.05,0-.08,0-.07,0s0,0,.07,0,.13,0,.14,0-.06.06-.09.06h-.1s0,0,0,0l.08,0s0,0,0,0a0,0,0,0,1,0,0s-.12,0-.17,0,0,0,.06,0,.08,0,.06.08h-.2c-.05,0,0,0,0,0s.09.06.08.08,0,0-.07,0l-.1,0s0,0,0,0l0,0,.06,0c.07.06,0,.08,0,.09l-.12,0s0,0,0,0l.06,0s0,.06,0,.07H13.2A.8.8,0,0,1,13,7h0l0,0,.1,0c.07.08,0,.1,0,.09l-.16-.05c-.08,0,0,0,0,0a.15.15,0,0,1,.06.05s0,0,0,0h-.1l-.06,0-.07,0-.07,0s0,0,0,0a1.2,1.2,0,0,1,.11.1.05.05,0,0,1,0,.07H12.7l-.08,0a.19.19,0,0,1-.1-.06s-.06,0-.06,0l0,0,0,.07a.15.15,0,0,1,0,.09s-.05,0-.1,0l-.14-.11s-.09-.07-.09,0l0,.06a.33.33,0,0,1,.06.08s0,.07,0,.07h-.08l-.06,0c-.05,0-.07-.09-.11-.12s-.07-.06,0,0l0,.09s0,.05,0,.05l0,0c-.06,0-.07,0-.1-.06l-.07-.05s0,0,0,0,.05.07.07.11l.05.06s0,0,0,0a.21.21,0,0,1-.13-.07L11.7,7.3l0,0s0,.07,0,.08,0,0,0,.06,0,.08,0,.09h0l-.07,0a.27.27,0,0,1-.06-.12l0,0c0-.07,0,0,0,.06a.54.54,0,0,1,0,.08s0,0-.07,0a.28.28,0,0,1,0-.11.1.1,0,0,1,0,0s0-.07,0,0a.26.26,0,0,1,0,.12c0,.06-.1,0-.12,0a.69.69,0,0,1,0-.13c0-.08,0,0,0,0s0,0,0,.06-.08,0-.09,0a1.3,1.3,0,0,0,0-.17s0,0,0,0l0,.07s0,0,0,0,0-.1-.05-.16,0-.07,0-.08,0,.15-.05.16,0,0,0,0a.66.66,0,0,0,0-.15c0-.06,0,.1,0,.11a0,0,0,0,1-.05,0,.41.41,0,0,1,0-.25l.16-.18s0,0,.05,0a2.41,2.41,0,0,1,.25.08,1.55,1.55,0,0,0,.31,0,1,1,0,0,0,.38,0,1,1,0,0,0,.69-.6.36.36,0,0,0,0-.33.48.48,0,0,0-.42-.14,1.25,1.25,0,0,0-.63.31l-.25.21-.07,0s0,0,0,0A.6.6,0,0,0,11,6.12s-.09,0,0,0,0,0,0,.06l0,0s0,0,0,.06a.07.07,0,0,1-.05,0s0,0,0,0l-.06-.12s-.06,0,0,0,.08.08.09.14-.07,0-.07,0a.09.09,0,0,1-.05.09,0,0,0,0,1,0,0l0,0s0-.06,0,0,0,0,0,.07l.06.06v0s0,0,0,0,0,0-.06,0-.07-.09-.08-.08,0,0,0,.08,0,.09,0,.11-.07,0-.09-.07-.05-.06,0,0l0,.11s0,0,0,0,0,0-.06,0h0s0,0,0,0,0,.08,0,.12a0,0,0,0,1,0,.07s-.06,0-.08,0l-.05,0s0,0,0,0l0,.07s.05,0,.05.07,0,.11-.07.07a.24.24,0,0,1-.06-.11s0,0,0,.08a.32.32,0,0,1,0,.13s-.06.08-.09,0,0-.15-.06-.13,0,0,0,0a.51.51,0,0,1,0,.13s0,.07,0,.07,0,0,0-.07l0-.05s0,0,0,0,0,.08,0,.13,0,0,0,.06,0,0-.06,0l0-.06s0,0,0-.06,0,0,0,0a.31.31,0,0,0,0,.08.35.35,0,0,1,0,.07s0,0,0,0,0,0,0,0,0,0-.05,0l0-.06,0,0a.14.14,0,0,1,0-.06s0,0,0,0a.09.09,0,0,0,0,0,.5.5,0,0,1,0,.12c0,.09-.06.09-.07.08s0,0-.05-.09l0,0s0-.06,0,0,0,0,0,0,0,.1,0,.14a.13.13,0,0,1,0,.09c-.05,0-.07-.07-.07-.09s-.05-.12,0,0,0,.15,0,.17,0,0-.05,0,0-.21,0-.19,0,0,0,.06a.34.34,0,0,1,0,.18s-.07,0-.08,0,0-.15,0-.18,0,0,0,0,0,.05,0,.06a.64.64,0,0,1,0,.21s-.09,0-.09,0v0s0-.07,0-.06,0,0,0,.08a.19.19,0,0,1,0,.08.05.05,0,0,1-.06,0s0,0,0,0V7.69a.43.43,0,0,0,0-.05s0,0,0,0,0,0,0,.07a.57.57,0,0,1,0,.16s-.09.06-.09,0a.43.43,0,0,0,0,0,.45.45,0,0,0,0-.11s0-.05,0,0a.81.81,0,0,1,0,.15s0,0,0,.06,0,0,0,0,0,0,0,0a.62.62,0,0,0,0-.13c0-.07,0-.12,0,0v.06a.24.24,0,0,1,0,.14c-.05,0-.07,0-.07,0a.15.15,0,0,0,0-.07l0-.06s0-.07,0-.07a.43.43,0,0,0,0,.15.53.53,0,0,1,0,.12s0,0-.08,0V7.84a.34.34,0,0,0,0-.1s0,0,0,0a.07.07,0,0,0,0,0v0s0,.07,0,.11-.09.09-.1,0,0-.1,0-.14,0,0,0,0,0,0,0,.06a.68.68,0,0,1,0,.13s-.08,0-.09,0,0-.09,0-.14,0-.08,0-.08,0,0,0,.07a1.14,1.14,0,0,1-.06.14S8,8,8,7.9s0-.07,0-.08a.21.21,0,0,1,0-.08s0-.06,0-.06a.08.08,0,0,1,0,0v.06c0,.05,0,.14-.06.17a.06.06,0,0,1-.07,0s0-.06,0-.11a.27.27,0,0,0,0-.09s0-.05,0-.06,0,0,0,0a.26.26,0,0,1,0,.14l0,.08a.06.06,0,0,1-.07,0s0,0,0-.08a.28.28,0,0,0,0-.13s0,0,0,0a.17.17,0,0,1,0,.07s0,.09,0,.11a.05.05,0,0,1,0,0s-.07,0-.06-.09l0-.06s0-.06,0-.09,0,0,0,0l0,.13s-.08,0-.09,0a.56.56,0,0,0,0-.07.19.19,0,0,0,0-.08c0-.08,0,.09,0,.11s0,0-.08,0a0,0,0,0,1,0,0s0,0,0-.06V7.68a.43.43,0,0,1,0,0v0s0,0,0,0v0s0,0,0,.06a.24.24,0,0,1,0,.07s-.06.07-.08,0V7.69c0-.05,0-.06,0-.09s0-.08,0-.06,0,0,0,.08a.7.7,0,0,1,0,.12l0,0s-.05,0,0,0v0s0,0,0-.06,0,0,0,0,0,0,0,0a.37.37,0,0,1,0,.13s0,.07,0,.07l0,0s0,0,0-.09a.77.77,0,0,0,0-.1s0,0,0,0a.14.14,0,0,0,0,.06l0,.11s0,0,0,0,0-.09,0-.14,0-.07,0,0,0,.08,0,.1-.06,0-.07,0,0,0,0-.05V7.55s0-.07,0,0,0,0,0,0v.06a.18.18,0,0,1,0,.11l0,0s0,0,0,0,0,0,0-.06,0-.13,0-.1,0,.06,0,.11,0,.08,0,.09h0s0,0,0-.1,0-.05,0-.07,0-.07,0-.07,0,0,0,0a.91.91,0,0,1,0,.17c0,.06-.09.06-.1,0a.24.24,0,0,1,0-.12c0-.07,0-.09,0,0a.3.3,0,0,1,0,.1.14.14,0,0,1,0,.06s-.06,0-.06,0,0-.09,0-.11,0,0,0-.06,0,0,0,0a.21.21,0,0,1,0,.11.3.3,0,0,1,0,.09l0,0s0,0,0,0,0-.05,0-.08,0-.12,0-.11,0,0,0,.08a.43.43,0,0,1,0,.11s-.05,0-.05,0,0,0,0,0V7.58s0,0,0,0a.15.15,0,0,0,0,.06.34.34,0,0,1,0,.11s0,0,0,0,0,0,0-.07l0-.06c0-.06,0-.06,0,0a.4.4,0,0,1,0,.11s0,0-.06,0,0-.06,0-.09,0,0,0,0,0,.08,0,.08,0,0,0,0V7.68s0,0,0,0a.53.53,0,0,1,0,.13c0,.06-.07.07-.1,0a.37.37,0,0,1,0-.11.09.09,0,0,0,0,0c0-.06,0,0,0,0a.91.91,0,0,1,0,.16,0,0,0,0,1-.07,0,.43.43,0,0,1,0-.12s0,0,0,0,0,.1,0,.12,0,0-.06,0,0-.07,0-.11,0,0,0,0a0,0,0,0,0,0,0v0a.16.16,0,0,1,0,.1s0,0,0,0,0,0-.06,0a.4.4,0,0,0,0-.11c0-.07,0-.07,0,0a.43.43,0,0,1,0,0A.32.32,0,0,1,4.6,8s0,0-.06,0,0,0,0-.06a.66.66,0,0,1,0-.13s0,0,0,0a.46.46,0,0,0,0,.15,0,0,0,0,1-.07,0s0-.06,0-.11a.24.24,0,0,0,0-.08s0,0,0,0a.15.15,0,0,0,0,.06.64.64,0,0,1,0,.07c0,.07-.13,0-.11,0a.49.49,0,0,0,0-.11c0-.11,0,0,0,0s0,.09-.06.1-.08,0-.06-.08l0-.07c0-.08,0-.1,0,0s0,.07-.05.11a.06.06,0,0,1-.11-.06l0,0c0-.07.08-.14.05-.14s0,0-.05,0l-.07.09s0,0,0,0a.06.06,0,0,1-.07,0,.12.12,0,0,1,0-.1l0-.06s0,0,0,0h0s-.09.1-.13.1-.06,0,0-.07l0,0a.23.23,0,0,0,.07-.07s0,0,0,0a.08.08,0,0,1,0,0l-.08,0s0,0-.06,0a.08.08,0,0,1,0-.11.39.39,0,0,1,.14-.08s0,0,0,0a.35.35,0,0,0-.11,0l-.09,0H3.42a.06.06,0,0,1,0-.09s0,0,.07,0l.08,0c.05,0,0,0,0,0l-.08,0s-.07,0-.09,0,0,0,0,0l.11,0c.09,0,0,0,0,0H3.41c-.07,0-.1-.06,0-.09s.14,0,.12,0H3.44l-.09,0c-.05,0,0-.08,0-.08h.1s.05,0,0,0-.09,0-.12,0-.06,0,0-.08,0,0,0,0h.08s.06,0,.06,0-.11,0-.14-.06a.07.07,0,0,1,0-.11l.07,0s0,0,0,0a.09.09,0,0,1-.06,0s0-.09,0-.12.07,0,.1,0,.09,0,0,0-.1,0-.1,0a.13.13,0,0,1,0-.06s0,0,.09,0H3.6s0,0,0,0l-.06,0s0-.08,0-.12,0,0,.06,0,.06,0,0,0,0,0,0-.06,0-.06,0-.07h.06s0,0,0,0,0,0,0-.06l.06-.08h.08s0,0,0,0a.05.05,0,0,1,0,0l0,0,.24-.32a3.93,3.93,0,0,0,.36-.64,2,2,0,0,0,.16-.61c0-.23-.13-.28-.24-.36a1.69,1.69,0,0,1-.32-.28A.43.43,0,0,1,4,3.14c0-.05,0-.07,0-.05l.09.05.22.17s0,0,0,0-.11-.13-.17-.2L4.12,3s0-.08,0-.1.12,0,.19,0A.6.6,0,0,1,4.41,3,.38.38,0,0,0,4.6,3Z"/><path class="cls-6" d="M4,6.11s.06,0,0,0,0,.09.06.06,0,0,0,0a.19.19,0,0,1,0,.08,1.21,1.21,0,0,0,0,.25.44.44,0,0,0,.24.37.82.82,0,0,0,.28.06,1.21,1.21,0,0,1,.19,0,.26.26,0,0,0,.15,0,.42.42,0,0,0,.13-.07,1.39,1.39,0,0,1,.39-.1.28.28,0,0,1,.2,0,.27.27,0,0,0,.18,0c.08,0,.11-.08.17-.11a1.61,1.61,0,0,1,.7-.11.29.29,0,0,1,.18.05.58.58,0,0,0,.19.07.22.22,0,0,0,.21-.07c.07-.08.15,0,.25,0a3.24,3.24,0,0,1,.35,0,.27.27,0,0,1,.13,0l.06,0a.24.24,0,0,0,.31.06,1.27,1.27,0,0,0,.12-.1l.06,0a1.69,1.69,0,0,0,.54-.12c.06,0,.1,0,.16,0a.39.39,0,0,0,.33-.13.51.51,0,0,0,.06-.29.3.3,0,0,1,.07-.15,2.57,2.57,0,0,1,.3-.36.14.14,0,0,1,.14,0,.38.38,0,0,0,.34-.1c.17-.17,0-.33.1-.43a.13.13,0,0,1,.08-.07c.05,0,.06,0,.08,0a.22.22,0,0,0,.19.08.39.39,0,0,0,.36-.21.44.44,0,0,0,0-.25c0-.07,0-.07.07,0h.19a.47.47,0,0,0,.21-.16s.1,0,.13,0,.05.15.29.17a.36.36,0,0,0,.24-.09l.07,0a.51.51,0,0,1,.17,0c.06,0,.06.08.09.13a.33.33,0,0,0,.12.11c.09.07.18.05.29.09a.45.45,0,0,1,.22.21c.06.12,0,0,0,0a1.3,1.3,0,0,0-.51-.26,2.51,2.51,0,0,0-.69,0,.43.43,0,0,1-.12,0,.37.37,0,0,0-.29-.06.34.34,0,0,0-.17.11l-.08.13,0,.09a.22.22,0,0,1-.07.09c-.08.06-.15.14-.24.2a.12.12,0,0,1-.1,0h-.15a.3.3,0,0,0-.18.11l-.07.12c-.05.11,0,.22-.05.31l0,0a3,3,0,0,1-.55.57.47.47,0,0,1-.17,0,.34.34,0,0,0-.23.12c-.08.08-.06.17-.1.25a.36.36,0,0,1-.07.1,2.06,2.06,0,0,1-.7.31.27.27,0,0,1-.22,0c-.13-.07-.12-.14-.32-.14s-.22.12-.3.2l-.08,0a1.78,1.78,0,0,1-.4,0,.31.31,0,0,1-.12-.07.43.43,0,0,0-.1-.09.37.37,0,0,0-.17-.08.33.33,0,0,0-.27.09c-.06.06-.08.07-.12.08H6.36c-.06,0-.1,0-.15,0l-.1-.07a.32.32,0,0,0-.22-.07.31.31,0,0,0-.2.07.4.4,0,0,0-.16.13.33.33,0,0,1-.14.07l-.32.06a.3.3,0,0,1-.23-.07.26.26,0,0,0-.27,0l-.12.07a.43.43,0,0,1-.17,0,.58.58,0,0,1-.21-.07.66.66,0,0,1-.26-.24.82.82,0,0,1,0-.72A.9.9,0,0,1,4,6.11Z"/><path class="cls-2" d="M6.92,4.43a1.25,1.25,0,0,0-.08-.56s0-.08,0-.11,0,0,0,0A.66.66,0,0,1,7,4.15a3,3,0,0,1,0,.79.53.53,0,0,0,.38.52l.22.08c.16,0,.68.14.92.18s.9.21.92.33-.05.08-.08.13l0,0s-.06,0-.07,0,0,0,0-.06,0-.07,0-.08l0,0,0,0a.08.08,0,0,0,0,.05l0,0a.05.05,0,0,1,0,0,0,0,0,0,0,0,0s0-.06,0-.09,0,0,0,0l0,.07a0,0,0,0,1-.05,0,.08.08,0,0,1,0-.09V6s0,0,0,0a.08.08,0,0,1,0,0,0,0,0,0,1-.07,0V6s0,0,0,0V6h0s-.06,0-.06,0V6s0,0,0,0l0,0s0,0-.07,0a.27.27,0,0,1,0-.09s0,0,0,0v0l0,0s0,0-.05,0,0-.05,0-.07,0,0,0,0,0,.08,0,.09a.08.08,0,0,1-.08,0,.11.11,0,0,1,0-.05s0,0,0-.07,0,0,0,0a.94.94,0,0,0,0,.09H8.34s0-.12,0-.12,0,.08-.05.1h0s0-.12,0-.12,0,.06,0,.08a0,0,0,0,1,0,0s0,0-.05-.06,0-.07,0-.1,0,0,0,0,0,.06,0,.09a0,0,0,0,1-.06,0s0-.07,0-.1,0,0,0,0,0,.06,0,.07,0,0,0,0,0,0,0-.08,0,0,0,0l0,0,0,.06s0,0,0,0V5.74s0,0,0,0a.94.94,0,0,0,0,.09,0,0,0,0,1-.06,0v0s0,0,0,0,0,0,0,0l0,0a0,0,0,0,1,0,0s0,0,0,0V5.72l0,0c0-.06,0,0,0,0a.33.33,0,0,0,0,.06s0,0,0,0,0,0,0-.06l0-.07s-.06.06-.08.07,0,0,0,0a.11.11,0,0,1,0-.08s0,0,0,0,0,0,0,0h0s0,0,0,0v0s0,0,0,0l0,0,0,0,0,0v0a.43.43,0,0,0,0,0s0,0,0,0,0,0,0,0,0-.06,0-.07,0,0,0,0,0,0,0,0,0,0,0-.06a.07.07,0,0,1,0-.06.84.84,0,0,1,0-.29C6.87,4.73,6.92,4.47,6.92,4.43Z"/><path class="cls-7" d="M4.67,3.22a.06.06,0,0,0,.06-.06.06.06,0,0,0-.12,0A.06.06,0,0,0,4.67,3.22Z"/><path class="cls-5" d="M3.92,6.55c.07,0,.14.1.14.2a.14.14,0,0,1-.14.16.18.18,0,0,1,0-.36Z"/><path class="cls-5" d="M4.27,6.92c.12,0,.24.07.24.16s-.1.17-.23.17-.22-.07-.22-.17S4.15,6.92,4.27,6.92Z"/><path class="cls-5" d="M5.2,6.85c.17,0,.32,0,.34.1s-.1.23-.26.27-.33,0-.35-.09S5,6.9,5.2,6.85Z"/><path class="cls-5" d="M6.45,6.63c.18,0,.34.07.35.19s-.13.23-.31.25S6.15,7,6.14,6.88,6.27,6.64,6.45,6.63Z"/><path class="cls-5" d="M7.67,6.69c.17,0,.29.15.27.27s-.16.19-.33.16-.3-.14-.28-.26S7.49,6.67,7.67,6.69Z"/><path class="cls-5" d="M9.24,6.72C9.3,6.85,9.16,7,9,7S8.62,7.1,8.57,7s.08-.25.25-.31S9.19,6.6,9.24,6.72Z"/><path class="cls-5" d="M9.82,6.21c-.1-.1,0-.27.07-.4s.31-.23.44-.14.06.28-.07.42S9.94,6.33,9.82,6.21Z"/><path class="cls-7" d="M10.8,6.28s0,0,.06,0a.11.11,0,0,1,0,.06s0,0,0,0l0,0S10.79,6.29,10.8,6.28Z"/><path class="cls-7" d="M11.07,6l0,0a.09.09,0,0,1,0,.05s0,0,0,0L11.05,6S11.05,6,11.07,6Z"/><path class="cls-7" d="M11.2,5.83l0,0a.41.41,0,0,1,0,.09s0,0,0,0a.38.38,0,0,1-.08-.09S11.17,5.81,11.2,5.83Z"/><path class="cls-7" d="M11.35,5.8a.2.2,0,0,1,0,0s0,0,0,0l0,0-.05-.08s0,0,0,0Z"/><path class="cls-7" d="M11.46,5.71s0,0,0,.07,0,0,0,0l0,0C11.35,5.65,11.41,5.66,11.46,5.71Z"/><path class="cls-7" d="M11.54,5.61a.13.13,0,0,1,0,.07c0,.06,0,.05,0,0a.1.1,0,0,1,0-.05C11.46,5.58,11.5,5.58,11.54,5.61Z"/><path class="cls-7" d="M11.67,5.55s0,.07,0,.09-.06-.06-.06-.06S11.64,5.5,11.67,5.55Z"/><path class="cls-7" d="M11.8,5.49s0,0,0,.06,0,0,0,0,0,0,0,0S11.8,5.47,11.8,5.49Z"/><path class="cls-7" d="M11.93,5.52s0,0,0-.08,0,0,0,0S12,5.51,11.93,5.52Z"/><path class="cls-7" d="M12,5.41v.07s0,0,0,0,0-.05,0-.07S12.05,5.37,12,5.41Z"/><path class="cls-7" d="M12.26,5.44a.47.47,0,0,1,0,.09h0s0-.07,0-.08V5.4S12.26,5.38,12.26,5.44Z"/><path class="cls-7" d="M12.34,5.57a.41.41,0,0,1,0-.07s0,0,0-.06,0,0,0,0,0,.06,0,.09S12.34,5.6,12.34,5.57Z"/><path class="cls-7" d="M12.5,5.63s-.07,0,0,0l0-.09s0-.06,0,0,0,0,0,0A.33.33,0,0,1,12.5,5.63Z"/><path class="cls-7" d="M12.67,5.58s0,.06-.06.07,0,0,0,0,.11-.06.1-.11Z"/><path class="cls-7" d="M12.7,5.82s-.06,0,0,0l0,0a.13.13,0,0,0,.07-.06s.05,0,.06,0,0,.08-.06.1Z"/><path class="cls-7" d="M12.76,5.92s-.07,0,0,0a.29.29,0,0,0,.12-.07s.05,0,.06,0-.07.08-.08.08Z"/><path class="cls-7" d="M12.74,6.05h.06l.09,0,0,0s0,0,0,0a.28.28,0,0,1-.17.09S12.71,6.06,12.74,6.05Z"/><path class="cls-7" d="M12.74,6.2c-.05,0-.07,0,0,0h.06a.26.26,0,0,0,.11,0s.09,0,.09,0-.07,0-.13.06Z"/><path class="cls-7" d="M12.69,6.32c-.07,0-.07-.05,0,0a.29.29,0,0,0,.16,0s.05,0,.05,0a.12.12,0,0,1-.1,0Z"/><path class="cls-7" d="M12.56,6.4h.07a.14.14,0,0,0,.11,0c.11,0,.13.06,0,.06a.41.41,0,0,1-.19,0S12.53,6.4,12.56,6.4Z"/><path class="cls-7" d="M12.63,6.56c.09,0,.1.06,0,.05a.2.2,0,0,1-.12-.06s0-.06,0,0S12.58,6.56,12.63,6.56Z"/><path class="cls-7" d="M12.44,6.59a.29.29,0,0,0,.1.07c.12,0,.05.07,0,0l-.07-.06S12.41,6.57,12.44,6.59Z"/><path class="cls-7" d="M12.45,6.74s.05,0,0,.06,0,0-.08,0a.18.18,0,0,1-.07,0c-.05-.06,0-.08,0-.06l.06,0Z"/><path class="cls-7" d="M12.24,6.75s0,0,.07,0,0,0,0,0a.23.23,0,0,1-.09-.08s0-.07,0,0Z"/><path class="cls-7" d="M12.15,6.89l-.05-.06s0,0,0,0l.05,0S12.2,6.91,12.15,6.89Z"/><path class="cls-7" d="M12,6.91a0,0,0,0,1,0,0s0,0,0,0,0,0,0,0S12.07,6.92,12,6.91Z"/><path class="cls-7" d="M11.89,6.9s0,0,0,0h0l0,0S11.9,6.91,11.89,6.9Z"/><path class="cls-7" d="M11.77,6.91s0,0,0,0h0l0,0S11.78,6.92,11.77,6.91Z"/><path class="cls-3" d="M2.47,5.6l-.34.17-.06,0h0l0,0A4.48,4.48,0,0,0,2.47,5h0v.16h0c0,.11-.09.21-.13.32s0,.07,0,0l.1-.09Z"/><path class="cls-5" d="M3,5.72A.25.25,0,0,1,3,5.85c0,.05,0,0,0,.06a2.25,2.25,0,0,1,.12.37c0,.06,0,.07,0,.07s0,0,0-.1S3.08,6,3.05,6V6c0,.07,0,.31,0,.31v0s0,.07,0,.08S3,6.43,3,6.39s0-.22,0-.26H3s0-.23-.05-.3a.16.16,0,0,0,0-.08S2.88,5.66,3,5.72Z"/><path class="cls-5" d="M3.09,6.83V7s0,0,0,0S3,7,3,7,3,7,3,7s0-.05,0-.06a1,1,0,0,0,0-.17s0-.1,0,0S3.08,6.81,3.09,6.83Z"/><path class="cls-5" d="M1.73,7.58a.6.6,0,0,1,0,.12.59.59,0,0,0,.05.19s.05,0,.06,0,0-.16,0-.2a1.62,1.62,0,0,1,0,.3v.11c0,.09.09.1.14.16s0,0,0,.08a1.17,1.17,0,0,0,.05.11c0,.1,0,.15-.07.05s0,0,0-.05l0,0a.22.22,0,0,0,0-.08s0,0,0,.07,0,.07,0,.11-.06,0-.07,0,0-.05-.06-.19a.38.38,0,0,1,0-.15l0-.1a.71.71,0,0,1-.08-.21l0-.25C1.7,7.5,1.71,7.52,1.73,7.58Z"/><path class="cls-5" d="M2.87,7.61l.06.13L3,7.89S3,8,3,8s0,0,0-.06a.45.45,0,0,1,0-.08s0,0,0,0,0,0,0,.12V8s-.05,0-.05,0a.25.25,0,0,1,0-.07,1.71,1.71,0,0,1,0-.32s0-.07,0-.06S2.86,7.59,2.87,7.61Z"/><path class="cls-5" d="M11.78,6.17a.17.17,0,0,0,0,.07.09.09,0,0,1,0,.06.11.11,0,0,1-.08,0c-.09,0-.08,0-.05-.1l.15-.18S11.8,6,11.81,6s0,.06,0,.14A.17.17,0,0,0,11.78,6.17Z"/><path class="cls-5" d="M12,6s-.07.18-.06.24a.1.1,0,0,1-.08.11c-.07,0,0-.12,0-.14A.75.75,0,0,1,12,6Z"/><path class="cls-5" d="M12.2,6s0,0,0,.1a.62.62,0,0,1,0,.1c0,.06-.05.08-.07.08s0,0,0-.08a.25.25,0,0,1,.08-.1A.32.32,0,0,1,12.2,6Z"/><path class="cls-5" d="M1.86,6.78c0,.07,0,0,.06-.16s0-.15,0,0,0,.1,0,.14A.48.48,0,0,0,2,7a.34.34,0,0,0,.09.12s0,0,0,.08S2,7.17,2,7s-.05,0,0,0,.11.27.13.32S2,7.4,2,7.36l0,0a2.29,2.29,0,0,1-.09-.28c0-.06-.05-.12-.05,0s0,.09-.05,0a1.65,1.65,0,0,0-.09-.39c0-.09-.09-.17,0-.1a.9.9,0,0,1,.1.22c0,.06.05,0,.05,0s0-.09,0-.13,0-.23,0-.11S1.85,6.73,1.86,6.78Z"/><path class="cls-5" d="M2.18,6.42a.76.76,0,0,0,0,.21,2.85,2.85,0,0,0,0,.29V7s0,0,0,.06,0,0,0,.07,0,0,0,0V6.81c0-.15,0-.31,0-.39S2.18,6.38,2.18,6.42Z"/><path class="cls-5" d="M3,7.33v.1a.06.06,0,0,1,0,.06.08.08,0,0,1-.08,0s0-.06,0-.07a.2.2,0,0,1,0-.07c0-.07,0-.14,0-.21s0-.11,0,0A.13.13,0,0,0,3,7.2.65.65,0,0,1,3,7.33Z"/><path class="cls-5" d="M2.75,7.29a.71.71,0,0,1,0,.14v.06s0,0,0,0v0s0,0,0,0,0-.05,0-.06V7.3s0-.06,0-.09,0,0,0-.07,0,0,0-.06,0,0,0,.06v.07A.54.54,0,0,0,2.75,7.29Z"/><path class="cls-5" d="M2.63,7.13a2.26,2.26,0,0,0,0,.26,1.18,1.18,0,0,1,0,.16s0,.07-.06,0,0,0,0,0,0-.11,0-.15,0,0,0-.08a.34.34,0,0,1,0-.1s0-.06,0-.09a.44.44,0,0,0,0-.1v-.1s0-.09,0-.14a.5.5,0,0,1,0-.11s0,.08,0,.1,0,.1,0,.16A1.1,1.1,0,0,0,2.63,7.13Z"/><path class="cls-5" d="M2.59,8s0,.07,0,.11,0,0,0,.05,0,0,0,0l0,0s0-.06,0-.07,0,0,0-.06a1.52,1.52,0,0,1,0-.21s0-.11,0,0a.22.22,0,0,0,0,.08Z"/><path class="cls-5" d="M2.88,8.26s0,0,0,0a.35.35,0,0,1,0,.06s0,0-.05,0,0-.06,0-.08,0-.08,0-.11,0,0,0,0l0,0Z"/><path class="cls-5" d="M2.27,8.4a.42.42,0,0,0,0,.1l0,0s0,0,0,0,0,0,0-.06a.43.43,0,0,1,0-.07l0-.11,0-.08,0-.07s0,0,0,.07v.07A.84.84,0,0,0,2.27,8.4Z"/><path class="cls-5" d="M4,9a.41.41,0,0,1,0,.11v.05s0,0,0,0,0,0,0-.05l0-.06v-.1s0-.05,0-.08,0-.1,0,0l0,.05S4,8.92,4,9Z"/><path class="cls-5" d="M4.27,8.54l0,.12v.08s0,0,0,0h0s0-.1,0-.11a.42.42,0,0,0,0-.06.5.5,0,0,1,0-.12.14.14,0,0,1,0-.06c0-.05,0-.13,0,0l-.05.08S4.28,8.5,4.27,8.54Z"/><path class="cls-5" d="M2.53,6.64c0,.2,0,.39,0,.59,0,0,0,.13,0,.15s0,0,0,.09,0,.1,0,.12a.05.05,0,0,1,0,0,.14.14,0,0,0,0,.07V7.44h0s0,0,0-.09a.32.32,0,0,0,0-.09,1,1,0,0,0,0-.17c0-.06,0-.13,0,0a.42.42,0,0,0,0,.06h0V6.92a1.34,1.34,0,0,0,.07-.18.49.49,0,0,1,0-.11c0-.06,0-.1,0,0Zm-.14,1.1v0s0,.13,0,.23,0,.05,0,.05h0Zm0,0h0v.35a.08.08,0,0,1,0-.07.31.31,0,0,0,0-.1s0,.07-.06.06,0,0,0-.06a.32.32,0,0,1,0-.09s0,0,0-.08a.22.22,0,0,0,0-.08c0-.06,0-.09,0-.11a1.71,1.71,0,0,1,0-.32.36.36,0,0,0,0-.11s0-.07,0-.1,0,0,0-.08h0v.21l0,.06a.34.34,0,0,0,0,.11.25.25,0,0,1,0,.07v.12s0,0,0,0,0,0,0,0Z"/><path class="cls-5" d="M3.31,8.33c0,.08,0,.16,0,.24s0,.08,0,.06,0-.11,0-.15a.9.9,0,0,0,0-.13s0-.08,0,0,0,0,0,.06,0,.07,0,.11,0,.08,0,.11l0,.05v0s.06.07.07,0a.37.37,0,0,0,0-.11,3,3,0,0,0-.12-.5.52.52,0,0,0-.09-.16A2.93,2.93,0,0,0,3.31,8.33Z"/><path class="cls-5" d="M3.79,8.4s0,.11.07.17l0,0c0,.06,0,.09,0,.08s0,0,0,0a.36.36,0,0,1,0-.09s0-.06,0-.05a.1.1,0,0,0,0,.09.64.64,0,0,0,0,.09.16.16,0,0,0,0,.06s0,.06,0,.06,0,0,0,0l0-.08a4.17,4.17,0,0,1-.09-.51.4.4,0,0,1,0-.18s0,0,0,.07a.82.82,0,0,0,.06.19A.39.39,0,0,0,3.79,8.4Z"/><path class="cls-5" d="M3.93,8.54c0,.05,0,.13.07.11s0-.09,0-.12a.34.34,0,0,0,0-.09v0s0-.09,0-.07a.44.44,0,0,1,.06.12.92.92,0,0,0,0,.09s0,.14,0,.18,0,0,0,0l0-.08A.75.75,0,0,0,4,8.22a.52.52,0,0,0-.12-.13A2.8,2.8,0,0,0,3.93,8.54Z"/><path class="cls-5" d="M4.6,9.09a.36.36,0,0,1,0,.1s0,.13.06.12v0a.75.75,0,0,0,0-.21.26.26,0,0,0,0-.09s-.06-.11,0-.1h0a.29.29,0,0,1,0,.08l0,0,0,.06s0,.08,0,.06,0,0,0,0l0-.1a.29.29,0,0,0-.06-.1c0-.06,0-.06-.09-.12l0,0s0-.05-.09-.07,0,0,0,0,0,0,0,0l.09.15A2.6,2.6,0,0,1,4.6,9.09Z"/><path class="cls-5" d="M4.82,8.92a.49.49,0,0,1,0,.13s0,.06,0,0,0,0,0,0,0-.14,0-.17a.25.25,0,0,0,0-.07s0-.05,0-.05,0,.09.06.12l0,0a.06.06,0,0,0,0,0,.42.42,0,0,0,0-.06.18.18,0,0,0-.06-.08s0,0-.08-.1l-.06,0-.05,0,0,0s0,0,0,0a1.27,1.27,0,0,0,.07.12A1.77,1.77,0,0,1,4.82,8.92Z"/><path class="cls-5" d="M3.12,8.23a.16.16,0,0,1,0,.07v.07a.19.19,0,0,1,0,.08.69.69,0,0,0,0,.13s0,.11-.06.1,0,0,0,.09l.08.09,0,.05L3.31,9l.08.11s0,0,0,0h0v0s0,0,0,0L3.3,9.09A.45.45,0,0,1,3.2,9l-.14-.19V8.57l0,0h0s0,0,0,0V8.51a.89.89,0,0,1,0-.11.36.36,0,0,0,0-.1s0,0,0,0V8.05A1.24,1.24,0,0,1,3.12,8.23Zm-.06.53,0,0s-.14-.18-.24-.27-.06-.08,0,0,.13.12.16,0l0-.21A.43.43,0,0,0,3,8.1S3,8,3,8l0,0v.22s0,0,0,0v0s0,0,0,.06,0,0,0,.06v0s0,0,0,0l0,0h0Z"/><path class="cls-5" d="M5,8.37l-.07.09h0s0-.2,0-.28,0-.06,0,0l0,.06a.28.28,0,0,0-.09.13.27.27,0,0,0,0,.13c0,.07,0,0,0,0s0,0,0-.06,0-.05,0-.06,0-.07.05-.07l0,0a.42.42,0,0,1,0,.15s0,.09,0,.1,0,0,0,0a0,0,0,0,0,0,0s0,0,0,0,0-.05,0-.06l0-.07.07-.11s0-.05,0-.07,0-.11,0,0l-.06.07Z"/><path class="cls-5" d="M5.17,8.81h0a0,0,0,0,1,0,0l.05-.12c0-.05,0-.11,0-.12s0-.07,0-.09,0,0,0,.08,0,.09,0,.12,0,.07,0,.18a.62.62,0,0,1,0,.13s0,0,0,.08v0h0s0,0,0-.07V9s0-.06,0-.08,0,0,0,0a.61.61,0,0,1,0,.14s0,0,0,0V9l0,0s0,0,0,0l0,0s0,0,0,.06,0,.08,0,.07,0,0,0,0V9c0-.05,0-.09,0-.13s0-.11,0-.16,0,0,0,0,0,0,0-.05a.06.06,0,0,0,0,0s0,0,0,0a.38.38,0,0,0,0,.08v.1A.1.1,0,0,0,5.17,8.81Z"/><path class="cls-5" d="M5.18,8.35l-.08.08L5,8.49s0,0,0,0,0,0,.07,0,0,0,0,0l0,0,0-.06s0,0,0-.05l0,0s0,0,0,0,.08-.06.05,0h0l-.07.06Z"/><path class="cls-5" d="M5.9,9l0,.06a.35.35,0,0,1,0,.12s0,0,0,0,0-.07,0-.09l0,0S6,9,6,9a.89.89,0,0,0-.19-.2c-.07-.05-.09-.07-.07-.08h0A1.73,1.73,0,0,1,6,8.89s.06.08.09,0h0v0A2,2,0,0,0,6,8.56s0-.09,0-.08.11.12.16.25a.36.36,0,0,1,0,.16.57.57,0,0,0,0,.15v.05s0,0,0,0a3.23,3.23,0,0,0,0-.35s0,0,0,0a.68.68,0,0,1,0-.29s0,0,0,0a.53.53,0,0,1,0,.2.48.48,0,0,0,0,.12c0,.13,0,.23.06.17l0-.1s-.08-.38-.08-.52a.23.23,0,0,0,0-.07.24.24,0,0,0,0-.07s0-.19,0-.07-.06.14-.08.21a1.28,1.28,0,0,1,0,.17.09.09,0,0,1,0,.05s0,0,0,0A1,1,0,0,0,6,8.27a.44.44,0,0,0-.1-.11l-.11-.07s-.17-.11-.1,0l.13.14a1.09,1.09,0,0,1,.08.15.41.41,0,0,1,.05.09c0,.08,0,.16.08.26s0,.09-.05.05l0,0-.16-.1a.35.35,0,0,0-.11,0l-.17,0s-.06,0,0,0a.9.9,0,0,1,.29.19l.06.05A.76.76,0,0,1,5.9,9Z"/><path class="cls-5" d="M6.73,9.3s0,.13-.06.12,0,0,0-.05a.19.19,0,0,1,0-.08.59.59,0,0,1,0-.13s0-.09,0-.06a.27.27,0,0,0-.06.11.46.46,0,0,0,0,.09c0,.1-.09.06-.07,0a.34.34,0,0,1,.07-.15A.93.93,0,0,0,6.68,9a.38.38,0,0,1,.11-.13,1.19,1.19,0,0,1,0,.25C6.75,9.19,6.73,9.28,6.73,9.3Z"/><path class="cls-5" d="M7.18,9s0,.07,0,.1,0,.08,0,.08,0-.06,0-.08a1,1,0,0,0,0-.28s-.06-.11,0,0a.19.19,0,0,0,0,.08S7.18,8.91,7.18,9Z"/><path class="cls-5" d="M7.34,9a.11.11,0,0,0,0,0s0,0,0,.05,0,0,0,.05h.07s0,0,0,0a.77.77,0,0,0-.1-.31s0,0,0,0v0s0,0,0,.08V9Z"/><path class="cls-5" d="M7.54,9.06v.12a.1.1,0,0,0,0,0h.07l.06-.06a.86.86,0,0,0,0-.15,1.07,1.07,0,0,0-.07-.15s0,0,0,0,0,.07,0,.09v.16Z"/><path class="cls-5" d="M6.56,9,6.5,9s0,0,0,0a.76.76,0,0,1,0-.16,1.23,1.23,0,0,1,.09-.29,2,2,0,0,1,.25-.46c0-.05,0,0,0,0a1.83,1.83,0,0,0-.07.32c0,.06,0,.08,0,0a.83.83,0,0,1,.32-.13c.08,0,.21,0,.22,0l-.07,0a.34.34,0,0,0-.11.07.53.53,0,0,0-.1.06L7,8.55a.53.53,0,0,0-.1.12s0,.08,0,.09a1.67,1.67,0,0,1,.16.12.41.41,0,0,1,0,.09.05.05,0,0,1,0,0c0,.05,0,.08-.05,0A.67.67,0,0,0,7,8.93a.75.75,0,0,1-.15-.18.07.07,0,0,0,0,0H6.79s0,0,0-.06A.45.45,0,0,1,7,8.43s0,0,0,0L7,8.41a1.22,1.22,0,0,0-.23.22s0,0,0-.07V8.47c0-.06,0-.05,0,0A1.34,1.34,0,0,0,6.56,9Z"/><path class="cls-5" d="M7.1,8.48l.18.07a.62.62,0,0,1,.17.11.31.31,0,0,0,.09.07l0,.06s0,.08.07.11l0,0c.06,0,0,0,0-.09l-.06-.09c0-.06,0,0,0,0l.16.13S7.92,9,8,9,8,9,8,9s-.06-.13-.08-.19h0c0-.06,0,0,0,0A.34.34,0,0,1,8,8.89a1.13,1.13,0,0,1,.12.21s.05,0,.05,0a.86.86,0,0,0,0-.16.5.5,0,0,0,0-.12s0,0,0,0,0,0,0,0,.05.11.07.15a1.81,1.81,0,0,1,0,.49.22.22,0,0,1,0,.08s0,.09.05.07,0-.05,0-.13a1.08,1.08,0,0,0,0-.4c0-.11-.05-.27-.06-.38s0-.13,0-.19.06-.07.07,0a1.07,1.07,0,0,1,0,.25c0,.1,0,.2,0,.29s0,.07,0,.08.08,0,.07-.1,0-.07,0-.11,0-.07,0-.1,0-.13,0-.2a.93.93,0,0,0-.12-.33s0-.1-.07,0a.76.76,0,0,0-.06.25.45.45,0,0,0,0,.16c0,.06,0,.09-.07,0L8,8.51s-.17-.12-.11-.06a.9.9,0,0,1,.14.24s0,.08,0,.06L7.84,8.6a.27.27,0,0,0-.1-.25s-.06,0,0,0a.3.3,0,0,1,0,.11c0,.08,0,.06,0,0l-.09,0c-.07,0-.09,0,0,0a.71.71,0,0,0,.07.09c0,.09,0,0-.06,0a1.21,1.21,0,0,0-.2-.09,1.57,1.57,0,0,1-.31-.08C7,8.43,7,8.47,7.1,8.48Z"/><path class="cls-5" d="M9.26,9.21v.1s0,0,0,.06a.08.08,0,0,0,.07,0s0,0,0,0a.57.57,0,0,0,0-.18c0-.07,0-.12,0-.13l0,0a.43.43,0,0,1,0,.05v.1S9.26,9.19,9.26,9.21Z"/><path class="cls-5" d="M8.83,8.37,9,8.25a1,1,0,0,1,.17-.12s0,0,0,0-.07.09-.1.15,0,.06,0,.09l0,0a.38.38,0,0,0,0,.1.31.31,0,0,0,0,.08s0,.07,0,0l0,0,.08,0,.2-.06a.69.69,0,0,1,.2,0c.06,0,.1,0,.1,0h0a2.32,2.32,0,0,0-.28.16A3.28,3.28,0,0,0,9,9a1.15,1.15,0,0,1-.14.17V9l.31-.28s.21-.11,0-.09l-.07,0a1.11,1.11,0,0,0-.27.2h0V8.77a.32.32,0,0,0,.05-.13l0-.16c0-.08,0-.14-.06,0a.15.15,0,0,0,0,.06Zm-.21.78s-.06,0-.07,0,0,0,.07-.09a.37.37,0,0,0,0-.11l0-.17a.94.94,0,0,1,.1-.28l.07-.11v.14a.63.63,0,0,1,0,.09l0,.09c0,.08,0,.13,0,.15s.05,0,.08-.07V8.9a.85.85,0,0,0-.1.14c0,.05-.08.07-.11.11Zm.21,0V9l0,0a1.67,1.67,0,0,0-.12.16,2.43,2.43,0,0,0-.2.25c-.05.08,0,.07,0,.06l.07,0c.08,0,.09-.08.19-.2Z"/><path class="cls-5" d="M9.42,9.21a1.51,1.51,0,0,0,0-.3c0-.05,0-.07,0,0a1.13,1.13,0,0,1,.08.24s0,0,.05,0,0,0,0,.06l0,.08a.18.18,0,0,0,0,.06s0,0,0,0a1.85,1.85,0,0,0,0-.23,3.1,3.1,0,0,0,0-.53c0-.1,0-.06,0,0a2,2,0,0,1,0,.54,1.81,1.81,0,0,1,0,.23l0,.09,0,.07s0,.07-.07,0l0,0s0,0,0-.07V9.24c0-.07,0-.12-.05,0S9.44,9.25,9.42,9.21Z"/><path class="cls-5" d="M9.77,8.38a1,1,0,0,0,.06.18,4.1,4.1,0,0,1,.1.48v.17s0,.06,0,.07.07,0,.09,0l0-.09a.58.58,0,0,0,0-.14.91.91,0,0,0,0-.36c0-.06,0-.13,0,0s0,.06,0,.09A1.24,1.24,0,0,1,10,9s0,0,0,0a.57.57,0,0,1,0-.12l-.08-.26-.06-.14a.49.49,0,0,0,0-.11C9.77,8.28,9.72,8.23,9.77,8.38Z"/><path class="cls-5" d="M10.2,7.7a.61.61,0,0,1,.05-.12.87.87,0,0,1,0-.1c0-.08,0-.07.05.11a2.3,2.3,0,0,0,0,.26,2.62,2.62,0,0,1,0,.28.93.93,0,0,1,0,.14l0,.08s-.05,0-.05,0,0-.08,0-.13a2.18,2.18,0,0,0,0-.35c0-.08,0-.13-.06,0s0,.35-.07.5,0,.08,0,0,0-.05,0-.08a.42.42,0,0,1,0-.16,1,1,0,0,1,0-.16,1.6,1.6,0,0,1,.05-.21Z"/><path class="cls-5" d="M10.24,9.11c0-.16,0-.31.08-.46s0-.09,0-.14c.05-.22.05-.1.07.12a.56.56,0,0,0,0,.13,2.83,2.83,0,0,1,.05.44s0,0,0,.06-.06.06-.06,0a.4.4,0,0,1,0-.11,2.24,2.24,0,0,1,0-.26s0-.11,0,0,0,.21-.06.29,0,0,0,.06-.06.05-.07,0A.25.25,0,0,1,10.24,9.11Z"/><path class="cls-5" d="M10.52,8.09s0,0,0-.08a.32.32,0,0,0,0-.09s0,0,.05-.07a.25.25,0,0,1,0-.07s0,0,0,0a.09.09,0,0,1,0,0,1.22,1.22,0,0,1,0,.17C10.58,8.08,10.6,8.09,10.52,8.09Z"/><path class="cls-5" d="M10.79,8s0,0,0-.09a.5.5,0,0,1,0-.16s0,0,0,0,.05,0,.06.11a1,1,0,0,1,0,.14S10.82,8,10.79,8Z"/><path class="cls-5" d="M10.78,8.8s0-.09,0-.11a.06.06,0,0,1,0,0c0-.05.06,0,.07,0s0,.07,0,.08S10.81,8.8,10.78,8.8Z"/><path class="cls-5" d="M10.6,8.55l0,.06s0,.06,0,.06h0s0-.07,0-.08-.08-.13-.08-.13,0,0,0,0,0,0,0,.05A.21.21,0,0,0,10.6,8.55Z"/><path class="cls-5" d="M11,8.41s0,0-.06-.16,0-.09,0-.05l-.07.08s-.06.07-.09.05,0-.1.11-.23.06,0,.08-.15a1.92,1.92,0,0,1,0-.2c0-.1,0,0,0,0s0,.09,0,.14,0,0,0,0l.09-.06.11-.05s0,0,0,0l-.08,0a.47.47,0,0,0-.1.1l0,0C11,8,11,8,11,8.11a1.44,1.44,0,0,0,0,.18C11,8.38,11,8.4,11,8.41Z"/><path class="cls-5" d="M11.07,8.39s0,0,0-.06a.38.38,0,0,0,0-.1l0-.08c0-.06,0,0,.06.07l0,0s0,0,.05-.08,0-.09.08-.11.06-.06.05,0-.06.11,0,.17,0,.06.06,0,.07-.1.1-.16.14-.15.15-.13,0,0,0,.07l-.09.17a.5.5,0,0,0-.07.13.08.08,0,0,0,0,.06l.19.19c.06.07.06.09,0,.08l-.06,0,0,0s-.05-.07-.08-.1-.08-.06-.11-.05a.63.63,0,0,0,0,.09s0,.08,0,.09h0s0,0,0,0a.41.41,0,0,1,0-.08.47.47,0,0,1,.06-.15s0-.05,0-.06,0,0-.06,0,0,0,0,0,0,0,0,.05S11.09,8.39,11.07,8.39Z"/><path class="cls-5" d="M10.85,9.17s0-.05,0-.17,0-.13,0-.19,0-.06,0-.13a.38.38,0,0,1,0-.1s0,0,0,.05v.08c0,.11,0,.16,0,.28S10.89,9.17,10.85,9.17Z"/><path class="cls-5" d="M11.15,8.71a.69.69,0,0,1,0,.13.92.92,0,0,1,0,.16.69.69,0,0,1,0,.2s0,.13,0,.11,0-.06.05-.09l0,0a.56.56,0,0,0,.05-.08A.59.59,0,0,0,11.39,9a.57.57,0,0,0,0-.13s0,0,0,0,0,0,0,0,0,0,0,.05l0,0s-.05,0-.05,0,0-.07,0-.12v0s0,0,0,0,0,.05,0,.07,0,0,0,0a.56.56,0,0,0,0-.12C11.15,8.65,11.14,8.66,11.15,8.71Z"/><path class="cls-5" d="M11.73,7.83a.59.59,0,0,1,0,.08.26.26,0,0,1,0,.08l0,.12a1.4,1.4,0,0,1,.05.23s0,.05,0,.07,0,0,0,0a.38.38,0,0,0,0-.1s0-.06,0-.09A.84.84,0,0,1,12,8.07s0-.05,0-.05,0,0,.06-.09l0,0s0,0,0-.06l.06,0s0,0,0,0,0,.1,0,.12a.17.17,0,0,1,0,.05,2.8,2.8,0,0,0-.06.28s0,.08,0,.06l.17-.16a.31.31,0,0,1,.11-.09l0,0s0-.07,0-.13a.41.41,0,0,1,0-.08v0s0,0,0,0,0,0,0,.07a.18.18,0,0,0,0,.07s0,0,.07,0,0,0,.05-.05a.76.76,0,0,0,0-.16c0-.06,0,0,0,0s0,.06,0,.08a3,3,0,0,0,0,.3s0,.07,0,.09,0,0,0,.06,0,.06,0,.05l0,0V8s-.06,0-.07.05,0,.26,0,.33a.07.07,0,0,1,0,.05c-.06,0,0,0,0-.05V8.22c0-.05,0-.06-.07,0a.39.39,0,0,0-.15.21s-.05.1,0,.12,0,0,0,0a.88.88,0,0,1-.05.15s0,.11,0,.14a.37.37,0,0,0,0,.14s0,.06-.06,0,0,0,0-.14l0-.08s0-.06,0-.05l0,.07L12.07,9s-.06.16-.12.16a.22.22,0,0,1,0-.08A1.12,1.12,0,0,1,12,8.88a.76.76,0,0,0,.08-.11s0,0,0,0l.09-.11s0-.09,0-.12a.86.86,0,0,1,.07-.12s0-.07,0-.06l-.06.09a.33.33,0,0,0-.07.13.33.33,0,0,1,0,.06s0,0,0,0,0,0,0-.07a.86.86,0,0,1,0-.16c0-.08,0-.13.06-.21s0,0,0-.06,0,0-.07.06a1.89,1.89,0,0,0-.06.21s0,.09,0,.13,0,.07-.05,0l0,0s0,0,0,0,0,0,0,0,0,0,0-.06,0-.14,0-.1v0s0,.12,0,.19,0,0,0,.05,0,0,0,0a0,0,0,0,1-.06,0s0-.05,0-.08,0-.11,0-.16a.4.4,0,0,1,0-.11h0a.19.19,0,0,1,0-.13s0-.11,0-.17a.31.31,0,0,1,0-.08C11.69,7.79,11.69,7.75,11.73,7.83Z"/><path class="cls-5" d="M12.85,8.08a.15.15,0,0,0,0,.07s.05,0,.07,0a.22.22,0,0,0,0-.08,1.21,1.21,0,0,1,0-.19A1.8,1.8,0,0,1,13,7.69s0,0,0,0a1.32,1.32,0,0,0-.08.14A1,1,0,0,0,12.85,8.08Z"/><path class="cls-5" d="M13,8s.05,0,.06,0,0-.18.05-.2a.88.88,0,0,1,0-.15l0,0S13,8,13,8Z"/><path class="cls-5" d="M13.2,7.89s0,.05.05,0l0,0c0-.05,0-.16,0-.18a.44.44,0,0,1,0-.09s0,0,0,0a.6.6,0,0,0-.08.2S13.19,7.87,13.2,7.89Z"/><path class="cls-5" d="M11.71,9a1,1,0,0,0,0-.15s0-.13.05-.07v.14a.76.76,0,0,0,0,.15s0,.14,0,.15,0,0,0-.05-.08-.07-.08,0v0c0,.05,0,.05,0,0a.09.09,0,0,1-.06-.09s0-.05,0-.09a.86.86,0,0,0,0-.16c0-.05,0-.08,0-.12s0-.1,0-.09,0,0,0,.08,0,0,0,.06,0,.06,0,.08a.37.37,0,0,0,0,.09S11.7,9,11.71,9Z"/><path class="cls-5" d="M12.19,9.37s.09-.14.1-.18l.12-.31a.52.52,0,0,1,.06-.13c.06-.16.07-.14.08,0s0,.12,0,.17v.18c0,.07,0,.07,0,.1a.4.4,0,0,1,0,.11s0,.06-.05.08-.06,0,0,0a.37.37,0,0,0,0-.12l0-.21a.45.45,0,0,0,0-.12s0,0,0,0-.1.29-.16.43,0,.09-.06.09,0,0,0,0A.08.08,0,0,1,12.19,9.37Z"/><path class="cls-5" d="M12.76,9a.73.73,0,0,1,0,.2s0,.08.07.06,0,0,0,0a.23.23,0,0,1,0-.07s0-.07,0-.1a.69.69,0,0,0,0-.25c0-.07-.05-.18,0,0v.09S12.76,8.91,12.76,9Z"/><path class="cls-5" d="M12.31,8.89a0,0,0,0,0,0,0,.27.27,0,0,0,0-.08,1.11,1.11,0,0,1,0-.13.83.83,0,0,1,0-.15s0,0,0,0a.69.69,0,0,0-.07.13C12.32,8.77,12.29,8.86,12.31,8.89Z"/><path class="cls-5" d="M13,8.78a.47.47,0,0,0,0,.17S13,9,13,9a.08.08,0,0,0,0-.06,1.79,1.79,0,0,0,0-.23,2.79,2.79,0,0,0,0-.32c0-.1-.07-.25,0,0,0,0,0,.06,0,.1A1.27,1.27,0,0,1,13,8.78Z"/><path class="cls-5" d="M13.86,7.84s0,.08,0,.09a.07.07,0,0,1-.06,0c-.06,0,0,0,0-.07s0-.08.07-.12.1-.11.07,0A.47.47,0,0,0,13.86,7.84Z"/><path class="cls-5" d="M14,7.9S14,8,14,8s-.06,0-.06,0a.46.46,0,0,1,.05-.1l0,0s0-.08,0-.08,0,0,0,0,0,0,0,0S14,7.85,14,7.9Z"/><path class="cls-5" d="M14.29,8.3l.07-.06.12-.18s0,0,0,0l-.15.12s-.09.06-.11.08v.06S14.25,8.32,14.29,8.3Z"/><path class="cls-5" d="M14.2,8.7a.27.27,0,0,0,.08-.07.85.85,0,0,0,.11-.14s0,0,0,0h0l-.1.07s-.06,0-.08,0a.08.08,0,0,0-.06,0s0,0,0,.06S14.16,8.71,14.2,8.7Z"/><path class="cls-5" d="M14.73,8.15A.89.89,0,0,0,14.85,8s0,0,0,0l-.12.08h-.07l-.05,0,0,0v.06s0,0,.06,0Z"/><path class="cls-5" d="M14.59,8.6a.06.06,0,0,0,.05,0l.12-.14s0,0,0,0h0l-.18.1a.13.13,0,0,0-.08,0,.09.09,0,0,0,0,.07l0,0S14.57,8.62,14.59,8.6Z"/><path class="cls-5" d="M13.31,8.46c0-.08,0-.13,0-.15a1.65,1.65,0,0,1,.09-.16c.05-.06.05,0,0,0s0,.13,0,.15a1.49,1.49,0,0,1,0,.18,2,2,0,0,1,0,.21c0,.09,0,.11,0,.16a.23.23,0,0,0,0,.07s-.05.07-.06.06,0,0,0-.07,0-.05,0,0,0,.09,0,.09a.06.06,0,0,1,0,0s0-.07,0-.11a.88.88,0,0,0,0-.17c0-.07,0-.09,0-.16a.06.06,0,0,1,0,0c0-.07,0-.16,0-.18s0-.05,0,0,0,0,0,.09a.72.72,0,0,0,0,.13.35.35,0,0,0,0,.12s0,0,0,0,0-.07,0-.1A.24.24,0,0,1,13.31,8.46Z"/><path class="cls-5" d="M13.59,8.59a.35.35,0,0,1,0,.11v.06a.27.27,0,0,0,0,.13s0,0,0,0,0,0,0-.06l0-.06V8.72a.54.54,0,0,1,0-.1l0-.15a.45.45,0,0,1,0-.08l0-.05s0-.12,0-.14,0,0,0,0a.35.35,0,0,0-.07.09s-.08.08-.08,0a.58.58,0,0,1,0-.14V8.09a.13.13,0,0,1,0-.06c0-.06,0,0,0,0s0,.09,0,.12,0,.1-.05.15,0,.05,0,.07a.34.34,0,0,0,0,.08.08.08,0,0,1,0,0c0,.05-.05.14-.05.16s0,0,0,0h0l0-.06s0,0,0,0l0-.07S13.6,8.52,13.59,8.59Z"/><path class="cls-5" d="M13.93,8.62a.93.93,0,0,1,0,.1.13.13,0,0,1,0,.06s0,.06-.05,0a.07.07,0,0,1,0-.08s0,0,0-.07,0-.1,0-.14a.06.06,0,0,1,0-.06c0-.05,0,0,0-.09v0a.72.72,0,0,1,0-.14A.31.31,0,0,1,14,8.08s.07-.08,0,.05a.12.12,0,0,1,0,.08s0,.07-.06.11v0c0,.05.15-.12.15-.07a1,1,0,0,1-.11.15C14,8.51,13.92,8.6,13.93,8.62Z"/><path class="cls-5" d="M14.69,7.69l.06-.08s0,0-.07,0h0c-.05,0-.1.08-.12.08l-.07,0s-.07,0-.08.06,0,0,0,.06.06,0,.08,0a.48.48,0,0,0,.11-.08l0-.06Z"/><path class="cls-5" d="M14.56,6.3a.06.06,0,0,0,.06,0s0,0,0-.07a.56.56,0,0,0,0-.1s0-.06,0,0l-.07.09a.41.41,0,0,0-.05.09S14.51,6.3,14.56,6.3Z"/><path class="cls-5" d="M13.93,6.25v0a.89.89,0,0,0,0,.11c0,.06,0,.12,0,.14s0,0,0,0,0,0,0,0l0,0a0,0,0,0,1,0,0,.2.2,0,0,1,0-.11A.68.68,0,0,1,13.93,6.25Z"/><path class="cls-5" d="M14.2,6.12s0,0,0,0a.19.19,0,0,1,0,.12s0,0,0,0,0,.08,0,.11,0,.06-.05.06h0s0-.11,0-.13l0-.07s0,0,0-.06l0,0A.55.55,0,0,1,14.2,6.12Z"/><path class="cls-5" d="M13.79,6.83a1.8,1.8,0,0,0-.11.2.8.8,0,0,0-.08.16.13.13,0,0,0,0,.06s-.05.1-.07.16,0,.22-.1.22,0-.22,0-.28l.09-.2a2.21,2.21,0,0,1,.22-.32s.08-.08.1-.08S13.82,6.77,13.79,6.83Z"/><path class="cls-5" d="M13.63,7.58c-.07,0-.08,0-.06-.08a1.77,1.77,0,0,1,.3-.6,1.33,1.33,0,0,1,.37-.3l.13-.08c.11,0,.13-.07,0,0l-.11.1a.3.3,0,0,1-.08.08l-.07,0s0,0-.06.07A.76.76,0,0,0,14,7a1.6,1.6,0,0,0-.08.26s-.09.2-.07,0a1.48,1.48,0,0,1,0-.19A.55.55,0,0,0,13.89,7s-.05,0-.06,0-.11.21-.15.32,0,.08,0,.09l.11,0a.53.53,0,0,1,.19,0s0,0,0,0A1.82,1.82,0,0,0,13.63,7.58Z"/><path class="cls-5" d="M13.93,7.22a.42.42,0,0,1,0-.1,1.06,1.06,0,0,1,.19-.24.87.87,0,0,1,.35-.25l-.13.16a1.25,1.25,0,0,1-.08.12.42.42,0,0,0,0,.1.5.5,0,0,0,0,.13s0,.14-.09.11,0,0,0-.07a1.72,1.72,0,0,1,.09-.25.76.76,0,0,0-.17.22l0,.12C13.92,7.33,13.91,7.27,13.93,7.22Z"/><path class="cls-5" d="M14,7.39l.15,0c.09,0,.07,0,.12-.06l.07-.08a1.7,1.7,0,0,0,.1-.14s.05,0,0,0a.34.34,0,0,1,0,.12l0,.09a.49.49,0,0,0,0,.1s0,.06,0,0l0,0,.07-.08c.07-.1.16-.21.21-.29s.05,0,0,0,0,.14-.05.21a1.06,1.06,0,0,0-.06.19s0,.1,0,.12-.05,0-.06,0a.06.06,0,0,1,0-.08.54.54,0,0,0,.05-.19s0,0,0,0-.06.15-.08.19,0,0-.07,0,0,0,0,0,0,0-.11-.07-.06,0-.12,0l-.15,0C13.92,7.4,13.93,7.39,14,7.39Z"/><path class="cls-5" d="M14.26,5.79a.66.66,0,0,0-.06.12,1.3,1.3,0,0,0,0,.14s0,0,0,0l-.05,0v0s-.06,0-.06,0A.33.33,0,0,1,14.06,6a.76.76,0,0,1,.18-.23S14.27,5.76,14.26,5.79Z"/><path class="cls-5" d="M13.79,4.79s0-.06,0-.08a1,1,0,0,1,0-.16c0-.08,0-.11,0,0a.37.37,0,0,0,0,.11.38.38,0,0,0,0,.18s0,0,0,0v0S13.78,4.81,13.79,4.79Z"/><path class="cls-5" d="M13.54,4.71a.3.3,0,0,0,.05-.14.65.65,0,0,1,.05-.15s0-.08,0,0a.63.63,0,0,1,0,.09l-.06.08,0,.06a.17.17,0,0,0,0,.05.06.06,0,0,0,0,.06s0,0,0,0Z"/><path class="cls-5" d="M13.91,4.62s0,0,.07-.09l.11-.13.06-.06s.12-.12,0,0a1.27,1.27,0,0,0-.07.12l0,.1a.3.3,0,0,0,0,.08.5.5,0,0,0-.05.13.22.22,0,0,0,0,.08L14,5s0,0,0,.06,0,.08,0,.1,0,0,0,0,0,0,0,0a.34.34,0,0,1,0-.14.32.32,0,0,1,0-.09c0-.05,0-.1,0-.11A1.47,1.47,0,0,1,14,4.66s0-.06,0,0l-.06.07c0,.1-.06.07-.07.07s0,0,0,0S13.9,4.64,13.91,4.62Z"/><path class="cls-5" d="M14.06,5.15s0-.07.07-.1.06-.1.1-.14l.18-.21s0,0,0,0,0,.07-.06.12L14.28,5l0,.1a.35.35,0,0,0-.06.14s0,0,0,.07a.22.22,0,0,0,0,.08c0,.08,0,.07.08,0a1.8,1.8,0,0,1,.2-.11c.06,0,.2-.06.2,0s-.05,0-.11.08a.7.7,0,0,0-.18.17c-.09.1-.15.24-.21.31a0,0,0,0,1,0,0s0,0,0-.07a.53.53,0,0,1,.06-.1.78.78,0,0,1,.1-.15s.08-.09.07-.09a.08.08,0,0,0-.08,0,.5.5,0,0,0-.15.15.73.73,0,0,1-.05.09s0,0,0,0a1,1,0,0,1,0-.15.32.32,0,0,1,0-.09.85.85,0,0,1,.06-.17s.05-.12,0-.12l0,0a.2.2,0,0,0,0,.08.6.6,0,0,0-.07.14.63.63,0,0,0,0,.09l0,0h0s0-.06,0-.09A1.31,1.31,0,0,1,14,5.3,1,1,0,0,1,14.06,5.15Z"/><path class="cls-5" d="M14.26,6.31a.32.32,0,0,1,0-.09l.09-.15.06-.1a1,1,0,0,1,.15-.14.54.54,0,0,1,.16-.1.7.7,0,0,0-.21.29l0,.09a.61.61,0,0,0,0,.12s0,.13-.07.11a.23.23,0,0,1,0-.12s0,0,0,0a.59.59,0,0,0-.06.16C14.24,6.45,14.24,6.36,14.26,6.31Z"/><path class="cls-5" d="M5.71,6.3a.15.15,0,0,0,0,.07c0,.06,0,.15-.08.1V6.41a1.58,1.58,0,0,1,0-.19l0,0a.13.13,0,0,1,0-.06c0-.06,0-.12,0-.05a.31.31,0,0,1,0,.11S5.71,6.27,5.71,6.3Z"/><path class="cls-5" d="M5.85,6.36a.09.09,0,0,1,0,0s0,0,0,.06-.08,0-.06-.06,0,0,0,0,0-.08,0-.1,0,0,0,0,0-.08,0,0,0,0,0,.07A.34.34,0,0,0,5.85,6.36Z"/><path class="cls-5" d="M5.48,6.38v0s0,.05,0,.06a.06.06,0,0,0,.07,0,.35.35,0,0,1,0-.06.07.07,0,0,0,0,0s0-.08,0-.1a.43.43,0,0,0,0,0s0-.09,0,0a.22.22,0,0,0,0,.09A.41.41,0,0,1,5.48,6.38Z"/><path class="cls-5" d="M5.31,5.83a.69.69,0,0,1,0,.17c0,.06,0,.13,0,.19a.31.31,0,0,0,0,.16.05.05,0,0,0,.1,0s0,0,0-.12,0-.14,0-.18a2.23,2.23,0,0,1,.05-.36s0-.09,0-.12.06-.22,0,0l0,.1A1.21,1.21,0,0,0,5.31,5.83Z"/><path class="cls-5" d="M5.06,6.37s0,.06,0,.1,0,.09.05.12,0,0,0-.06a1.39,1.39,0,0,0,0-.15,1.42,1.42,0,0,1,0-.2.42.42,0,0,1,0-.12c0-.08,0-.12,0,0v.15s0,.08,0,.12S5.06,6.36,5.06,6.37Z"/><path class="cls-5" d="M4.77,6.09V6c0-.09.05.08.05.09a.86.86,0,0,1,.07.21c0,.06,0,.06-.06,0A.56.56,0,0,1,4.77,6.09Z"/><path class="cls-5" d="M4.62,6.19a.29.29,0,0,1,0,.1,1.18,1.18,0,0,1,.08.13l.09.14s0,0,0,.05,0,0-.09,0a.25.25,0,0,1-.1-.15.89.89,0,0,1-.07-.19S4.56,6.07,4.62,6.19Z"/><path class="cls-5" d="M4.43,6.4s.14.07.15.09l.12.09c0,.06,0,0,0,.12a0,0,0,0,1,0,0h0a.48.48,0,0,1-.09-.13L4.51,6.5Z"/><path class="cls-5" d="M6.52,5.43v0s0,0,0,0,0,.07,0,.12,0,0,0,0a.07.07,0,0,1,0,.07s0,0,0-.06A.32.32,0,0,1,6.52,5.43Z"/><path class="cls-5" d="M6.68,5.57a.32.32,0,0,0,0-.08s0-.07,0,0,0,0,0,.06a.22.22,0,0,1,0,.06C6.72,5.61,6.68,5.63,6.68,5.57Z"/><path class="cls-5" d="M6.76,6.06a1.61,1.61,0,0,0,0,.22v0s0,0,0,0,0,0,0,0-.05-.09,0-.13,0-.15,0-.2S6.76,6,6.76,6.06Z"/><path class="cls-5" d="M6.93,6a1.65,1.65,0,0,1,0,.23.2.2,0,0,0,0,.07s0,.06,0,.07H6.89s0,0,0-.08A.88.88,0,0,1,6.91,6S6.93,6,6.93,6Z"/><path class="cls-5" d="M7.16,6.35a.05.05,0,0,1-.09,0s0,0,0-.07a1,1,0,0,1,.08-.19s0,0,0,0A.69.69,0,0,0,7.16,6.35Z"/><path class="cls-5" d="M7.2,6.29v0s0,0,0,0,0,.05,0,.07v0a.05.05,0,0,1,0,0s0,0,0,0S7.2,6.31,7.2,6.29Z"/><path class="cls-5" d="M5.81,5.79c.06,0,.12-.07.11-.14V5.59c0-.09,0,0,0,0s0,.21.08.3.06,0,.06,0,0-.11,0-.18.05-.23.07-.33,0-.07,0,.06,0,.16,0,.23,0,.24,0,.33,0,.06,0,0,.16-.2.22-.25,0,0,0,.08a.73.73,0,0,0-.16.29.3.3,0,0,1,0,.1s-.06,0-.09,0a.06.06,0,0,1,0,0V6.17a1.76,1.76,0,0,1,0-.23c0-.05,0-.1,0-.14a.66.66,0,0,0,0,.15,1,1,0,0,1,0,.18.42.42,0,0,1,0,.06s0,0-.07,0,0,0,0-.06A.16.16,0,0,0,6,6.1c0-.07,0-.17-.05-.23a.37.37,0,0,0-.14,0S5.77,5.82,5.81,5.79Z"/><path class="cls-5" d="M7.65,6.24a.45.45,0,0,1,.07.18s0,0,0,0,.07,0,.08,0a.6.6,0,0,0,0-.23c0-.06,0-.1,0,0s0,.12,0,.15h0s0-.14-.11-.16,0,0,0,0Z"/><path class="cls-5" d="M8.06,6.49a.24.24,0,0,1-.13,0s0-.05,0-.07v0s0,0,0,0l0,0A.19.19,0,0,1,8,6.2s0,.09,0,.1v.09s0,0,0,0a.51.51,0,0,1,.14-.08s.05,0,0,0l-.13.14S8.1,6.49,8.06,6.49Z"/><path class="cls-5" d="M7.74,4.43A.59.59,0,0,1,8,4.67.86.86,0,0,1,8,5c0,.09,0,.07.07.1s0,0,0-.07,0-.23,0-.33A.42.42,0,0,0,7.74,4.43Z"/><path class="cls-5" d="M8.62,4.29a2.39,2.39,0,0,0-.21.34l-.1.22a.93.93,0,0,0,0,.13.22.22,0,0,0,0,.11s0,0,0,0,0,0,0-.06a.14.14,0,0,1,0-.05l0-.07a.56.56,0,0,0,0-.12l0-.06a.64.64,0,0,0,0-.09s0-.07,0-.09l.09-.22S8.63,4.3,8.62,4.29Z"/><path class="cls-5" d="M9.24,4.39A2.77,2.77,0,0,0,9,4.58,4.32,4.32,0,0,0,8.62,5s0,0,.06,0a.78.78,0,0,1,.26-.09s-.07,0-.13.08l-.14.11s-.07.08-.1.08-.2,0-.19,0A.29.29,0,0,1,8.46,5l.14-.18.2-.16L9,4.53A.7.7,0,0,1,9.24,4.39Z"/><path class="cls-5" d="M9.19,4.82a.56.56,0,0,0-.1.29,0,0,0,0,0,0,0h0l0,0s0,0,0-.05a1.18,1.18,0,0,1,0-.27S9.24,4.76,9.19,4.82Z"/><path class="cls-5" d="M9.31,4.87s0,.06,0,.09,0,0,0,.06a.25.25,0,0,0,0,.09s0,.1.05.1,0,0,0-.07a1,1,0,0,1,0-.24C9.35,4.85,9.35,4.79,9.31,4.87Z"/><path class="cls-5" d="M9.43,4.9c.07-.19.14-.33.21-.53s.06-.08,0,0A4.48,4.48,0,0,0,9.59,5c0,.07,0,.17.05,0A.67.67,0,0,1,9.7,5l.16-.26c.08-.1.24-.39.12-.11,0,.07-.05.13-.08.19s-.06.14-.08.22l0,.21s0,.14,0,.13c0-.19,0-.18,0-.23s0-.1,0,0a.52.52,0,0,0-.06.16c0,.07,0,0-.05,0s0-.06-.06,0,0,0,0-.06a.18.18,0,0,1,0-.06l0-.26c0-.07,0-.06,0,0a1.34,1.34,0,0,0-.06.12s0,.29-.06.16A.35.35,0,0,1,9.43,4.9Z"/><path class="cls-5" d="M9.9,5.07l-.07.11c0,.1,0,.22,0,.23s0,0,0-.06,0-.07,0-.14,0-.08,0-.11A.53.53,0,0,0,10,5S10,5,9.9,5.07Z"/><path class="cls-5" d="M10.35,4.78l-.12.12s0,0,0,0-.07.07-.11.12a.7.7,0,0,0-.08.1L10,5.25s0,.1,0,.11,0,0,0-.06l.07-.11a.47.47,0,0,1,.05-.1s0-.07.09-.13l.07-.11S10.38,4.76,10.35,4.78Z"/><path class="cls-8" d="M7.21,5.05a.21.21,0,0,1-.1-.18s0,0,0,0,.13.17.15.18a1,1,0,0,0,.58.24.08.08,0,0,1,.08,0,.19.19,0,0,0,.29,0c.08-.06.08-.08.2-.08l.47,0s.11,0,.1.08v.06a.2.2,0,0,0,.18.2.19.19,0,0,0,.2,0s0-.09,0-.17,0,0,0,0a.31.31,0,0,1,.18.11.16.16,0,0,1,0,.09s.09.08.09.09a.52.52,0,0,1-.07.11s0,0-.06,0a.35.35,0,0,0-.23,0,1,1,0,0,1-.54-.16.47.47,0,0,0-.34-.19c-.08,0-.19.08-.29.08a.39.39,0,0,1-.31-.1c-.08-.06-.09-.09-.16-.09s-.11,0-.18,0a.14.14,0,0,1-.19-.11A.32.32,0,0,0,7.21,5.05Z"/><path class="cls-9" d="M12.29,6.4a.65.65,0,0,1-.34.23,0,0,0,0,1,0,0,.14.14,0,0,0,0-.09s0,0,0,0a.75.75,0,0,0,.3-.1l.07,0h0l0,0Zm-1.1.06.23,0c.05,0,.06,0,0,0a.11.11,0,0,0,0,.11s0,0-.06,0A.78.78,0,0,1,11,6.61a0,0,0,0,1,0-.06l.09-.08S11.15,6.45,11.19,6.46Z"/><path class="cls-3" d="M3.08,14.87v-.59c0-.1,0-.13-.12-.16H2.84s0,0,0,0,0,0,.07,0h.82c.52,0,.61.27.61.41A.61.61,0,0,1,4,15a.69.69,0,0,1,.53.61c0,.3-.23.61-.77.61H2.89s-.05,0-.05,0,0,0,0,0H3s.07-.07.08-.15,0-.33,0-.59Zm.38,0s0,0,0,0h.13a.37.37,0,0,0,.23,0A.38.38,0,0,0,4,14.61a.38.38,0,0,0-.36-.42H3.48a.06.06,0,0,0,0,.05Zm0,.82c0,.19,0,.24.1.28a.53.53,0,0,0,.21,0,.34.34,0,0,0,.35-.39.61.61,0,0,0-.27-.5.44.44,0,0,0-.25-.07H3.47s0,0,0,0Z"/><path class="cls-3" d="M5.12,14.91v-.56c0-.1,0-.12-.12-.15H4.89s0,0,0,0,0,0,.06,0h.82a.94.94,0,0,1,.52.11.48.48,0,0,1,.2.37c0,.2-.11.38-.39.6.25.3.45.54.61.71a.62.62,0,0,0,.3.18H7a0,0,0,0,1,0,0s0,0,0,0H6.74a.71.71,0,0,1-.3-.05,1.33,1.33,0,0,1-.38-.4c-.11-.14-.23-.32-.26-.37l0,0H5.5s0,0,0,0v0c0,.25,0,.46,0,.57s0,.13.11.14h.14a0,0,0,0,1,0,0s0,0-.06,0H4.94s-.06,0-.06,0,0,0,0,0H5S5.1,16,5.11,16s0-.33,0-.57Zm.36.21s0,0,0,.05a.71.71,0,0,0,.21,0,.27.27,0,0,0,.2,0,.46.46,0,0,0,.18-.4.41.41,0,0,0-.42-.47H5.5s0,0,0,0Z"/><path class="cls-3" d="M7.45,15.49l0,0-.15.36a.49.49,0,0,0,0,.17s0,.07.11.07h0s0,0,0,0,0,0,0,0H6.76s0,0,0,0,0,0,0,0h.08c.13,0,.17-.1.23-.24l.73-1.69c0-.07,0-.11.08-.11s0,0,.08.09.53,1.25.71,1.66c.11.24.19.27.23.28H9s0,0,0,0,0,0-.12,0H8.37s-.08,0-.08,0,0,0,0,0,0,0,0-.06l-.21-.54,0,0Zm.6-.15h0l-.26-.68s0,0,0,0v0l-.27.68s0,0,0,0Z"/><path class="cls-3" d="M9.5,15.8c0,.21.05.27.1.29a.36.36,0,0,0,.14,0s0,0,0,0,0,0-.06,0H9.07s-.06,0-.06,0,0,0,0,0h.13c.07,0,.08-.09.08-.33l0-1.59s0-.09,0-.09.08,0,.12.09l.86.85.6.61h0l0-1.2c0-.16,0-.21-.09-.23a.36.36,0,0,0-.14,0s-.05,0-.05,0,0,0,.07,0h.63s.06,0,.06,0,0,0,0,0h-.08c-.08,0-.1.07-.11.22l0,1.7c0,.06,0,.08,0,.08a.14.14,0,0,1-.11-.06l-.82-.77c-.3-.29-.59-.62-.65-.66h0Z"/><path class="cls-3" d="M12,14.91v-.56c0-.1,0-.12-.12-.15h-.11s-.05,0-.05,0,0,0,.07,0h.85a1.54,1.54,0,0,1,1.12.3,1,1,0,0,1,.26.69,1.1,1.1,0,0,1-.3.75,1.35,1.35,0,0,1-.94.31h-.33l-.28,0h-.35s0,0,0,0,0,0,0,0h.1c.06,0,.07-.06.08-.14s0-.33,0-.57Zm.38.3v.55c0,.06,0,.16,0,.18s.14.11.36.11a.89.89,0,0,0,.61-.18.82.82,0,0,0,.23-.67.86.86,0,0,0-.26-.67,1.14,1.14,0,0,0-.77-.25.39.39,0,0,0-.17,0s0,0,0,0v.86Z"/><path class="cls-3" d="M5.23,12.83c0,.23,0,.3.11.32a.44.44,0,0,0,.16,0s.06,0,.06,0,0,0-.07,0H4.74s-.07,0-.07,0a0,0,0,0,1,0,0h.14c.08,0,.09-.1.1-.37L5,11c0-.06,0-.11,0-.11s.08,0,.14.1l1,1,.68.68h0l0-1.35c0-.18,0-.24-.11-.26a.44.44,0,0,0-.16,0s0,0,0,0,0,0,.08,0h.7s.08,0,.08,0,0,0-.06,0H7.19c-.09,0-.12.08-.12.25l0,1.91c0,.07,0,.09,0,.09a.18.18,0,0,1-.13-.06l-.92-.87c-.34-.33-.67-.7-.73-.75h0Z"/><path class="cls-3" d="M8.08,12.48s0,0,0,0l-.17.4a.67.67,0,0,0,0,.19c0,.05,0,.08.13.08H8s.05,0,.05,0,0,0-.05,0H7.3s-.06,0-.06,0a0,0,0,0,1,0,0h.09c.14,0,.19-.11.26-.27L8.45,11c0-.09.06-.13.09-.13s.06,0,.09.1.6,1.41.8,1.87c.12.27.21.31.27.32h.11a0,0,0,0,1,0,0s0,0-.14,0h-.6c-.06,0-.09,0-.09,0s0,0,0,0,0,0,0-.06l-.25-.61s0,0,0,0Zm.67-.17s0,0,0,0l-.3-.77v0s0,0,0,0l-.3.77s0,0,0,0Z"/><path class="cls-3" d="M10.61,12h0c.1-.12.56-.56.65-.67s.16-.17.16-.22a.07.07,0,0,0,0-.06l-.05,0s0,0,.05,0h.69s.06,0,.06,0,0,0-.05,0a.57.57,0,0,0-.18,0,.94.94,0,0,0-.33.23c-.1.09-.57.53-.67.64.11.14.73.79.85.9a1.46,1.46,0,0,0,.43.32.44.44,0,0,0,.19,0,0,0,0,0,1,0,0s0,0-.07,0h-.49a.68.68,0,0,1-.41-.19c-.13-.12-.73-.82-.8-.91l0,0h0v.27c0,.28,0,.51,0,.65s0,.14.11.15h.16a0,0,0,0,1,0,0s0,0-.06,0H10s-.06,0-.06,0,0,0,.05,0h.11c.07,0,.09-.07.1-.16s0-.36,0-.64V11.18c0-.1,0-.13-.14-.16H9.94s-.06,0-.06,0,0,0,.07,0h.85s.06,0,.06,0,0,0,0,0h-.09c-.09,0-.11.05-.11.16s0,.18,0,.64Z"/><path class="cls-3" d="M12.64,11.82v-.64c0-.1,0-.13-.14-.16h-.12s-.06,0-.06,0,0,0,.08,0h.45c.1,0,.79,0,.85,0h.13l.05,0a0,0,0,0,1,0,0,1.38,1.38,0,0,0,0,.2,1.5,1.5,0,0,1,0,.2s0,.05,0,.05,0,0,0,0a.23.23,0,0,0,0-.11c0-.06,0-.1-.21-.11l-.49,0s0,0,0,0v.75s0,0,0,0h.55c.08,0,.12,0,.15,0l.05,0a0,0,0,0,1,0,0s0,.07,0,.22a1.64,1.64,0,0,0,0,.2s0,.07,0,.07,0,0,0,0,0-.08,0-.11-.05-.11-.17-.12l-.49,0s0,0,0,0v.69c0,.21.1.25.42.25a.75.75,0,0,0,.3,0c.08,0,.11-.1.14-.22s0-.05,0-.05,0,0,0,.07a1.86,1.86,0,0,1,0,.34c0,.08,0,.08-.17.08l-.58,0h-.76s-.06,0-.06,0,0,0,.05,0h.11c.07,0,.09-.07.1-.16s0-.36,0-.64Z"/><path class="cls-3" d="M4.42,12.55a1.07,1.07,0,0,0-.54-.86l-.07,0-.1-.08c-.29-.22-.37-.34-.37-.51a.37.37,0,0,1,.42-.36.44.44,0,0,1,.48.4c0,.05,0,.07,0,.07s0,0,0-.11c0-.28,0-.38,0-.43s0,0,0,0a1.91,1.91,0,0,0-.47-.06c-.5,0-.82.28-.82.67a1.06,1.06,0,0,0,.52.85l.17.13a1.12,1.12,0,0,1,.29.31c.1.24-.12.68-.69.6a.64.64,0,0,1-.6-.49c0-.29.09-.41.19-.43a.26.26,0,0,1,.19.09s0,0,0,0,0,0,0-.06c-.31-.36-.74.07-.67.46a.88.88,0,0,0,.89.65c.79,0,1.07-.39,1.1-.74h0Z"/></g></g></svg>