<svg id="Layer_1" data-name="Layer 1" xmlns="http://www.w3.org/2000/svg" viewBox="0 0 67.34 21.52"><defs><style>.cls-1{fill:#fff;}.cls-2{fill:#23356f;}.cls-3{fill:#a92028;}.cls-4{fill:#6a1c33;}</style></defs><rect class="cls-1" width="67.34" height="21.52"/><path class="cls-2" d="M26.49,7.36A1.23,1.23,0,0,0,27,6.31a1.34,1.34,0,0,0-.41-1,2,2,0,0,0-1.5-.53h-2.3a.22.22,0,0,0-.22.23v5.13a.22.22,0,0,0,.22.23h2.38c1.31,0,2.12-.63,2.12-1.65A1.5,1.5,0,0,0,26.49,7.36ZM25.91,8.7c0,.4-.41.48-.76.48H23.84v-1h1.24C25.63,8.22,25.91,8.38,25.91,8.7Zm-.28-2.22q0,.45-.75.45h-1V6H25c.42,0,.68.18.68.49Z"/><path class="cls-2" d="M33.16,10.06,30.9,4.88a.21.21,0,0,0-.2-.13h-.84a.21.21,0,0,0-.2.13L27.4,10.06a.2.2,0,0,0,0,.21.22.22,0,0,0,.18.1h.93a.22.22,0,0,0,.2-.14l.47-1.1h2.14l.46,1.1a.22.22,0,0,0,.2.14h1a.22.22,0,0,0,.18-.1A.2.2,0,0,0,33.16,10.06ZM30.81,7.88H29.72l.55-1.27Z"/><path class="cls-2" d="M38.36,4.78h-.89a.22.22,0,0,0-.22.23v2.9l-2.36-3a.22.22,0,0,0-.17-.09h-.84a.22.22,0,0,0-.22.23v5.13a.22.22,0,0,0,.22.23h.89a.22.22,0,0,0,.22-.23v-3l2.44,3.14a.22.22,0,0,0,.17.09h.76a.22.22,0,0,0,.22-.23V5A.22.22,0,0,0,38.36,4.78Z"/><path class="cls-2" d="M44.42,7.05H42.29a.22.22,0,0,0-.22.22v.8a.22.22,0,0,0,.22.22h1V8.9a1.87,1.87,0,0,1-1,.29,1.49,1.49,0,0,1-1.52-1.63A1.49,1.49,0,0,1,42.23,6a1.86,1.86,0,0,1,1.3.49.21.21,0,0,0,.31,0l.57-.68a.21.21,0,0,0,0-.31,2.93,2.93,0,0,0-2.11-.75,2.85,2.85,0,0,0-2.88,2.88h0a2.78,2.78,0,0,0,2.89,2.86,3.49,3.49,0,0,0,2.29-.85.21.21,0,0,0,.08-.17V7.27A.22.22,0,0,0,44.42,7.05Z"/><path class="cls-2" d="M50.55,10l-2.1-2.78,2-2.07a.23.23,0,0,0,.05-.24.24.24,0,0,0-.21-.14H49.16a.24.24,0,0,0-.16.07L47,7V5a.22.22,0,0,0-.22-.23h-.91a.22.22,0,0,0-.22.23v5.13a.22.22,0,0,0,.22.23h.91a.22.22,0,0,0,.22-.23V8.75l.55-.58,1.58,2.11a.24.24,0,0,0,.18.09h1.1a.23.23,0,0,0,.2-.13A.22.22,0,0,0,50.55,10Z"/><path class="cls-2" d="M53.4,4.7a2.86,2.86,0,0,0-2.91,2.88h0a2.81,2.81,0,0,0,2.9,2.86A2.86,2.86,0,0,0,56.3,7.56,2.82,2.82,0,0,0,53.4,4.7Zm1.51,2.88h0a1.52,1.52,0,1,1-3,0,1.52,1.52,0,1,1,3,0Z"/><path class="cls-2" d="M61.86,10l-2.1-2.78,2-2.07a.23.23,0,0,0,0-.24.24.24,0,0,0-.21-.14H60.47a.24.24,0,0,0-.16.07L58.28,7V5a.23.23,0,0,0-.23-.23h-.9a.22.22,0,0,0-.22.23v5.13a.22.22,0,0,0,.22.23h.9a.23.23,0,0,0,.23-.23V8.75l.55-.58,1.58,2.11a.24.24,0,0,0,.17.09h1.11a.23.23,0,0,0,.2-.13A.24.24,0,0,0,61.86,10Z"/><path class="cls-2" d="M27,11.2h-.9a.22.22,0,0,0-.22.23v1.92h-2V11.43a.23.23,0,0,0-.23-.23h-.9a.22.22,0,0,0-.22.23v5.13a.22.22,0,0,0,.22.22h.9a.22.22,0,0,0,.23-.22V14.63h2v1.93a.22.22,0,0,0,.22.22H27a.22.22,0,0,0,.22-.22V11.43A.22.22,0,0,0,27,11.2Z"/><path class="cls-2" d="M30.9,11.11A2.87,2.87,0,0,0,28,14v0a2.81,2.81,0,0,0,2.9,2.86A2.86,2.86,0,0,0,33.8,14,2.82,2.82,0,0,0,30.9,11.11ZM32.41,14v0a1.51,1.51,0,0,1-1.51,1.58A1.53,1.53,0,0,1,29.38,14a1.52,1.52,0,1,1,3,0Z"/><path class="cls-2" d="M37,13.37c-1.07-.25-1.07-.4-1.07-.61s.26-.39.63-.39a2.24,2.24,0,0,1,1.32.45.21.21,0,0,0,.17,0,.24.24,0,0,0,.15-.09l.45-.65a.21.21,0,0,0-.05-.3,3.11,3.11,0,0,0-2-.69,1.82,1.82,0,0,0-2,1.73c0,1.19.94,1.52,1.91,1.75s1,.41,1,.58-.31.42-.74.42A2.27,2.27,0,0,1,35.21,15,.22.22,0,0,0,35,15a.19.19,0,0,0-.15.08l-.52.64a.22.22,0,0,0,0,.31,3.49,3.49,0,0,0,2.32.88c1.29,0,2.15-.71,2.15-1.77S37.92,13.59,37,13.37Z"/><path class="cls-2" d="M42.05,11.2H39.92a.22.22,0,0,0-.22.23v5.13a.22.22,0,0,0,.22.22h.9a.22.22,0,0,0,.22-.22V15.13h.9a2,2,0,0,0,2.29-2A2,2,0,0,0,42.05,11.2Zm.81,2c0,.42-.35.69-.89.69H41v-1.4H42C42.38,12.47,42.86,12.59,42.86,13.18Z"/><rect class="cls-2" x="45.05" y="11.2" width="1.35" height="5.58" rx="0.22"/><path class="cls-2" d="M51.74,11.2H47.52a.23.23,0,0,0-.23.23v.83a.22.22,0,0,0,.23.22h1.37v4.08a.22.22,0,0,0,.22.22H50a.22.22,0,0,0,.23-.22V12.48h1.5a.22.22,0,0,0,.22-.22v-.83A.22.22,0,0,0,51.74,11.2Z"/><path class="cls-2" d="M57.25,16.47,55,11.3a.21.21,0,0,0-.2-.13H54a.21.21,0,0,0-.2.13l-2.26,5.17a.22.22,0,0,0,0,.21.2.2,0,0,0,.18.1h.93a.21.21,0,0,0,.2-.13l.47-1.11h2.14l.46,1.11a.23.23,0,0,0,.21.13h.95a.23.23,0,0,0,.19-.1A.22.22,0,0,0,57.25,16.47ZM54.91,14.3h-1.1L54.36,13Z"/><path class="cls-2" d="M61.69,15.49H59.26V11.43A.23.23,0,0,0,59,11.2h-.9a.22.22,0,0,0-.22.23v5.13a.22.22,0,0,0,.22.22h3.56a.22.22,0,0,0,.22-.22v-.84A.22.22,0,0,0,61.69,15.49Z"/><path class="cls-2" d="M17,10.78H15.7v1.29a.43.43,0,0,1-.43.43H12.7a.42.42,0,0,0-.42.42v2.57a.43.43,0,0,1-.43.43H9.28a.43.43,0,0,1-.43-.43V12.92a.42.42,0,0,0-.42-.42h-3v5.13H15.59A3.58,3.58,0,0,0,17,10.78Z"/><path class="cls-3" d="M15.59,3.94H5.43V9.07h3a.42.42,0,0,0,.42-.42V6.08a.43.43,0,0,1,.43-.43h2.57a.43.43,0,0,1,.43.43V8.65a.42.42,0,0,0,.42.42h2.57a.43.43,0,0,1,.43.43v1.28H17a3.57,3.57,0,0,0-1.41-6.84Z"/><path class="cls-4" d="M8.43,9.07a.42.42,0,0,0,.42-.42V6.08A.45.45,0,0,1,9,5.77H9L5.44,9.07Z"/><path class="cls-1" d="M15.27,9.07H12.7a.42.42,0,0,1-.42-.42V6.08a.43.43,0,0,0-.43-.43H9.28a.43.43,0,0,0-.43.43V8.65a.42.42,0,0,1-.42.42h-3V12.5h3a.42.42,0,0,1,.42.42v2.57a.43.43,0,0,0,.43.43h2.57a.43.43,0,0,0,.43-.43V12.92a.42.42,0,0,1,.42-.42h2.57a.43.43,0,0,0,.43-.43V9.5A.43.43,0,0,0,15.27,9.07Z"/></svg>